{
.appVersion = "3134";
.formatVersion = 3;
classes = (
{
code = "A Aacute Abreve Acircumflex Adieresis Agrave Amacron Aogonek Aring Atilde AE B C Cacute Ccaron Ccedilla Cdotaccent D Eth Dcaron Dcroat E Eacute Ecaron Ecircumflex Edieresis Edotaccent Egrave Emacron Eogonek F G Gbreve Gdotaccent H Hbar I Iacute Icircumflex Idieresis Idotaccent Igrave Imacron Iogonek J K L Lacute Lcaron Ldot Lslash M N Nacute Ncaron Ntilde Eng O Oacute Ocircumflex Odieresis Ograve Ohungarumlaut Omacron Oslash Otilde OE P Thorn Q R Racute Rcaron S Sacute Scaron Scedilla T Tbar Tcaron U Uacute Ucircumflex Udieresis Ugrave Uhungarumlaut Umacron Uogonek Uring V W Wacute Wcircumflex Wdieresis Wgrave X Y Yacute Ycircumflex Ydieresis Ygrave Z Zacute Zcaron Zdotaccent A_E A_O C_H C_Q D_E E_A Eacute_E E_S E_U E_T_E F_F_E F_V I_E I_L L_E L_L_E L_U M_P N_A N_E N_N_E O_F O_T_E O_Idieresis P_M R_E R_I_C_E R_S S_E S_L S_S_E S_T_E_S T_E T_T_E U_E U_L_L_E X_C_E X_L X_S_E X_S_S 
";
name = Uppercase;
}
);
customParameters = (
{
name = panose;
value = (
0,
0,
7,
0,
0,
0,
0,
0,
0,
0
);
},
{
name = unicodeRanges;
value = (
0,
1,
2
);
},
{
name = codePageRanges;
value = (
"1252",
"1250",
"1254",
"1257",
"bit 29"
);
},
{
name = blueScale;
value = 0.037;
},
{
name = glyphOrder;
value = (
.notdef,
A,
Aacute,
Abreve,
Acircumflex,
Adieresis,
Agrave,
Amacron,
Aogonek,
Aring,
Atilde,
AE,
B,
C,
Cacute,
Ccaron,
Ccedilla,
Cdotaccent,
D,
Eth,
Dcaron,
Dcroat,
E,
Eacute,
Ecaron,
Ecircumflex,
Edieresis,
Edotaccent,
Egrave,
Emacron,
Eogonek,
F,
G,
Gbreve,
Gcommaaccent,
Gdotaccent,
H,
Hbar,
I,
IJ,
Iacute,
Icircumflex,
Idieresis,
Idotaccent,
Igrave,
Imacron,
Iogonek,
J,
K,
Kcommaaccent,
L,
Lacute,
Lcaron,
Lcommaaccent,
Ldot,
Lslash,
M,
N,
Nacute,
Ncaron,
Ncommaaccent,
Eng,
Ntilde,
O,
Oacute,
Ocircumflex,
Odieresis,
Ograve,
Ohungarumlaut,
Omacron,
Oslash,
Otilde,
OE,
P,
Thorn,
Q,
R,
Racute,
Rcaron,
Rcommaaccent,
S,
Sacute,
Scaron,
Scedilla,
Scommaaccent,
T,
Tbar,
Tcaron,
Tcedilla,
uni021A,
U,
Uacute,
Ucircumflex,
Udieresis,

glyphs = (
{
glyphname = .notdef;
layers = (
{
hints = (
{
horizontal = 1;
place = (0, 50);
place = (0, 50);
type = Stem;
},
{
horizontal = 1;
place = (650, 50);
place = (650, 50);
type = Stem;
},
{
place = (0, 50);
place = (0, 50);
type = Stem;
},
{
place = (450, 50);
place = (450, 50);
type = Stem;
}
);
layerId = m01;
shapes = (
{
closed = 1;
nodes = (
(0,0,l),
(500,0,l),
(500,700,l),
(0,700,l)
);
},
{
closed = 1;
nodes = (
(250,395,l),
(80,650,l),
(420,650,l)
);
},
{
closed = 1;
nodes = (
(280,350,l),
(450,605,l),
(450,95,l)
);
},
{
closed = 1;
nodes = (
(80,50,l),
(250,305,l),
(420,50,l)
);
},
{
closed = 1;
nodes = (
(50,605,l),
(220,350,l),
(50,95,l)
);
}
);
width = 500;
}
);
note = ".notdef";
},
{
glyphname = A;
kernLeft = A;
kernRight = A;
layers = (
{
hints = (
{
horizontal = 1;
place = (0, 21);
target = up;
type = BottomGhost;
},
{
horizontal = 1;
place = (228, 87);
place = (228, 87);
type = Stem;
},
{
horizontal = 1;
place = (690, -20);
target = down;
type = TopGhost;
},
{
place = (23, 631);
place = (23, 631);
type = Stem;
},
{
horizontal = 1;
place = (599, 91);
place = (599, 91);
type = Stem;
}
);
layerId = m01;
shapes = (
{
closed = 1;
nodes = (
(460,228,l),
(535,0,l),
(654,0,l),
(413,690,l),
(271,690,l),
(23,0,l),
(140,0,l),
(215,228,l)
);
},
{
closed = 1;
nodes = (
(244,315,l),
(340,599,l),
(431,315,l)
);
}
);
width = 656;
}
);
note = A;
unicode = 65;
},
{
glyphname = Aacute;
kernLeft = A;
kernRight = A;
layers = (
{
hints = (
{
horizontal = 1;
place = (0, 21);
target = up;
type = BottomGhost;
},
{
horizontal = 1;
place = (228, 87);
place = (228, 87);
type = Stem;
},
{
horizontal = 1;
place = (690, -20);
target = down;
type = TopGhost;
},
{
horizontal = 1;
place = (736, 102);
place = (736, 102);
type = Stem;
},
{
place = (23, 631);
place = (23, 631);
type = Stem;
},
{
horizontal = 1;
place = (599, 91);
place = (599, 91);
type = Stem;
}
);
layerId = m01;
shapes = (
{
closed = 1;
nodes = (
(370,736,l),
(467,838,l),
(367,838,l),
(304,736,l)
);
},
{
closed = 1;
nodes = (
(460,228,l),
(535,0,l),
(654,0,l),
(413,690,l),
(271,690,l),
(23,0,l),
(140,0,l),
(215,228,l)
);
},
{
closed = 1;
nodes = (
(244,315,l),
(340,599,l),
(431,315,l)
);
}
);
width = 656;
}
);
note = Aacute;
unicode = 193;
},
{
glyphname = Abreve;
kernLeft = A;
kernRight = A;
layers = (
{
hints = (
{
horizontal = 1;
place = (0, 21);
target = up;
type = BottomGhost;
},
{
horizontal = 1;
place = (228, 87);
place = (228, 87);
type = Stem;
},
{
horizontal = 1;
place = (690, -20);
target = down;
type = TopGhost;
},
{
horizontal = 1;
place = (724, 62);
place = (724, 62);
type = Stem;
},
{
place = (232, 62);
place = (232, 62);
type = Stem;
},
{
place = (390, 62);
place = (390, 62);
type = Stem;
},
{
horizontal = 1;
place = (599, 91);
place = (599, 91);
type = Stem;
}
);
layerId = m01;
shapes = (
{
closed = 1;
nodes = (
(413,724,o),
(452,761,o),
(452,838,c),
(390,838,l),
(389,803,o),
(371,786,o),
(342,786,cs),
(313,786,o),
(295,803,o),
(294,838,c),
(232,838,l),
(232,761,o),
(270,724,o),
(342,724,cs)
);
},
{
closed = 1;
nodes = (
(460,228,l),
(535,0,l),
(654,0,l),
(413,690,l),
(271,690,l),
(23,0,l),
(140,0,l),
(215,228,l)
);
},
{
closed = 1;
nodes = (
(244,315,l),
(340,599,l),
(431,315,l)
);
}
);
width = 656;
}
);
note = Abreve;
unicode = 258;
},
{
glyphname = Acircumflex;
kernLeft = A;
kernRight = A;
layers = (
{
hints = (
{
horizontal = 1;
place = (0, 21);
target = up;
type = BottomGhost;
},
{
horizontal = 1;
place = (228, 87);
place = (228, 87);
type = Stem;
},
{
horizontal = 1;
place = (690, -20);
target = down;
type = TopGhost;
},
{
horizontal = 1;
place = (736, 102);
place = (736, 102);
type = Stem;
},
{
place = (23, 631);
place = (23, 631);
type = Stem;
},
{
horizontal = 1;
place = (599, 91);
place = (599, 91);
type = Stem;
}
);
layerId = m01;
shapes = (
{
closed = 1;
nodes = (
(311,736,l),
(342,796,l),
(373,736,l),
(449,736,l),
(383,838,l),
(302,838,l),
(236,736,l)
);
},
{
closed = 1;
nodes = (
(460,228,l),
(535,0,l),
(654,0,l),
(413,690,l),
(271,690,l),
(23,0,l),
(140,0,l),
(215,228,l)
);
},
{
closed = 1;
nodes = (
(244,315,l),
(340,599,l),
(431,315,l)
);
}
);
width = 656;
}
);
note = Acircumflex;
unicode = 194;
},
{
glyphname = Adieresis;
kernLeft = A;
kernRight = A;
lastChange = "2022-11-25 15:29:11 +0000";
layers = (
{
hints = (
{
horizontal = 1;
place = (0, 21);
target = up;
type = BottomGhost;
},
{
horizontal = 1;
place = (228, 87);
place = (228, 87);
type = Stem;
},
{
horizontal = 1;
place = (690, -20);
target = down;
type = TopGhost;
},
{
horizontal = 1;
place = (733, 106);
place = (733, 106);
type = Stem;
},
{
place = (211, 107);
place = (211, 107);
type = Stem;
},
{
place = (366, 107);
place = (366, 107);
type = Stem;
},
{
horizontal = 1;
place = (599, 91);
place = (599, 91);
type = Stem;
}
);
layerId = m01;
shapes = (
{
closed = 1;
nodes = (
(460,228,l),
(535,0,l),
(654,0,l),
(413,690,l),
(271,690,l),
(23,0,l),
(140,0,l),
(215,228,l)
);
},
{
closed = 1;
nodes = (
(244,315,l),
(340,599,l),
(431,315,l)
);
},
{
closed = 1;
nodes = (
(211,733,l),
(319,733,l),
(319,839,l),
(211,839,l)
);
},
{
closed = 1;
nodes = (
(366,733,l),
(474,733,l),
(474,839,l),
(366,839,l)
);
}
);
width = 656;
}
);
note = Adieresis;
unicode = 196;
},
{
glyphname = Agrave;
kernLeft = A;
kernRight = A;
layers = (
{
hints = (
{
horizontal = 1;
place = (0, 21);
target = up;
type = BottomGhost;
},
{
horizontal = 1;
place = (228, 87);
place = (228, 87);
type = Stem;
},
{
horizontal = 1;
place = (690, -20);
target = down;
type = TopGhost;
},
{
horizontal = 1;
place = (736, 102);
place = (736, 102);
type = Stem;
},
{
place = (23, 631);
place = (23, 631);
type = Stem;
},
{
horizontal = 1;
place = (599, 91);
place = (599, 91);
type = Stem;
}
);
layerId = m01;
shapes = (
{
closed = 1;
nodes = (
(315,736,l),
(381,736,l),
(318,838,l),
(218,838,l)
);
},
{
closed = 1;
nodes = (
(460,228,l),
(535,0,l),
(654,0,l),
(413,690,l),
(271,690,l),
(23,0,l),
(140,0,l),
(215,228,l)
);
},
{
closed = 1;
nodes = (
(244,315,l),
(340,599,l),
(431,315,l)
);
}
);
width = 656;
}
);
note = Agrave;
unicode = 192;
},
{
glyphname = Amacron;
kernLeft = A;
kernRight = A;
layers = (
{
hints = (
{
horizontal = 1;
place = (0, 21);
target = up;
type = BottomGhost;
},
{
horizontal = 1;
place = (228, 87);
place = (228, 87);
type = Stem;
},
{
horizontal = 1;
place = (690, -20);
target = down;
type = TopGhost;
},
{
horizontal = 1;
place = (758, 63);
place = (758, 63);
type = Stem;
},
{
place = (215, 255);
place = (215, 255);
type = Stem;
},
{
horizontal = 1;
place = (599, 91);
place = (599, 91);
type = Stem;
}
);
layerId = m01;
shapes = (
{
closed = 1;
nodes = (
(470,758,l),
(470,821,l),
(215,821,l),
(215,758,l)
);
},
{
closed = 1;
nodes = (
(460,228,l),
(535,0,l),
(654,0,l),
(413,690,l),
(271,690,l),
(23,0,l),
(140,0,l),
(215,228,l)
);
},
{
closed = 1;
nodes = (
(244,315,l),
(340,599,l),
(431,315,l)
);
}
);
width = 656;
}
);
note = Amacron;
unicode = 256;
},
{
glyphname = Aogonek;
kernLeft = A;
kernRight = A;
layers = (
{
hints = (
{
horizontal = 1;
place = (-223, 66);
place = (-223, 66);
type = Stem;
},
{
horizontal = 1;
place = (0, 21);
target = up;
type = BottomGhost;
},
{
horizontal = 1;
place = (228, 87);
place = (228, 87);
type = Stem;
},
{
horizontal = 1;
place = (690, -20);
target = down;
type = TopGhost;
},
{
place = (427, 102);
place = (427, 102);
type = Stem;
},
{
horizontal = 1;
place = (599, 91);
place = (599, 91);
type = Stem;
}
);
layerId = m01;
shapes = (
{
closed = 1;
nodes = (
(529,-50,o),
(567,-7,o),
(611,0,c),
(654,0,l),
(413,690,l),
(271,690,l),
(23,0,l),
(140,0,l),
(215,228,l),
(460,228,l),
(532,10,l),
(477,-14,o),
(427,-67,o),
(427,-138,cs),
(427,-201,o),
(467,-223,o),
(525,-223,cs),
(566,-223,o),
(600,-212,o),
(626,-192,c),
(626,-137,l),
(608,-151,o),
(591,-157,o),
(573,-157,cs),
(546,-157,o),
(529,-144,o),
(529,-107,cs)
);
},
{
closed = 1;
nodes = (
(244,315,l),
(340,599,l),
(431,315,l)
);
}
);
width = 656;
}
);
note = Aogonek;
unicode = 260;
},
{
glyphname = Aring;
kernLeft = A;
kernRight = A;
layers = (
{
hints = (
{
horizontal = 1;
place = (0, 21);
target = up;
type = BottomGhost;
},
{
horizontal = 1;
place = (228, 87);
place = (228, 87);
type = Stem;
},
{
horizontal = 1;
place = (690, -20);
target = down;
type = TopGhost;
},
{
horizontal = 1;
place = (718, 43);
place = (718, 43);
type = Stem;
},
{
horizontal = 1;
place = (845, 44);
place = (845, 44);
type = Stem;
},
{
place = (244, 58);
place = (244, 58);
type = Stem;
},
{
place = (382, 58);
place = (382, 58);
type = Stem;
},
{
horizontal = 1;
place = (599, 91);
place = (599, 91);
type = Stem;
}
);
layerId = m01;
shapes = (
{
closed = 1;
nodes = (
(399,718,o),
(440,753,o),
(440,803,cs),
(440,853,o),
(399,889,o),
(342,889,cs),
(285,889,o),
(244,853,o),
(244,803,cs),
(244,753,o),
(285,718,o),
(342,718,cs)
);
},
{
closed = 1;
nodes = (
(365,845,o),
(382,828,o),
(382,803,cs),
(382,779,o),
(365,761,o),
(342,761,cs),
(319,761,o),
(302,779,o),
(302,803,cs),
(302,828,o),
(319,845,o),
(342,845,cs)
);
},
{
closed = 1;
nodes = (
(460,228,l),
(535,0,l),
(654,0,l),
(413,690,l),
(271,690,l),
(23,0,l),
(140,0,l),
(215,228,l)
);
},
{
closed = 1;
nodes = (
(244,315,l),
(340,599,l),
(431,315,l)
);
}
);
width = 656;
}
);
note = Aring;
unicode = 197;
},
{
glyphname = Atilde;
kernLeft = A;
kernRight = A;
layers = (
{
hints = (
{
horizontal = 1;
place = (0, 21);
target = up;
type = BottomGhost;
},
{
horizontal = 1;
place = (228, 87);
place = (228, 87);
type = Stem;
},
{
horizontal = 1;
place = (690, -20);
target = down;
type = TopGhost;
},
{
horizontal = 1;
place = (748, 87);
place = (748, 87);
type = Stem;
},
{
place = (222, 52);
place = (222, 52);
type = Stem;
},
{
place = (410, 53);
place = (410, 53);
type = Stem;
},
{
horizontal = 1;
place = (744, 87);
place = (744, 87);
type = Stem;
},
{
horizontal = 1;
place = (599, 91);
place = (599, 91);
type = Stem;
}
);
layerId = m01;
shapes = (
{
closed = 1;
nodes = (
(299,771,o),
(310,767,o),
(334,759,cs),
(364,748,o),
(380,744,o),
(401,744,cs),
(441,744,o),
(463,766,o),
(463,831,c),
(410,831,l),
(410,814,o),
(405,808,o),
(394,808,cs),
(386,808,o),
(374,812,o),
(350,820,cs),
(321,831,o),
(305,835,o),
(283,835,cs),
(244,835,o),
(222,813,o),
(222,748,c),
(274,748,l),
(274,765,o),
(280,771,o),
(290,771,cs)
);
},
{
closed = 1;
nodes = (
(460,228,l),
(535,0,l),
(654,0,l),
(413,690,l),
(271,690,l),
(23,0,l),
(140,0,l),
(215,228,l)
);
},
{
closed = 1;
nodes = (
(244,315,l),
(340,599,l),
(431,315,l)
);
}
);
width = 656;
}
);
note = Atilde;
unicode = 195;
},
{
glyphname = AE;
layers = (
{
hints = (
{
horizontal = 1;
place = (0, 88);
place = (0, 88);
type = Stem;
},
{
horizontal = 1;
place = (302, 87);
place = (302, 87);
type = Stem;
},
{
horizontal = 1;
place = (603, 87);
place = (603, 87);
type = Stem;
},
{
place = (442.5, 104.5);
place = (442.5, 104.5);
type = Stem;
},
{
horizontal = 1;
place = (235, 88);
place = (235, 88);
type = Stem;
}
);
layerId = m01;
shapes = (
{
closed = 1;
nodes = (
(902,88,l),
(555,88,l),
(539,302,l),
(864,302,l),
(864,389,l),
(533,389,l),
(517,603,l),
(892,603,l),
(892,690,l),
(352,690,l),
(-37,0,l),
(81,0,l),
(208,235,l),
(434,235,l),
(451,0,l),
(902,0,l)
);
},
{
closed = 1;
nodes = (
(428,323,l),
(256,323,l),
(407,602,l)
);
}
);
width = 930;
}
);
note = AE;
unicode = 198;
},
{
glyphname = B;
layers = (
{
hints = (
{
horizontal = 1;
place = (0, 88);
place = (0, 88);
type = Stem;
},
{
horizontal = 1;
place = (314, 85);
place = (314, 85);
type = Stem;
},
{
horizontal = 1;
place = (603, 87);
place = (603, 87);
type = Stem;
},
{
place = (95, 110);
place = (95, 110);
type = Stem;
},
{
place = (489, 116);
place = (489, 116);
type = Stem;
},
{
place = (464, 116);
place = (464, 116);
type = Stem;
}
);
layerId = m01;
shapes = (
{
closed = 1;
nodes = (
(538,393,o),
(580,438,o),
(580,516,cs),
(580,612,o),
(518,671,o),
(408,686,cs),
(374,690,o),
(352,690,o),
(318,690,cs),
(95,690,l),
(95,0,l),
(330,0,ls),
(365,0,o),
(388,0,o),
(422,5,cs),
(513,18,o),
(605,78,o),
(605,204,cs),
(605,296,o),
(557,347,o),
(467,369,c)
);
},
{
closed = 1;
nodes = (
(205,603,l),
(318,603,ls),
(334,603,o),
(354,602,o),
(370,600,cs),
(425,594,o),
(464,565,o),
(464,504,cs),
(464,448,o),
(438,413,o),
(377,403,cs),
(359,400,o),
(342,399,o),
(325,399,cs),
(205,399,l)
);
},
{
closed = 1;
nodes = (
(375,88,o),
(357,88,o),
(341,88,cs),
(205,88,l),
(205,314,l),
(335,314,ls),
(351,314,o),
(367,314,o),
(387,311,cs),
(446,304,o),
(489,274,o),
(489,199,cs),
(489,132,o),
(445,94,o),
(388,89,cs)
);
}
);
width = 641;
}
);
note = B;
unicode = 66;
},
{
glyphname = C;
kernLeft = C;
kernRight = C;
layers = (
{
hints = (
{
horizontal = 1;
place = (-14, 84);
place = (-14, 84);
type = Stem;
},
{
horizontal = 1;
place = (620, 84);
place = (620, 84);
type = Stem;
},
{
place = (49, 119);
place = (49, 119);
type = Stem;
}
);
layerId = m01;
shapes = (
{
closed = 1;
nodes = (
(185,704,o),
(49,559,o),
(49,342,cs),
(49,132,o),
(170,-14,o),
(367,-14,cs),
(547,-14,o),
(648,89,o),
(662,224,cs),
(663,234,l),
(554,234,l),
(552,224,ls),
(533,131,o),
(476,70,o),
(372,70,cs),
(250,70,o),
(168,176,o),
(168,347,cs),
(168,510,o),
(249,620,o),
(377,620,cs),
(481,620,o),
(538,561,o),
(557,468,cs),
(559,458,l),
(668,458,l),
(667,468,ls),
(653,604,o),
(559,704,o),
(379,704,cs)
);
}
);
width = 708;
}
);
note = C;
unicode = 67;
},
{
glyphname = Cacute;
kernLeft = C;
kernRight = C;
layers = (
{
hints = (
{
horizontal = 1;
place = (-14, 84);
place = (-14, 84);
type = Stem;
},
{
horizontal = 1;
place = (620, 84);
place = (620, 84);
type = Stem;
},
{
horizontal = 1;
place = (736, 102);
place = (736, 102);
type = Stem;
},
{
place = (49, 119);
place = (49, 119);
type = Stem;
}
);
layerId = m01;
shapes = (
{
closed = 1;
nodes = (
(399,736,l),
(496,838,l),
(396,838,l),
(333,736,l)
);
},
{
closed = 1;
nodes = (
(185,704,o),
(49,559,o),
(49,342,cs),
(49,132,o),
(170,-14,o),
(367,-14,cs),
(547,-14,o),
(648,89,o),
(662,224,cs),
(663,234,l),
(554,234,l),
(552,224,ls),
(533,131,o),
(476,70,o),
(372,70,cs),
(250,70,o),
(168,176,o),
(168,347,cs),
(168,510,o),
(249,620,o),
(377,620,cs),
(481,620,o),
(538,561,o),
(557,468,cs),
(559,458,l),
(668,458,l),
(667,468,ls),
(653,604,o),
(559,704,o),
(379,704,cs)
);
}
);
width = 708;
}
);
note = Cacute;
unicode = 262;
},
{
glyphname = Ccaron;
kernLeft = C;
kernRight = C;
layers = (
{
hints = (
{
horizontal = 1;
place = (-14, 84);
place = (-14, 84);
type = Stem;
},
{
horizontal = 1;
place = (620, 84);
place = (620, 84);
type = Stem;
},
{
horizontal = 1;
place = (736, 102);
place = (736, 102);
type = Stem;
},
{
place = (49, 119);
place = (49, 119);
type = Stem;
}
);
layerId = m01;
shapes = (
{
closed = 1;
nodes = (
(331,736,l),
(412,736,l),
(478,838,l),
(403,838,l),
(372,777,l),
(341,838,l),
(265,838,l)
);
},
{
closed = 1;
nodes = (
(554,234,l),
(552,224,ls),
(533,131,o),
(476,70,o),
(372,70,cs),
(250,70,o),
(168,176,o),
(168,347,cs),
(168,510,o),
(249,620,o),
(377,620,cs),
(481,620,o),
(538,561,o),
(557,468,cs),
(559,458,l),
(668,458,l),
(667,468,ls),
(653,604,o),
(559,704,o),
(379,704,cs),
(185,704,o),
(49,559,o),
(49,342,cs),
(49,132,o),
(170,-14,o),
(367,-14,cs),
(547,-14,o),
(648,89,o),
(662,224,cs),
(663,234,l)
);
}
);
width = 708;
}
);
note = Ccaron;
unicode = 268;
},
{
glyphname = Ccedilla;
kernLeft = C;
kernRight = C;
layers = (
{
hints = (
{
horizontal = 1;
place = (-210, 49);
place = (-210, 49);
type = Stem;
},
{
horizontal = 1;
place = (-11, 21);
target = up;
type = BottomGhost;
},
{
horizontal = 1;
place = (620, 84);
place = (620, 84);
type = Stem;
},
{
place = (49, 119);
place = (49, 119);
type = Stem;
},
{
place = (379, 70);
place = (379, 70);
type = Stem;
},
{
horizontal = 1;
place = (-81, 151);
place = (-81, 151);
type = Stem;
}
);
layerId = m01;
shapes = (
{
closed = 1;
nodes = (
(554,234,l),
(552,224,ls),
(533,131,o),
(476,70,o),
(372,70,cs),
(250,70,o),
(168,176,o),
(168,347,cs),
(168,510,o),
(249,620,o),
(377,620,cs),
(481,620,o),
(538,561,o),
(557,468,cs),
(559,458,l),
(668,458,l),
(667,468,ls),
(653,604,o),
(559,704,o),
(379,704,cs),
(185,704,o),
(49,559,o),
(49,342,cs),
(49,149,o),
(151,11,o),
(320,-11,c),
(283,-81,l),
(353,-76,o),
(379,-91,o),
(379,-122,cs),
(379,-146,o),
(359,-161,o),
(317,-161,cs),
(298,-161,o),
(281,-159,o),
(263,-151,c),
(263,-202,l),
(278,-208,o),
(296,-210,o),
(315,-210,cs),
(393,-210,o),
(449,-181,o),
(449,-122,cs),
(449,-76,o),
(420,-48,o),
(365,-41,c),
(379,-14,l),
(551,-9,o),
(648,92,o),
(662,224,cs),
(663,234,l)
);
}
);
width = 708;
}
);
note = Ccedilla;
unicode = 199;
},
{
glyphname = Cdotaccent;
kernLeft = C;
kernRight = C;
layers = (
{
hints = (
{
horizontal = 1;
place = (-14, 84);
place = (-14, 84);
type = Stem;
},
{
horizontal = 1;
place = (620, 84);
place = (620, 84);
type = Stem;
},
{
horizontal = 1;
place = (734, 113);
place = (734, 113);
type = Stem;
},
{
place = (49, 119);
place = (49, 119);
type = Stem;
},
{
place = (313, 116);
place = (313, 116);
type = Stem;
}
);
layerId = m01;
shapes = (
{
closed = 1;
nodes = (
(338,847,o),
(313,823,o),
(313,791,cs),
(313,758,o),
(338,734,o),
(371,734,cs),
(404,734,o),
(429,758,o),
(429,791,cs),
(429,823,o),
(404,847,o),
(371,847,cs)
);
},
{
closed = 1;
nodes = (
(185,704,o),
(49,559,o),
(49,342,cs),
(49,132,o),
(170,-14,o),
(367,-14,cs),
(547,-14,o),
(648,89,o),
(662,224,cs),
(663,234,l),
(554,234,l),
(552,224,ls),
(533,131,o),
(476,70,o),
(372,70,cs),
(250,70,o),
(168,176,o),
(168,347,cs),
(168,510,o),
(249,620,o),
(377,620,cs),
(481,620,o),
(538,561,o),
(557,468,cs),
(559,458,l),
(668,458,l),
(667,468,ls),
(653,604,o),
(559,704,o),
(379,704,cs)
);
}
);
width = 708;
}
);
note = Cdotaccent;
unicode = 266;
},
{
glyphname = D;
kernRight = D;
layers = (
{
hints = (
{
horizontal = 1;
place = (0, 88);
place = (0, 88);
type = Stem;
},
{
horizontal = 1;
place = (603, 87);
place = (603, 87);
type = Stem;
},
{
place = (95, 110);
place = (95, 110);
type = Stem;
},
{
place = (566, 118);
place = (566, 118);
type = Stem;
}
);
layerId = m01;
shapes = (
{
closed = 1;
nodes = (
(371,690,o),
(355,690,o),
(318,690,cs),
(95,690,l),
(95,0,l),
(314,0,ls),
(351,0,o),
(367,0,o),
(402,4,cs),
(562,24,o),
(684,147,o),
(684,353,cs),
(684,562,o),
(566,667,o),
(406,686,cs)
);
},
{
closed = 1;
nodes = (
(361,88,o),
(338,88,o),
(304,88,cs),
(205,88,l),
(205,603,l),
(308,603,ls),
(341,603,o),
(365,602,o),
(387,598,cs),
(497,582,o),
(566,498,o),
(566,353,cs),
(566,200,o),
(494,108,o),
(383,92,cs)
);
}
);
width = 719;
}
);
note = D;
unicode = 68;
},
{
glyphname = Eth;
kernRight = D;
layers = (
{
hints = (
{
horizontal = 1;
place = (0, 88);
place = (0, 88);
type = Stem;
},
{
horizontal = 1;
place = (302, 66);
place = (302, 66);
type = Stem;
},
{
horizontal = 1;
place = (603, 87);
place = (603, 87);
type = Stem;
},
{
place = (92, 109);
place = (92, 109);
type = Stem;
},
{
place = (563, 117);
place = (563, 117);
type = Stem;
}
);
layerId = m01;
shapes = (
{
closed = 1;
nodes = (
(367,690,o),
(351,690,o),
(314,690,cs),
(92,690,l),
(92,368,l),
(33,368,l),
(33,302,l),
(92,302,l),
(92,0,l),
(311,0,ls),
(348,0,o),
(364,0,o),
(399,4,cs),
(559,24,o),
(680,147,o),
(680,353,cs),
(680,562,o),
(562,667,o),
(402,686,cs)
);
},
{
closed = 1;
nodes = (
(358,88,o),
(334,88,o),
(301,88,cs),
(201,88,l),
(201,302,l),
(329,302,l),
(329,368,l),
(201,368,l),
(201,603,l),
(304,603,ls),
(338,603,o),
(361,602,o),
(384,598,cs),
(494,582,o),
(563,498,o),
(563,353,cs),
(563,200,o),
(490,108,o),
(380,92,cs)
);
}
);
width = 716;
}
);
note = Eth;
unicode = 208;
},
{
glyphname = Dcaron;
kernRight = D;
layers = (
{
hints = (
{
horizontal = 1;
place = (0, 88);
place = (0, 88);
type = Stem;
},
{
horizontal = 1;
place = (603, 87);
place = (603, 87);
type = Stem;
},
{
horizontal = 1;
place = (736, 102);
place = (736, 102);
type = Stem;
},
{
place = (95, 110);
place = (95, 110);
type = Stem;
},
{
place = (566, 118);
place = (566, 118);
type = Stem;
}
);
layerId = m01;
shapes = (
{
closed = 1;
nodes = (
(334,736,l),
(415,736,l),
(481,838,l),
(406,838,l),
(375,777,l),
(344,838,l),
(268,838,l)
);
},
{
closed = 1;
nodes = (
(371,690,o),
(355,690,o),
(318,690,cs),
(95,690,l),
(95,0,l),
(314,0,ls),
(351,0,o),
(367,0,o),
(402,4,cs),
(562,24,o),
(684,147,o),
(684,353,cs),
(684,562,o),
(566,667,o),
(406,686,cs)
);
},
{
closed = 1;
nodes = (
(361,88,o),
(338,88,o),
(304,88,cs),
(205,88,l),
(205,603,l),
(308,603,ls),
(341,603,o),
(365,602,o),
(387,598,cs),
(497,582,o),
(566,498,o),
(566,353,cs),
(566,200,o),
(494,108,o),
(383,92,cs)
);
}
);
width = 719;
}
);
note = Dcaron;
unicode = 270;
},
{
glyphname = Dcroat;
kernRight = D;
layers = (
{
hints = (
{
horizontal = 1;
place = (0, 88);
place = (0, 88);
type = Stem;
},
{
horizontal = 1;
place = (302, 66);
place = (302, 66);
type = Stem;
},
{
horizontal = 1;
place = (603, 87);
place = (603, 87);
type = Stem;
},
{
place = (92, 109);
place = (92, 109);
type = Stem;
},
{
place = (563, 117);
place = (563, 117);
type = Stem;
}
);
layerId = m01;
shapes = (
{
closed = 1;
nodes = (
(367,690,o),
(351,690,o),
(314,690,cs),
(92,690,l),
(92,368,l),
(33,368,l),
(33,302,l),
(92,302,l),
(92,0,l),
(311,0,ls),
(348,0,o),
(364,0,o),
(399,4,cs),
(559,24,o),
(680,147,o),
(680,353,cs),
(680,562,o),
(562,667,o),
(402,686,cs)
);
},
{
closed = 1;
nodes = (
(358,88,o),
(334,88,o),
(301,88,cs),
(201,88,l),
(201,302,l),
(329,302,l),
(329,368,l),
(201,368,l),
(201,603,l),
(304,603,ls),
(338,603,o),
(361,602,o),
(384,598,cs),
(494,582,o),
(563,498,o),
(563,353,cs),
(563,200,o),
(490,108,o),
(380,92,cs)
);
}
);
width = 716;
}
);
note = Dcroat;
unicode = 272;
},
{
glyphname = E;
layers = (
{
hints = (
{
horizontal = 1;
place = (0, 88);
place = (0, 88);
type = Stem;
},
{
horizontal = 1;
place = (302, 87);
place = (302, 87);
type = Stem;
},
{
horizontal = 1;
place = (603, 87);
place = (603, 87);
type = Stem;
},
{
place = (95, 110);
place = (95, 110);
type = Stem;
}
);
layerId = m01;
shapes = (
{
closed = 1;
nodes = (
(572,88,l),
(205,88,l),
(205,302,l),
(534,302,l),
(534,389,l),
(205,389,l),
(205,603,l),
(562,603,l),
(562,690,l),
(95,690,l),
(95,0,l),
(572,0,l)
);
}
);
width = 600;
}
);
note = E;
unicode = 69;
},
{
glyphname = Eacute;
layers = (
{
hints = (
{
horizontal = 1;
place = (0, 88);
place = (0, 88);
type = Stem;
},
{
horizontal = 1;
place = (302, 87);
place = (302, 87);
type = Stem;
},
{
horizontal = 1;
place = (603, 87);
place = (603, 87);
type = Stem;
},
{
horizontal = 1;
place = (736, 102);
place = (736, 102);
type = Stem;
},
{
place = (95, 110);
place = (95, 110);
type = Stem;
}
);
layerId = m01;
shapes = (
{
closed = 1;
nodes = (
(365,736,l),
(462,838,l),
(362,838,l),
(299,736,l)
);
},
{
closed = 1;
nodes = (
(572,88,l),
(205,88,l),
(205,302,l),
(534,302,l),
(534,389,l),
(205,389,l),
(205,603,l),
(562,603,l),
(562,690,l),
(95,690,l),
(95,0,l),
(572,0,l)
);
}
);
width = 600;
}
);
note = Eacute;
unicode = 201;
},
{
glyphname = Ecaron;
layers = (
{
hints = (
{
horizontal = 1;
place = (0, 88);
place = (0, 88);
type = Stem;
},
{
horizontal = 1;
place = (302, 87);
place = (302, 87);
type = Stem;
},
{
horizontal = 1;
place = (603, 87);
place = (603, 87);
type = Stem;
},
{
horizontal = 1;
place = (736, 102);
place = (736, 102);
type = Stem;
},
{
place = (95, 110);
place = (95, 110);
type = Stem;
}
);
layerId = m01;
shapes = (
{
closed = 1;
nodes = (
(297,736,l),
(378,736,l),
(444,838,l),
(369,838,l),
(338,777,l),
(307,838,l),
(231,838,l)
);
},
{
closed = 1;
nodes = (
(572,88,l),
(205,88,l),
(205,302,l),
(534,302,l),
(534,389,l),
(205,389,l),
(205,603,l),
(562,603,l),
(562,690,l),
(95,690,l),
(95,0,l),
(572,0,l)
);
}
);
width = 600;
}
);
note = Ecaron;
unicode = 282;
},
{
glyphname = Ecircumflex;
layers = (
{
hints = (
{
horizontal = 1;
place = (0, 88);
place = (0, 88);
type = Stem;
},
{
horizontal = 1;
place = (302, 87);
place = (302, 87);
type = Stem;
},
{
horizontal = 1;
place = (603, 87);
place = (603, 87);
type = Stem;
},
{
horizontal = 1;
place = (736, 102);
place = (736, 102);
type = Stem;
},
{
place = (95, 110);
place = (95, 110);
type = Stem;
}
);
layerId = m01;
shapes = (
{
closed = 1;
nodes = (
(306,736,l),
(337,796,l),
(368,736,l),
(444,736,l),
(378,838,l),
(297,838,l),
(231,736,l)
);
},
{
closed = 1;
nodes = (
(572,88,l),
(205,88,l),
(205,302,l),
(534,302,l),
(534,389,l),
(205,389,l),
(205,603,l),
(562,603,l),
(562,690,l),
(95,690,l),
(95,0,l),
(572,0,l)
);
}
);
width = 600;
}
);
note = Ecircumflex;
unicode = 202;
},
{
glyphname = Edieresis;
lastChange = "2022-11-25 15:29:31 +0000";
layers = (
{
hints = (
{
horizontal = 1;
place = (0, 88);
place = (0, 88);
type = Stem;
},
{
horizontal = 1;
place = (302, 87);
place = (302, 87);
type = Stem;
},
{
horizontal = 1;
place = (603, 87);
place = (603, 87);
type = Stem;
},
{
horizontal = 1;
place = (733, 106);
place = (733, 106);
type = Stem;
},
{
place = (206, 107);
place = (206, 107);
type = Stem;
},
{
place = (361, 107);
place = (361, 107);
type = Stem;
},
{
place = (95, 110);
place = (95, 110);
type = Stem;
}
);
layerId = m01;
shapes = (
{
closed = 1;
nodes = (
(572,88,l),
(205,88,l),
(205,302,l),
(534,302,l),
(534,389,l),
(205,389,l),
(205,603,l),
(562,603,l),
(562,690,l),
(95,690,l),
(95,0,l),
(572,0,l)
);
},
{
closed = 1;
nodes = (
(204,730,l),
(312,730,l),
(312,836,l),
(204,836,l)
);
},
{
closed = 1;
nodes = (
(359,730,l),
(467,730,l),
(467,836,l),
(359,836,l)
);
}
);
width = 600;
}
);
note = Edieresis;
unicode = 203;
},
{
glyphname = Edotaccent;
layers = (
{
hints = (
{
horizontal = 1;
place = (0, 88);
place = (0, 88);
type = Stem;
},
{
horizontal = 1;
place = (302, 87);
place = (302, 87);
type = Stem;
},
{
horizontal = 1;
place = (603, 87);
place = (603, 87);
type = Stem;
},
{
horizontal = 1;
place = (734, 113);
place = (734, 113);
type = Stem;
},
{
place = (95, 110);
place = (95, 110);
type = Stem;
},
{
place = (279, 116);
place = (279, 116);
type = Stem;
}
);
layerId = m01;
shapes = (
{
closed = 1;
nodes = (
(370,734,o),
(395,758,o),
(395,791,cs),
(395,823,o),
(370,847,o),
(337,847,cs),
(304,847,o),
(279,823,o),
(279,791,cs),
(279,758,o),
(304,734,o),
(337,734,cs)
);
},
{
closed = 1;
nodes = (
(572,88,l),
(205,88,l),
(205,302,l),
(534,302,l),
(534,389,l),
(205,389,l),
(205,603,l),
(562,603,l),
(562,690,l),
(95,690,l),
(95,0,l),
(572,0,l)
);
}
);
width = 600;
}
);
note = Edotaccent;
unicode = 278;
},
{
glyphname = Egrave;
layers = (
{
hints = (
{
horizontal = 1;
place = (0, 88);
place = (0, 88);
type = Stem;
},
{
horizontal = 1;
place = (302, 87);
place = (302, 87);
type = Stem;
},
{
horizontal = 1;
place = (603, 87);
place = (603, 87);
type = Stem;
},
{
horizontal = 1;
place = (736, 102);
place = (736, 102);
type = Stem;
},
{
place = (95, 110);
place = (95, 110);
type = Stem;
}
);
layerId = m01;
shapes = (
{
closed = 1;
nodes = (
(310,736,l),
(376,736,l),
(313,838,l),
(213,838,l)
);
},
{
closed = 1;
nodes = (
(572,88,l),
(205,88,l),
(205,302,l),
(534,302,l),
(534,389,l),
(205,389,l),
(205,603,l),
(562,603,l),
(562,690,l),
(95,690,l),
(95,0,l),
(572,0,l)
);
}
);
width = 600;
}
);
note = Egrave;
unicode = 200;
},
{
glyphname = Emacron;
layers = (
{
hints = (
{
horizontal = 1;
place = (0, 88);
place = (0, 88);
type = Stem;
},
{
horizontal = 1;
place = (302, 87);
place = (302, 87);
type = Stem;
},
{
horizontal = 1;
place = (603, 87);
place = (603, 87);
type = Stem;
},
{
horizontal = 1;
place = (758, 63);
place = (758, 63);
type = Stem;
},
{
place = (210, 255);
place = (210, 255);
type = Stem;
},
{
place = (95, 110);
place = (95, 110);
type = Stem;
}
);
layerId = m01;
shapes = (
{
closed = 1;
nodes = (
(465,758,l),
(465,821,l),
(210,821,l),
(210,758,l)
);
},
{
closed = 1;
nodes = (
(572,88,l),
(205,88,l),
(205,302,l),
(534,302,l),
(534,389,l),
(205,389,l),
(205,603,l),
(562,603,l),
(562,690,l),
(95,690,l),
(95,0,l),
(572,0,l)
);
}
);
width = 600;
}
);
note = Emacron;
unicode = 274;
},
{
glyphname = Eogonek;
layers = (
{
hints = (
{
horizontal = 1;
place = (-223, 66);
place = (-223, 66);
type = Stem;
},
{
horizontal = 1;
place = (0, 88);
place = (0, 88);
type = Stem;
},
{
horizontal = 1;
place = (302, 87);
place = (302, 87);
type = Stem;
},
{
horizontal = 1;
place = (603, 87);
place = (603, 87);
type = Stem;
},
{
place = (95, 110);
place = (95, 110);
type = Stem;
},
{
place = (376, 102);
place = (376, 102);
type = Stem;
},
{
place = (462, 110);
place = (462, 110);
type = Stem;
}
);
layerId = m01;
shapes = (
{
closed = 1;
nodes = (
(495,-157,o),
(478,-144,o),
(478,-107,cs),
(478,-50,o),
(516,-7,o),
(560,0,c),
(572,0,l),
(572,88,l),
(205,88,l),
(205,302,l),
(534,302,l),
(534,389,l),
(205,389,l),
(205,603,l),
(562,603,l),
(562,690,l),
(95,690,l),
(95,0,l),
(462,0,l),
(415,-27,o),
(376,-75,o),
(376,-138,cs),
(376,-201,o),
(416,-223,o),
(474,-223,cs),
(515,-223,o),
(549,-212,o),
(575,-192,c),
(575,-137,l),
(557,-151,o),
(540,-157,o),
(522,-157,cs)
);
}
);
width = 600;
}
);
note = Eogonek;
unicode = 280;
},
{
glyphname = F;
kernRight = F;
layers = (
{
hints = (
{
horizontal = 1;
place = (0, 21);
target = up;
type = BottomGhost;
},
{
horizontal = 1;
place = (302, 87);
place = (302, 87);
type = Stem;
},
{
horizontal = 1;
place = (603, 87);
place = (603, 87);
type = Stem;
},
{
place = (95, 110);
place = (95, 110);
type = Stem;
}
);
layerId = m01;
shapes = (
{
closed = 1;
nodes = (
(205,603,l),
(562,603,l),
(562,690,l),
(95,690,l),
(95,0,l),
(205,0,l),
(205,302,l),
(524,302,l),
(524,389,l),
(205,389,l)
);
}
);
width = 579;
}
);
note = F;
unicode = 70;
},
{
glyphname = G;
kernLeft = C;
kernRight = G;
layers = (
{
hints = (
{
horizontal = 1;
place = (-14, 84);
place = (-14, 84);
type = Stem;
},
{
horizontal = 1;
place = (254, 88);
place = (254, 88);
type = Stem;
},
{
horizontal = 1;
place = (620, 84);
place = (620, 84);
type = Stem;
},
{
place = (49, 119);
place = (49, 119);
type = Stem;
},
{
place = (569, 94);
place = (569, 94);
type = Stem;
},
{
place = (560, 110);
place = (560, 110);
type = Stem;
},
{
horizontal = 1;
place = (0, 21);
target = up;
type = BottomGhost;
}
);
layerId = m01;
shapes = (
{
closed = 1;
nodes = (
(402,342,l),
(402,254,l),
(556,254,l),
(550,143,o),
(476,70,o),
(374,70,cs),
(251,70,o),
(168,176,o),
(168,347,cs),
(168,510,o),
(251,620,o),
(379,620,cs),
(484,620,o),
(541,561,o),
(559,468,cs),
(561,458,l),
(671,458,l),
(670,468,ls),
(656,604,o),
(562,704,o),
(381,704,cs),
(187,704,o),
(49,559,o),
(49,342,cs),
(49,132,o),
(165,-14,o),
(362,-14,cs),
(439,-14,o),
(497,8,o),
(536,50,c),
(567,117,l),
(571,0,l),
(663,0,l),
(663,342,l)
);
}
);
width = 722;
}
);
note = G;
unicode = 71;
},
{
glyphname = Gbreve;
kernLeft = C;
kernRight = G;
layers = (
{
hints = (
{
horizontal = 1;
place = (-14, 84);
place = (-14, 84);
type = Stem;
},
{
horizontal = 1;
place = (254, 88);
place = (254, 88);
type = Stem;
},
{
horizontal = 1;
place = (620, 84);
place = (620, 84);
type = Stem;
},
{
horizontal = 1;
place = (724, 62);
place = (724, 62);
type = Stem;
},
{
place = (49, 119);
place = (49, 119);
type = Stem;
},
{
place = (259, 62);
place = (259, 62);
type = Stem;
},
{
place = (417, 62);
place = (417, 62);
type = Stem;
},
{
place = (569, 94);
place = (569, 94);
type = Stem;
},
{
place = (560, 110);
place = (560, 110);
type = Stem;
},
{
horizontal = 1;
place = (0, 21);
target = up;
type = BottomGhost;
}
);
layerId = m01;
shapes = (
{
closed = 1;
nodes = (
(440,724,o),
(479,761,o),
(479,838,c),
(417,838,l),
(416,803,o),
(398,786,o),
(369,786,cs),
(340,786,o),
(322,803,o),
(321,838,c),
(259,838,l),
(259,761,o),
(297,724,o),
(369,724,cs)
);
},
{
closed = 1;
nodes = (
(402,342,l),
(402,254,l),
(556,254,l),
(550,143,o),
(476,70,o),
(374,70,cs),
(251,70,o),
(168,176,o),
(168,347,cs),
(168,510,o),
(251,620,o),
(379,620,cs),
(484,620,o),
(541,561,o),
(559,468,cs),
(561,458,l),
(671,458,l),
(670,468,ls),
(656,604,o),
(562,704,o),
(381,704,cs),
(187,704,o),
(49,559,o),
(49,342,cs),
(49,132,o),
(165,-14,o),
(362,-14,cs),
(439,-14,o),
(497,8,o),
(536,50,c),
(567,117,l),
(571,0,l),
(663,0,l),
(663,342,l)
);
}
);
width = 722;
}
);
note = Gbreve;
unicode = 286;
},
{
glyphname = Gcommaaccent;
kernLeft = C;
kernRight = G;
layers = (
{
hints = (
{
horizontal = 1;
place = (-14, 84);
place = (-14, 84);
type = Stem;
},
{
horizontal = 1;
place = (254, 88);
place = (254, 88);
type = Stem;
},
{
horizontal = 1;
place = (620, 84);
place = (620, 84);
type = Stem;
},
{
place = (49, 119);
place = (49, 119);
type = Stem;
},
{
place = (569, 94);
place = (569, 94);
type = Stem;
},
{
place = (560, 110);
place = (560, 110);
type = Stem;
},
{
horizontal = 1;
place = (-200, 152);
place = (-200, 152);
type = Stem;
},
{
horizontal = 1;
place = (0, 21);
target = up;
type = BottomGhost;
}
);
layerId = m01;
shapes = (
{
closed = 1;
nodes = (
(402,342,l),
(402,254,l),
(556,254,l),
(550,143,o),
(476,70,o),
(374,70,cs),
(251,70,o),
(168,176,o),
(168,347,cs),
(168,510,o),
(251,620,o),
(379,620,cs),
(484,620,o),
(541,561,o),
(559,468,cs),
(561,458,l),
(671,458,l),
(670,468,ls),
(656,604,o),
(562,704,o),
(381,704,cs),
(187,704,o),
(49,559,o),
(49,342,cs),
(49,132,o),
(165,-14,o),
(362,-14,cs),
(439,-14,o),
(497,8,o),
(536,50,c),
(567,117,l),
(571,0,l),
(663,0,l),
(663,342,l)
);
},
{
closed = 1;
nodes = (
(341,-48,l),
(281,-200,l),
(351,-200,l),
(422,-59,l),
(422,-48,l)
);
}
);
width = 722;
}
);
note = Gcommaaccent;
unicode = 290;
},
{
glyphname = Gdotaccent;
kernLeft = C;
kernRight = G;
layers = (
{
hints = (
{
horizontal = 1;
place = (-14, 84);
place = (-14, 84);
type = Stem;
},
{
horizontal = 1;
place = (254, 88);
place = (254, 88);
type = Stem;
},
{
horizontal = 1;
place = (620, 84);
place = (620, 84);
type = Stem;
},
{
horizontal = 1;
place = (734, 113);
place = (734, 113);
type = Stem;
},
{
place = (49, 119);
place = (49, 119);
type = Stem;
},
{
place = (311, 116);
place = (311, 116);
type = Stem;
},
{
place = (569, 94);
place = (569, 94);
type = Stem;
},
{
place = (560, 110);
place = (560, 110);
type = Stem;
},
{
horizontal = 1;
place = (0, 21);
target = up;
type = BottomGhost;
}
);
layerId = m01;
shapes = (
{
closed = 1;
nodes = (
(402,734,o),
(427,758,o),
(427,791,cs),
(427,823,o),
(402,847,o),
(369,847,cs),
(336,847,o),
(311,823,o),
(311,791,cs),
(311,758,o),
(336,734,o),
(369,734,cs)
);
},
{
closed = 1;
nodes = (
(402,342,l),
(402,254,l),
(556,254,l),
(550,143,o),
(476,70,o),
(374,70,cs),
(251,70,o),
(168,176,o),
(168,347,cs),
(168,510,o),
(251,620,o),
(379,620,cs),
(484,620,o),
(541,561,o),
(559,468,cs),
(561,458,l),
(671,458,l),
(670,468,ls),
(656,604,o),
(562,704,o),
(381,704,cs),
(187,704,o),
(49,559,o),
(49,342,cs),
(49,132,o),
(165,-14,o),
(362,-14,cs),
(439,-14,o),
(497,8,o),
(536,50,c),
(567,117,l),
(571,0,l),
(663,0,l),
(663,342,l)
);
}
);
width = 722;
}
);
note = Gdotaccent;
unicode = 288;
},
{
glyphname = H;
layers = (
{
hints = (
{
horizontal = 1;
place = (0, 21);
target = up;
type = BottomGhost;
},
{
horizontal = 1;
place = (294, 89);
place = (294, 89);
type = Stem;
},
{
horizontal = 1;
place = (690, -20);
target = down;
type = TopGhost;
},
{
place = (95, 110);
place = (95, 110);
type = Stem;
},
{
place = (559, 109);
place = (559, 109);
type = Stem;
}
);
layerId = m01;
shapes = (
{
closed = 1;
nodes = (
(668,690,l),
(559,690,l),
(559,383,l),
(205,383,l),
(205,690,l),
(95,690,l),
(95,0,l),
(205,0,l),
(205,294,l),
(559,294,l),
(559,0,l),
(668,0,l)
);
}
);
width = 740;
}
);
note = H;
unicode = 72;
},
{
glyphname = Hbar;
layers = (
{
hints = (
{
horizontal = 1;
place = (0, 21);
target = up;
type = BottomGhost;
},
{
horizontal = 1;
place = (294, 89);
place = (294, 89);
type = Stem;
},
{
horizontal = 1;
place = (497, 66);
place = (497, 66);
type = Stem;
},
{
place = (95, 110);
place = (95, 110);
type = Stem;
},
{
place = (559, 109);
place = (559, 109);
type = Stem;
},
{
horizontal = 1;
place = (497, 193);
place = (497, 193);
type = Stem;
}
);
layerId = m01;
shapes = (
{
closed = 1;
nodes = (
(708,497,l),
(708,563,l),
(668,563,l),
(668,690,l),
(559,690,l),
(559,563,l),
(205,563,l),
(205,690,l),
(95,690,l),
(95,563,l),
(55,563,l),
(55,497,l),
(95,497,l),
(95,0,l),
(205,0,l),
(205,294,l),
(559,294,l),
(559,0,l),
(668,0,l),
(668,497,l)
);
},
{
closed = 1;
nodes = (
(559,497,l),
(559,383,l),
(205,383,l),
(205,497,l)
);
}
);
width = 740;
}
);
note = Hbar;
unicode = 294;
},
{
glyphname = I;
layers = (
{
hints = (
{
horizontal = 1;
place = (0, 21);
target = up;
type = BottomGhost;
},
{
horizontal = 1;
place = (690, -20);
target = down;
type = TopGhost;
},
{
place = (95, 110);
place = (95, 110);
type = Stem;
}
);
layerId = m01;
shapes = (
{
closed = 1;
nodes = (
(205,0,l),
(205,690,l),
(95,690,l),
(95,0,l)
);
}
);
width = 277;
}
);
note = I;
unicode = 73;
},
{
glyphname = IJ;
kernRight = IJ;
layers = (
{
hints = (
{
horizontal = 1;
place = (0, 21);
target = up;
type = BottomGhost;
},
{
horizontal = 1;
place = (690, -20);
target = down;
type = TopGhost;
},
{
place = (95, 110);
place = (95, 110);
type = Stem;
},
{
place = (680, 110);
place = (680, 110);
type = Stem;
},
{
horizontal = 1;
place = (-14, 84);
place = (-14, 84);
type = Stem;
},
{
place = (330.5, 110.5);
place = (330.5, 110.5);
type = Stem;
}
);
layerId = m01;
shapes = (
{
closed = 1;
nodes = (
(205,0,l),
(205,690,l),
(95,690,l),
(95,0,l)
);
},
{
closed = 1;
nodes = (
(790,690,l),
(680,690,l),
(680,268,ls),
(680,236,o),
(680,212,o),
(679,191,cs),
(673,116,o),
(637,70,o),
(564,70,cs),
(490,70,o),
(447,110,o),
(442,204,cs),
(440,242,l),
(330,242,l),
(331,204,ls),
(335,70,o),
(411,-14,o),
(554,-14,cs),
(708,-14,o),
(780,67,o),
(787,184,cs),
(790,223,o),
(790,245,o),
(790,273,cs)
);
}
);
width = 844;
}
);
note = IJ;
unicode = 306;
},
{
glyphname = Iacute;
layers = (
{
hints = (
{
horizontal = 1;
place = (0, 21);
target = up;
type = BottomGhost;
},
{
horizontal = 1;
place = (690, -20);
target = down;
type = TopGhost;
},
{
horizontal = 1;
place = (736, 102);
place = (736, 102);
type = Stem;
},
{
place = (95, 110);
place = (95, 110);
type = Stem;
}
);
layerId = m01;
shapes = (
{
closed = 1;
nodes = (
(178,736,l),
(275,838,l),
(175,838,l),
(112,736,l)
);
},
{
closed = 1;
nodes = (
(205,0,l),
(205,690,l),
(95,690,l),
(95,0,l)
);
}
);
width = 277;
}
);
note = Iacute;
unicode = 205;
},
{
glyphname = Icircumflex;
layers = (
{
hints = (
{
horizontal = 1;
place = (0, 21);
target = up;
type = BottomGhost;
},
{
horizontal = 1;
place = (690, -20);
target = down;
type = TopGhost;
},
{
horizontal = 1;
place = (736, 102);
place = (736, 102);
type = Stem;
},
{
place = (95, 110);
place = (95, 110);
type = Stem;
}
);
layerId = m01;
shapes = (
{
closed = 1;
nodes = (
(119,736,l),
(150,796,l),
(181,736,l),
(257,736,l),
(191,838,l),
(110,838,l),
(44,736,l)
);
},
{
closed = 1;
nodes = (
(95,690,l),
(95,0,l),
(205,0,l),
(205,690,l)
);
}
);
width = 277;
}
);
note = Icircumflex;
unicode = 206;
},
{
glyphname = Idieresis;
lastChange = "2022-11-25 15:29:46 +0000";
layers = (
{
hints = (
{
horizontal = 1;
place = (0, 21);
target = up;
type = BottomGhost;
},
{
horizontal = 1;
place = (690, -20);
target = down;
type = TopGhost;
},
{
horizontal = 1;
place = (733, 106);
place = (733, 106);
type = Stem;
},
{
place = (95, 110);
place = (95, 110);
type = Stem;
},
{
place = (19, 107);
place = (19, 107);
type = Stem;
},
{
place = (174, 107);
place = (174, 107);
type = Stem;
}
);
layerId = m01;
shapes = (
{
closed = 1;
nodes = (
(205,0,l),
(205,690,l),
(95,690,l),
(95,0,l)
);
},
{
closed = 1;
nodes = (
(18,733,l),
(126,733,l),
(126,839,l),
(18,839,l)
);
},
{
closed = 1;
nodes = (
(173,733,l),
(281,733,l),
(281,839,l),
(173,839,l)
);
}
);
width = 277;
}
);
note = Idieresis;
unicode = 207;
},
{
glyphname = Idotaccent;
lastChange = "2022-11-25 15:36:37 +0000";
layers = (
{
hints = (
{
horizontal = 1;
place = (0, 21);
target = up;
type = BottomGhost;
},
{
horizontal = 1;
place = (690, -20);
target = down;
type = TopGhost;
},
{
place = (95, 110);
place = (95, 110);
type = Stem;
},
{
horizontal = 1;
place = (589, 127);
place = (589, 127);
type = Stem;
},
{
place = (363, 129);
place = (363, 129);
type = Stem;
}
);
layerId = m01;
shapes = (
{
closed = 1;
nodes = (
(205,0,l),
(205,690,l),
(95,690,l),
(95,0,l)
);
},
{
closed = 1;
nodes = (
(185,734,o),
(210,758,o),
(210,791,cs),
(210,823,o),
(185,847,o),
(152,847,cs),
(119,847,o),
(94,823,o),
(94,791,cs),
(94,758,o),
(119,734,o),
(152,734,cs)
);
}
);
width = 304;
}
);
unicode = 304;
},
{
glyphname = Igrave;
layers = (
{
hints = (
{
horizontal = 1;
place = (0, 21);
target = up;
type = BottomGhost;
},
{
horizontal = 1;
place = (690, -20);
target = down;
type = TopGhost;
},
{
horizontal = 1;
place = (736, 102);
place = (736, 102);
type = Stem;
},
{
place = (95, 110);
place = (95, 110);
type = Stem;
}
);
layerId = m01;
shapes = (
{
closed = 1;
nodes = (
(189,736,l),
(126,838,l),
(26,838,l),
(123,736,l)
);
},
{
closed = 1;
nodes = (
(205,0,l),
(205,690,l),
(95,690,l),
(95,0,l)
);
}
);
width = 277;
}
);
note = Igrave;
unicode = 204;
},
{
glyphname = Imacron;
layers = (
{
hints = (
{
horizontal = 1;
place = (0, 21);
target = up;
type = BottomGhost;
},
{
horizontal = 1;
place = (690, -20);
target = down;
type = TopGhost;
},
{
horizontal = 1;
place = (758, 63);
place = (758, 63);
type = Stem;
},
{
place = (95, 110);
place = (95, 110);
type = Stem;
}
);
layerId = m01;
shapes = (
{
closed = 1;
nodes = (
(278,758,l),
(278,821,l),
(23,821,l),
(23,758,l)
);
},
{
closed = 1;
nodes = (
(205,0,l),
(205,690,l),
(95,690,l),
(95,0,l)
);
}
);
width = 277;
}
);
note = Imacron;
unicode = 298;
},
{
glyphname = Iogonek;
layers = (
{
hints = (
{
horizontal = 1;
place = (-223, 66);
place = (-223, 66);
type = Stem;
},
{
horizontal = 1;
place = (0, 21);
target = up;
type = BottomGhost;
},
{
horizontal = 1;
place = (690, -20);
target = down;
type = TopGhost;
},
{
place = (95, 110);
place = (95, 110);
type = Stem;
},
{
place = (-12, 102);
place = (-12, 102);
type = Stem;
}
);
layerId = m01;
shapes = (
{
closed = 1;
nodes = (
(205,0,l),
(205,690,l),
(95,690,l),
(95,10,l),
(94,10,l),
(39,-13,o),
(-12,-66,o),
(-12,-138,cs),
(-12,-201,o),
(28,-223,o),
(86,-223,cs),
(127,-223,o),
(161,-212,o),
(187,-192,c),
(187,-137,l),
(169,-151,o),
(152,-157,o),
(134,-157,cs),
(107,-157,o),
(90,-144,o),
(90,-107,cs),
(90,-50,o),
(128,-7,o),
(172,0,c)
);
}
);
width = 277;
}
);
note = Iogonek;
unicode = 302;
},
{
glyphname = J;
kernLeft = J;
kernRight = IJ;
layers = (
{
hints = (
{
horizontal = 1;
place = (-14, 84);
place = (-14, 84);
type = Stem;
},
{
horizontal = 1;
place = (690, -20);
target = down;
type = TopGhost;
},
{
place = (53.5, 110.5);
place = (53.5, 110.5);
type = Stem;
},
{
place = (403, 110);
place = (403, 110);
type = Stem;
}
);
layerId = m01;
shapes = (
{
closed = 1;
nodes = (
(513,690,l),
(403,690,l),
(403,268,ls),
(403,236,o),
(403,212,o),
(402,191,cs),
(396,116,o),
(360,70,o),
(287,70,cs),
(213,70,o),
(170,110,o),
(165,204,cs),
(163,242,l),
(53,242,l),
(54,204,ls),
(58,70,o),
(134,-14,o),
(277,-14,cs),
(431,-14,o),
(503,67,o),
(510,184,cs),
(513,223,o),
(513,245,o),
(513,273,cs)
);
}
);
width = 568;
}
);
note = J;
unicode = 74;
},
{
glyphname = K;
kernRight = K;
layers = (
{
hints = (
{
horizontal = 1;
place = (0, 21);
target = up;
type = BottomGhost;
},
{
horizontal = 1;
place = (690, -20);
target = down;
type = TopGhost;
},
{
place = (95, 110);
place = (95, 110);
type = Stem;
}
);
layerId = m01;
shapes = (
{
closed = 1;
nodes = (
(346,356,l),
(656,690,l),
(526,690,l),
(205,339,l),
(205,690,l),
(95,690,l),
(95,0,l),
(205,0,l),
(205,222,l),
(266,288,l),
(493,0,l),
(640,0,l)
);
}
);
width = 643;
}
);
note = K;
unicode = 75;
},
{
glyphname = Kcommaaccent;
kernRight = K;
layers = (
{
hints = (
{
horizontal = 1;
place = (-200, 152);
place = (-200, 152);
type = Stem;
},
{
horizontal = 1;
place = (0, 21);
target = up;
type = BottomGhost;
},
{
horizontal = 1;
place = (690, -20);
target = down;
type = TopGhost;
},
{
place = (95, 110);
place = (95, 110);
type = Stem;
}
);
layerId = m01;
shapes = (
{
closed = 1;
nodes = (
(346,356,l),
(656,690,l),
(526,690,l),
(205,339,l),
(205,690,l),
(95,690,l),
(95,0,l),
(205,0,l),
(205,222,l),
(266,288,l),
(493,0,l),
(640,0,l)
);
},
{
closed = 1;
nodes = (
(313,-48,l),
(253,-200,l),
(323,-200,l),
(394,-59,l),
(394,-48,l)
);
}
);
width = 643;
}
);
note = Kcommaaccent;
unicode = 310;
},
{
glyphname = L;
kernRight = L;
layers = (
{
hints = (
{
horizontal = 1;
place = (0, 91);
place = (0, 91);
type = Stem;
},
{
horizontal = 1;
place = (690, -20);
target = down;
type = TopGhost;
},
{
place = (95, 110);
place = (95, 110);
type = Stem;
}
);
layerId = m01;
shapes = (
{
closed = 1;
nodes = (
(572,91,l),
(205,91,l),
(205,690,l),
(95,690,l),
(95,0,l),
(572,0,l)
);
}
);
width = 588;
}
);
note = L;
unicode = 76;
},
{
glyphname = Lacute;
kernRight = L;
layers = (
{
hints = (
{
horizontal = 1;
place = (0, 91);
place = (0, 91);
type = Stem;
},
{
horizontal = 1;
place = (690, -20);
target = down;
type = TopGhost;
},
{
horizontal = 1;
place = (736, 102);
place = (736, 102);
type = Stem;
},
{
place = (95, 110);
place = (95, 110);
type = Stem;
}
);
layerId = m01;
shapes = (
{
closed = 1;
nodes = (
(178,736,l),
(275,838,l),
(175,838,l),
(112,736,l)
);
},
{
closed = 1;
nodes = (
(572,91,l),
(205,91,l),
(205,690,l),
(95,690,l),
(95,0,l),
(572,0,l)
);
}
);
width = 588;
}
);
note = Lacute;
unicode = 313;
},
{
glyphname = Lcaron;
kernRight = L;
layers = (
{
hints = (
{
horizontal = 1;
place = (0, 91);
place = (0, 91);
type = Stem;
},
{
horizontal = 1;
place = (690, -20);
target = down;
type = TopGhost;
},
{
place = (95, 110);
place = (95, 110);
type = Stem;
}
);
layerId = m01;
shapes = (
{
closed = 1;
nodes = (
(572,91,l),
(205,91,l),
(205,690,l),
(95,690,l),
(95,0,l),
(572,0,l)
);
}
);
width = 588;
}
);
note = Lcaron;
unicode = 317;
},
{
glyphname = Lcommaaccent;
kernRight = L;
layers = (
{
hints = (
{
horizontal = 1;
place = (-200, 152);
place = (-200, 152);
type = Stem;
},
{
horizontal = 1;
place = (0, 91);
place = (0, 91);
type = Stem;
},
{
horizontal = 1;
place = (690, -20);
target = down;
type = TopGhost;
},
{
place = (95, 110);
place = (95, 110);
type = Stem;
}
);
layerId = m01;
shapes = (
{
closed = 1;
nodes = (
(572,91,l),
(205,91,l),
(205,690,l),
(95,690,l),
(95,0,l),
(572,0,l)
);
},
{
closed = 1;
nodes = (
(303,-48,l),
(243,-200,l),
(313,-200,l),
(384,-59,l),
(384,-48,l)
);
}
);
width = 588;
}
);
note = Lcommaaccent;
unicode = 315;
},
{
glyphname = Ldot;
kernRight = L;
layers = (
{
hints = (
{
horizontal = 1;
place = (0, 91);
place = (0, 91);
type = Stem;
},
{
horizontal = 1;
place = (334, 132);
place = (334, 132);
type = Stem;
},
{
horizontal = 1;
place = (690, -20);
target = down;
type = TopGhost;
},
{
place = (95, 110);
place = (95, 110);
type = Stem;
},
{
place = (340, 133);
place = (340, 133);
type = Stem;
}
);
layerId = m01;
shapes = (
{
closed = 1;
nodes = (
(572,91,l),
(205,91,l),
(205,690,l),
(95,690,l),
(95,0,l),
(572,0,l)
);
},
{
closed = 1;
nodes = (
(444,334,o),
(473,363,o),
(473,400,cs),
(473,438,o),
(444,466,o),
(407,466,cs),
(369,466,o),
(340,438,o),
(340,400,cs),
(340,363,o),
(369,334,o),
(407,334,cs)
);
}
);
width = 588;
}
);
note = Ldot;
unicode = 319;
},
{
glyphname = Lslash;
kernRight = L;
layers = (
{
hints = (
{
horizontal = 1;
place = (0, 91);
place = (0, 91);
type = Stem;
},
{
horizontal = 1;
place = (690, -20);
target = down;
type = TopGhost;
},
{
place = (122, 109);
place = (122, 109);
type = Stem;
}
);
layerId = m01;
shapes = (
{
closed = 1;
nodes = (
(598,91,l),
(231,91,l),
(231,350,l),
(347,417,l),
(347,495,l),
(231,428,l),
(231,690,l),
(122,690,l),
(122,365,l),
(17,305,l),
(17,227,l),
(122,287,l),
(122,0,l),
(598,0,l)
);
}
);
width = 615;
}
);
note = Lslash;
unicode = 321;
},
{
glyphname = M;
layers = (
{
hints = (
{
horizontal = 1;
place = (0, 21);
target = up;
type = BottomGhost;
},
{
horizontal = 1;
place = (690, -20);
target = down;
type = TopGhost;
},
{
place = (95, 110);
place = (95, 110);
type = Stem;
},
{
place = (699, 109);
place = (699, 109);
type = Stem;
},
{
horizontal = 1;
place = (0, 98);
place = (0, 98);
type = Stem;
},
{
horizontal = 1;
place = (585, 105);
place = (585, 105);
type = Stem;
}
);
layerId = m01;
shapes = (
{
closed = 1;
nodes = (
(808,690,l),
(636,690,l),
(454,98,l),
(272,690,l),
(95,690,l),
(95,0,l),
(205,0,l),
(205,339,ls),
(205,418,o),
(205,511,o),
(203,585,c),
(222,512,o),
(251,418,o),
(276,341,cs),
(388,0,l),
(515,0,l),
(626,340,ls),
(652,418,o),
(681,513,o),
(701,586,c),
(699,513,o),
(699,418,o),
(699,339,cs),
(699,0,l),
(808,0,l)
);
}
);
width = 880;
}
);
note = M;
unicode = 77;
},
{
glyphname = N;
layers = (
{
hints = (
{
horizontal = 1;
place = (0, 21);
target = up;
type = BottomGhost;
},
{
horizontal = 1;
place = (690, -20);
target = down;
type = TopGhost;
},
{
place = (95, 110);
place = (95, 110);
type = Stem;
},
{
place = (556, 108.5);
place = (556, 108.5);
type = Stem;
},
{
horizontal = 1;
place = (0, 117);
place = (0, 117);
type = Stem;
},
{
horizontal = 1;
place = (569, 121);
place = (569, 121);
type = Stem;
}
);
layerId = m01;
shapes = (
{
closed = 1;
nodes = (
(665,0,l),
(664,690,l),
(556,690,l),
(556,358,ls),
(556,287,o),
(557,195,o),
(559,117,c),
(250,690,l),
(95,690,l),
(95,0,l),
(205,0,l),
(205,330,ls),
(205,401,o),
(204,490,o),
(201,569,c),
(507,0,l)
);
}
);
width = 737;
}
);
note = N;
unicode = 78;
},
{
glyphname = Nacute;
layers = (
{
hints = (
{
horizontal = 1;
place = (0, 21);
target = up;
type = BottomGhost;
},
{
horizontal = 1;
place = (690, -20);
target = down;
type = TopGhost;
},
{
horizontal = 1;
place = (736, 102);
place = (736, 102);
type = Stem;
},
{
place = (95, 110);
place = (95, 110);
type = Stem;
},
{
place = (556, 108.5);
place = (556, 108.5);
type = Stem;
},
{
horizontal = 1;
place = (0, 117);
place = (0, 117);
type = Stem;
},
{
horizontal = 1;
place = (569, 121);
place = (569, 121);
type = Stem;
}
);
layerId = m01;
shapes = (
{
closed = 1;
nodes = (
(407,736,l),
(504,838,l),
(404,838,l),
(341,736,l)
);
},
{
closed = 1;
nodes = (
(665,0,l),
(664,690,l),
(556,690,l),
(556,358,ls),
(556,287,o),
(557,195,o),
(559,117,c),
(250,690,l),
(95,690,l),
(95,0,l),
(205,0,l),
(205,330,ls),
(205,401,o),
(204,490,o),
(201,569,c),
(507,0,l)
);
}
);
width = 737;
}
);
note = Nacute;
unicode = 323;
},
{
glyphname = Ncaron;
layers = (
{
hints = (
{
horizontal = 1;
place = (0, 21);
target = up;
type = BottomGhost;
},
{
horizontal = 1;
place = (690, -20);
target = down;
type = TopGhost;
},
{
horizontal = 1;
place = (736, 102);
place = (736, 102);
type = Stem;
},
{
place = (95, 110);
place = (95, 110);
type = Stem;
},
{
place = (556, 108.5);
place = (556, 108.5);
type = Stem;
},
{
horizontal = 1;
place = (0, 117);
place = (0, 117);
type = Stem;
},
{
horizontal = 1;
place = (569, 121);
place = (569, 121);
type = Stem;
}
);
layerId = m01;
shapes = (
{
closed = 1;
nodes = (
(339,736,l),
(420,736,l),
(486,838,l),
(411,838,l),
(380,777,l),
(349,838,l),
(273,838,l)
);
},
{
closed = 1;
nodes = (
(507,0,l),
(665,0,l),
(664,690,l),
(556,690,l),
(556,358,ls),
(556,287,o),
(557,195,o),
(559,117,c),
(250,690,l),
(95,690,l),
(95,0,l),
(205,0,l),
(205,330,ls),
(205,401,o),
(204,490,o),
(201,569,c)
);
}
);
width = 737;
}
);
note = Ncaron;
unicode = 327;
},
{
glyphname = Ncommaaccent;
layers = (
{
hints = (
{
horizontal = 1;
place = (-200, 152);
place = (-200, 152);
type = Stem;
},
{
horizontal = 1;
place = (0, 21);
target = up;
type = BottomGhost;
},
{
horizontal = 1;
place = (690, -20);
target = down;
type = TopGhost;
},
{
place = (95, 110);
place = (95, 110);
type = Stem;
},
{
place = (556, 108.5);
place = (556, 108.5);
type = Stem;
},
{
horizontal = 1;
place = (0, 117);
place = (0, 117);
type = Stem;
},
{
horizontal = 1;
place = (569, 121);
place = (569, 121);
type = Stem;
}
);
layerId = m01;
shapes = (
{
closed = 1;
nodes = (
(665,0,l),
(664,690,l),
(556,690,l),
(556,358,ls),
(556,287,o),
(557,195,o),
(559,117,c),
(250,690,l),
(95,690,l),
(95,0,l),
(205,0,l),
(205,330,ls),
(205,401,o),
(204,490,o),
(201,569,c),
(507,0,l)
);
},
{
closed = 1;
nodes = (
(431,-59,l),
(431,-48,l),
(350,-48,l),
(290,-200,l),
(360,-200,l)
);
}
);
width = 737;
}
);
note = Ncommaaccent;
unicode = 325;
},
{
glyphname = Eng;
layers = (
{
hints = (
{
horizontal = 1;
place = (-223, 85);
place = (-223, 85);
type = Stem;
},
{
horizontal = 1;
place = (0, 21);
target = up;
type = BottomGhost;
},
{
horizontal = 1;
place = (690, -20);
target = down;
type = TopGhost;
},
{
place = (95, 110);
place = (95, 110);
type = Stem;
},
{
place = (556, 109);
place = (556, 109);
type = Stem;
},
{
horizontal = 1;
place = (563, 127);
place = (563, 127);
type = Stem;
}
);
layerId = m01;
shapes = (
{
closed = 1;
nodes = (
(665,690,l),
(556,690,l),
(556,383,ls),
(556,312,o),
(557,235,o),
(559,157,c),
(250,690,l),
(95,690,l),
(95,0,l),
(205,0,l),
(205,330,ls),
(205,401,o),
(204,484,o),
(201,563,c),
(555,-28,l),
(555,-71,ls),
(555,-113,o),
(538,-136,o),
(483,-138,c),
(483,-223,l),
(593,-223,o),
(655,-194,o),
(664,-106,cs),
(665,-92,o),
(665,-83,o),
(665,-65,cs)
);
}
);
width = 737;
}
);
note = Eng;
unicode = 330;
},
{
glyphname = Ntilde;
layers = (
{
hints = (
{
horizontal = 1;
place = (0, 21);
target = up;
type = BottomGhost;
},
{
horizontal = 1;
place = (690, -20);
target = down;
type = TopGhost;
},
{
horizontal = 1;
place = (748, 87);
place = (748, 87);
type = Stem;
},
{
place = (95, 110);
place = (95, 110);
type = Stem;
},
{
place = (259, 52);
place = (259, 52);
type = Stem;
},
{
place = (556, 108.5);
place = (556, 108.5);
type = Stem;
},
{
horizontal = 1;
place = (744, 87);
place = (744, 87);
type = Stem;
},
{
place = (447, 53);
place = (447, 53);
type = Stem;
},
{
horizontal = 1;
place = (0, 117);
place = (0, 117);
type = Stem;
},
{
horizontal = 1;
place = (569, 121);
place = (569, 121);
type = Stem;
}
);
layerId = m01;
shapes = (
{
closed = 1;
nodes = (
(281,835,o),
(259,813,o),
(259,748,c),
(311,748,l),
(311,765,o),
(317,771,o),
(327,771,cs),
(336,771,o),
(347,767,o),
(371,759,cs),
(401,748,o),
(417,744,o),
(438,744,cs),
(478,744,o),
(500,766,o),
(500,831,c),
(447,831,l),
(447,814,o),
(442,808,o),
(431,808,cs),
(423,808,o),
(411,812,o),
(387,820,cs),
(358,831,o),
(342,835,o),
(320,835,cs)
);
},
{
closed = 1;
nodes = (
(665,0,l),
(664,690,l),
(556,690,l),
(556,358,ls),
(556,287,o),
(557,195,o),
(559,117,c),
(250,690,l),
(95,690,l),
(95,0,l),
(205,0,l),
(205,330,ls),
(205,401,o),
(204,490,o),
(201,569,c),
(507,0,l)
);
}
);
width = 737;
}
);
note = Ntilde;
unicode = 209;
},
{
glyphname = O;
kernLeft = C;
kernRight = D;
layers = (
{
hints = (
{
horizontal = 1;
place = (-14, 84);
place = (-14, 84);
type = Stem;
},
{
horizontal = 1;
place = (620, 84);
place = (620, 84);
type = Stem;
},
{
place = (49, 118);
place = (49, 118);
type = Stem;
},
{
place = (596, 118);
place = (596, 118);
type = Stem;
}
);
layerId = m01;
shapes = (
{
closed = 1;
nodes = (
(170,704,o),
(49,559,o),
(49,345,cs),
(49,132,o),
(170,-14,o),
(382,-14,cs),
(593,-14,o),
(714,132,o),
(714,345,cs),
(714,559,o),
(593,704,o),
(382,704,cs)
);
},
{
closed = 1;
nodes = (
(247,70,o),
(167,174,o),
(167,345,cs),
(167,517,o),
(247,620,o),
(382,620,cs),
(516,620,o),
(596,517,o),
(596,345,cs),
(596,174,o),
(516,70,o),
(382,70,cs)
);
}
);
width = 750;
}
);
note = O;
unicode = 79;
},
{
glyphname = Oacute;
kernLeft = C;
kernRight = D;
layers = (
{
hints = (
{
horizontal = 1;
place = (-14, 84);
place = (-14, 84);
type = Stem;
},
{
horizontal = 1;
place = (620, 84);
place = (620, 84);
type = Stem;
},
{
horizontal = 1;
place = (736, 102);
place = (736, 102);
type = Stem;
},
{
place = (49, 118);
place = (49, 118);
type = Stem;
},
{
place = (596, 118);
place = (596, 118);
type = Stem;
}
);
layerId = m01;
shapes = (
{
closed = 1;
nodes = (
(410,736,l),
(507,838,l),
(407,838,l),
(344,736,l)
);
},
{
closed = 1;
nodes = (
(170,704,o),
(49,559,o),
(49,345,cs),
(49,132,o),
(170,-14,o),
(382,-14,cs),
(593,-14,o),
(714,132,o),
(714,345,cs),
(714,559,o),
(593,704,o),
(382,704,cs)
);
},
{
closed = 1;
nodes = (
(247,70,o),
(167,174,o),
(167,345,cs),
(167,517,o),
(247,620,o),
(382,620,cs),
(516,620,o),
(596,517,o),
(596,345,cs),
(596,174,o),
(516,70,o),
(382,70,cs)
);
}
);
width = 750;
}
);
note = Oacute;
unicode = 211;
},
{
glyphname = Ocircumflex;
kernLeft = C;
kernRight = D;
layers = (
{
hints = (
{
horizontal = 1;
place = (-14, 84);
place = (-14, 84);
type = Stem;
},
{
horizontal = 1;
place = (620, 84);
place = (620, 84);
type = Stem;
},
{
horizontal = 1;
place = (736, 102);
place = (736, 102);
type = Stem;
},
{
place = (49, 118);
place = (49, 118);
type = Stem;
},
{
place = (596, 118);
place = (596, 118);
type = Stem;
}
);
layerId = m01;
shapes = (
{
closed = 1;
nodes = (
(351,736,l),
(382,796,l),
(413,736,l),
(489,736,l),
(423,838,l),
(342,838,l),
(276,736,l)
);
},
{
closed = 1;
nodes = (
(170,704,o),
(49,559,o),
(49,345,cs),
(49,132,o),
(170,-14,o),
(382,-14,cs),
(593,-14,o),
(714,132,o),
(714,345,cs),
(714,559,o),
(593,704,o),
(382,704,cs)
);
},
{
closed = 1;
nodes = (
(247,70,o),
(167,174,o),
(167,345,cs),
(167,517,o),
(247,620,o),
(382,620,cs),
(516,620,o),
(596,517,o),
(596,345,cs),
(596,174,o),
(516,70,o),
(382,70,cs)
);
}
);
width = 750;
}
);
note = Ocircumflex;
unicode = 212;
},
{
glyphname = Odieresis;
kernLeft = C;
kernRight = D;
lastChange = "2022-11-25 15:29:55 +0000";
layers = (
{
hints = (
{
horizontal = 1;
place = (-14, 84);
place = (-14, 84);
type = Stem;
},
{
horizontal = 1;
place = (620, 84);
place = (620, 84);
type = Stem;
},
{
horizontal = 1;
place = (733, 106);
place = (733, 106);
type = Stem;
},
{
place = (49, 118);
place = (49, 118);
type = Stem;
},
{
place = (251, 107);
place = (251, 107);
type = Stem;
},
{
place = (406, 107);
place = (406, 107);
type = Stem;
},
{
place = (596, 118);
place = (596, 118);
type = Stem;
}
);
layerId = m01;
shapes = (
{
closed = 1;
nodes = (
(170,704,o),
(49,559,o),
(49,345,cs),
(49,132,o),
(170,-14,o),
(382,-14,cs),
(593,-14,o),
(714,132,o),
(714,345,cs),
(714,559,o),
(593,704,o),
(382,704,cs)
);
},
{
closed = 1;
nodes = (
(247,70,o),
(167,174,o),
(167,345,cs),
(167,517,o),
(247,620,o),
(382,620,cs),
(516,620,o),
(596,517,o),
(596,345,cs),
(596,174,o),
(516,70,o),
(382,70,cs)
);
},
{
closed = 1;
nodes = (
(254,733,l),
(362,733,l),
(362,839,l),
(254,839,l)
);
},
{
closed = 1;
nodes = (
(409,733,l),
(517,733,l),
(517,839,l),
(409,839,l)
);
}
);
width = 750;
}
);
note = Odieresis;
unicode = 214;
},
{
glyphname = Ograve;
kernLeft = C;
kernRight = D;
layers = (
{
hints = (
{
horizontal = 1;
place = (-14, 84);
place = (-14, 84);
type = Stem;
},
{
horizontal = 1;
place = (620, 84);
place = (620, 84);
type = Stem;
},
{
horizontal = 1;
place = (736, 102);
place = (736, 102);
type = Stem;
},
{
place = (49, 118);
place = (49, 118);
type = Stem;
},
{
place = (596, 118);
place = (596, 118);
type = Stem;
}
);
layerId = m01;
shapes = (
{
closed = 1;
nodes = (
(355,736,l),
(421,736,l),
(358,838,l),
(258,838,l)
);
},
{
closed = 1;
nodes = (
(170,704,o),
(49,559,o),
(49,345,cs),
(49,132,o),
(170,-14,o),
(382,-14,cs),
(593,-14,o),
(714,132,o),
(714,345,cs),
(714,559,o),
(593,704,o),
(382,704,cs)
);
},
{
closed = 1;
nodes = (
(247,70,o),
(167,174,o),
(167,345,cs),
(167,517,o),
(247,620,o),
(382,620,cs),
(516,620,o),
(596,517,o),
(596,345,cs),
(596,174,o),
(516,70,o),
(382,70,cs)
);
}
);
width = 750;
}
);
note = Ograve;
unicode = 210;
},
{
glyphname = Ohungarumlaut;
kernLeft = C;
kernRight = D;
layers = (
{
hints = (
{
horizontal = 1;
place = (-14, 84);
place = (-14, 84);
type = Stem;
},
{
horizontal = 1;
place = (620, 84);
place = (620, 84);
type = Stem;
},
{
horizontal = 1;
place = (736, 102);
place = (736, 102);
type = Stem;
},
{
place = (49, 118);
place = (49, 118);
type = Stem;
},
{
place = (596, 118);
place = (596, 118);
type = Stem;
}
);
layerId = m01;
shapes = (
{
closed = 1;
nodes = (
(326,736,l),
(423,838,l),
(323,838,l),
(260,736,l)
);
},
{
closed = 1;
nodes = (
(392,736,l),
(458,736,l),
(555,838,l),
(455,838,l)
);
},
{
closed = 1;
nodes = (
(170,704,o),
(49,559,o),
(49,345,cs),
(49,132,o),
(170,-14,o),
(382,-14,cs),
(593,-14,o),
(714,132,o),
(714,345,cs),
(714,559,o),
(593,704,o),
(382,704,cs)
);
},
{
closed = 1;
nodes = (
(247,70,o),
(167,174,o),
(167,345,cs),
(167,517,o),
(247,620,o),
(382,620,cs),
(516,620,o),
(596,517,o),
(596,345,cs),
(596,174,o),
(516,70,o),
(382,70,cs)
);
}
);
width = 750;
}
);
note = Ohungarumlaut;
unicode = 336;
},
{
glyphname = Omacron;
kernLeft = C;
kernRight = D;
layers = (
{
hints = (
{
horizontal = 1;
place = (-14, 84);
place = (-14, 84);
type = Stem;
},
{
horizontal = 1;
place = (620, 84);
place = (620, 84);
type = Stem;
},
{
horizontal = 1;
place = (758, 63);
place = (758, 63);
type = Stem;
},
{
place = (49, 118);
place = (49, 118);
type = Stem;
},
{
place = (255, 255);
place = (255, 255);
type = Stem;
},
{
place = (596, 118);
place = (596, 118);
type = Stem;
}
);
layerId = m01;
shapes = (
{
closed = 1;
nodes = (
(510,758,l),
(510,821,l),
(255,821,l),
(255,758,l)
);
},
{
closed = 1;
nodes = (
(170,704,o),
(49,559,o),
(49,345,cs),
(49,132,o),
(170,-14,o),
(382,-14,cs),
(593,-14,o),
(714,132,o),
(714,345,cs),
(714,559,o),
(593,704,o),
(382,704,cs)
);
},
{
closed = 1;
nodes = (
(247,70,o),
(167,174,o),
(167,345,cs),
(167,517,o),
(247,620,o),
(382,620,cs),
(516,620,o),
(596,517,o),
(596,345,cs),
(596,174,o),
(516,70,o),
(382,70,cs)
);
}
);
width = 750;
}
);
note = Omacron;
unicode = 332;
},
{
glyphname = Oslash;
kernLeft = C;
kernRight = D;
layers = (
{
hints = (
{
horizontal = 1;
place = (-14, 84);
place = (-14, 84);
type = Stem;
},
{
horizontal = 1;
place = (620, 84);
place = (620, 84);
type = Stem;
},
{
place = (52, 118);
place = (52, 118);
type = Stem;
},
{
place = (600, 118);
place = (600, 118);
type = Stem;
}
);
layerId = m01;
shapes = (
{
closed = 1;
nodes = (
(725,637,l),
(677,685,l),
(614,622,l),
(558,674,o),
(481,704,o),
(385,704,cs),
(174,704,o),
(52,559,o),
(52,345,cs),
(52,257,o),
(73,180,o),
(112,120,c),
(45,53,l),
(93,5,l),
(156,68,l),
(212,16,o),
(290,-14,o),
(385,-14,cs),
(596,-14,o),
(718,132,o),
(718,345,cs),
(718,434,o),
(697,510,o),
(658,570,c)
);
},
{
closed = 1;
nodes = (
(170,517,o),
(250,620,o),
(385,620,cs),
(451,620,o),
(504,595,o),
(541,549,c),
(194,202,l),
(178,242,o),
(170,290,o),
(170,345,cs)
);
},
{
closed = 1;
nodes = (
(600,174,o),
(520,70,o),
(385,70,cs),
(319,70,o),
(266,95,o),
(229,141,c),
(576,488,l),
(592,448,o),
(600,400,o),
(600,345,cs)
);
}
);
width = 756;
}
);
note = Oslash;
unicode = 216;
},
{
glyphname = Otilde;
kernLeft = C;
kernRight = D;
layers = (
{
hints = (
{
horizontal = 1;
place = (-14, 84);
place = (-14, 84);
type = Stem;
},
{
horizontal = 1;
place = (620, 84);
place = (620, 84);
type = Stem;
},
{
horizontal = 1;
place = (748, 87);
place = (748, 87);
type = Stem;
},
{
place = (49, 118);
place = (49, 118);
type = Stem;
},
{
place = (262, 52);
place = (262, 52);
type = Stem;
},
{
place = (596, 118);
place = (596, 118);
type = Stem;
},
{
horizontal = 1;
place = (744, 87);
place = (744, 87);
type = Stem;
},
{
place = (450, 53);
place = (450, 53);
type = Stem;
}
);
layerId = m01;
shapes = (
{
closed = 1;
nodes = (
(339,771,o),
(350,767,o),
(374,759,cs),
(404,748,o),
(420,744,o),
(441,744,cs),
(481,744,o),
(503,766,o),
(503,831,c),
(450,831,l),
(450,814,o),
(445,808,o),
(434,808,cs),
(426,808,o),
(414,812,o),
(390,820,cs),
(361,831,o),
(345,835,o),
(323,835,cs),
(284,835,o),
(262,813,o),
(262,748,c),
(314,748,l),
(314,765,o),
(320,771,o),
(330,771,cs)
);
},
{
closed = 1;
nodes = (
(170,704,o),
(49,559,o),
(49,345,cs),
(49,132,o),
(170,-14,o),
(382,-14,cs),
(593,-14,o),
(714,132,o),
(714,345,cs),
(714,559,o),
(593,704,o),
(382,704,cs)
);
},
{
closed = 1;
nodes = (
(247,70,o),
(167,174,o),
(167,345,cs),
(167,517,o),
(247,620,o),
(382,620,cs),
(516,620,o),
(596,517,o),
(596,345,cs),
(596,174,o),
(516,70,o),
(382,70,cs)
);
}
);
width = 750;
}
);
note = Otilde;
unicode = 213;
},
{
glyphname = OE;
kernLeft = C;
layers = (
{
hints = (
{
horizontal = 1;
place = (0, 88);
place = (0, 88);
type = Stem;
},
{
horizontal = 1;
place = (302, 87);
place = (302, 87);
type = Stem;
},
{
horizontal = 1;
place = (603, 87);
place = (603, 87);
type = Stem;
},
{
place = (49, 118);
place = (49, 118);
type = Stem;
},
{
place = (596, 110);
place = (596, 110);
type = Stem;
},
{
horizontal = 1;
place = (-14, 84);
place = (-14, 84);
type = Stem;
},
{
horizontal = 1;
place = (620, 84);
place = (620, 84);
type = Stem;
}
);
layerId = m01;
shapes = (
{
closed = 1;
nodes = (
(1073,88,l),
(706,88,l),
(706,302,l),
(1035,302,l),
(1035,389,l),
(706,389,l),
(706,603,l),
(1063,603,l),
(1063,690,l),
(596,690,l),
(596,559,l),
(568,628,l),
(516,684,o),
(462,704,o),
(364,704,cs),
(170,704,o),
(49,551,o),
(49,345,cs),
(49,140,o),
(170,-14,o),
(364,-14,cs),
(453,-14,o),
(516,6,o),
(568,60,c),
(596,129,l),
(596,0,l),
(1073,0,l)
);
},
{
closed = 1;
nodes = (
(247,70,o),
(167,180,o),
(167,345,cs),
(167,512,o),
(247,620,o),
(382,620,cs),
(516,620,o),
(596,512,o),
(596,345,cs),
(596,180,o),
(516,70,o),
(382,70,cs)
);
}
);
width = 1101;
}
);
note = OE;
unicode = 338;
},
{
glyphname = P;
kernRight = P;
layers = (
{
hints = (
{
horizontal = 1;
place = (0, 21);
target = up;
type = BottomGhost;
},
{
horizontal = 1;
place = (272, 89);
place = (272, 89);
type = Stem;
},
{
horizontal = 1;
place = (601, 89);
place = (601, 89);
type = Stem;
},
{
place = (95, 110);
place = (95, 110);
type = Stem;
},
{
place = (481, 116);
place = (481, 116);
type = Stem;
}
);
layerId = m01;
shapes = (
{
closed = 1;
nodes = (
(383,690,o),
(358,690,o),
(321,690,cs),
(95,690,l),
(95,0,l),
(205,0,l),
(205,272,l),
(321,272,ls),
(358,272,o),
(383,272,o),
(415,276,cs),
(515,289,o),
(597,359,o),
(597,481,cs),
(597,603,o),
(523,672,o),
(415,686,cs)
);
},
{
closed = 1;
nodes = (
(376,362,o),
(352,361,o),
(324,361,cs),
(205,361,l),
(205,601,l),
(324,601,ls),
(352,601,o),
(376,600,o),
(394,597,cs),
(442,588,o),
(481,554,o),
(481,481,cs),
(481,408,o),
(442,374,o),
(394,365,cs)
);
}
);
width = 610;
}
);
note = P;
unicode = 80;
},
{
glyphname = Thorn;
layers = (
{
hints = (
{
horizontal = 1;
place = (0, 21);
target = up;
type = BottomGhost;
},
{
horizontal = 1;
place = (202, 89);
place = (202, 89);
type = Stem;
},
{
horizontal = 1;
place = (513, 89);
place = (513, 89);
type = Stem;
},
{
place = (95, 110);
place = (95, 110);
type = Stem;
},
{
place = (481, 116);
place = (481, 116);
type = Stem;
},
{
horizontal = 1;
place = (513, 177);
place = (513, 177);
type = Stem;
}
);
layerId = m01;
shapes = (
{
closed = 1;
nodes = (
(389,602,o),
(364,602,o),
(327,602,cs),
(205,602,l),
(205,690,l),
(95,690,l),
(95,0,l),
(205,0,l),
(205,202,l),
(327,202,ls),
(364,202,o),
(389,202,o),
(421,206,cs),
(521,219,o),
(597,285,o),
(597,403,cs),
(597,521,o),
(521,585,o),
(421,598,cs)
);
},
{
closed = 1;
nodes = (
(374,292,o),
(350,291,o),
(322,291,cs),
(205,291,l),
(205,513,l),
(322,513,ls),
(350,513,o),
(374,512,o),
(392,509,cs),
(440,500,o),
(481,470,o),
(481,402,cs),
(481,333,o),
(440,304,o),
(392,295,cs)
);
}
);
width = 636;
}
);
note = Thorn;
unicode = 222;
},
{
glyphname = Q;
kernLeft = C;
layers = (
{
hints = (
{
horizontal = 1;
place = (-14, 84);
place = (-14, 84);
type = Stem;
},
{
horizontal = 1;
place = (620, 84);
place = (620, 84);
type = Stem;
},
{
place = (49, 118);
place = (49, 118);
type = Stem;
},
{
place = (596, 118);
place = (596, 118);
type = Stem;
},
{
horizontal = 1;
place = (2, 68);
place = (2, 68);
type = Stem;
}
);
layerId = m01;
shapes = (
{
closed = 1;
nodes = (
(673,144,o),
(714,238,o),
(714,345,cs),
(714,559,o),
(593,704,o),
(382,704,cs),
(170,704,o),
(49,559,o),
(49,345,cs),
(49,132,o),
(170,-14,o),
(382,-14,cs),
(408,-14,o),
(431,-12,o),
(453,-7,cs),
(481,-1,o),
(498,2,o),
(526,2,cs),
(564,2,o),
(595,-7,o),
(662,-51,c),
(721,22,l),
(679,57,o),
(640,79,o),
(595,87,c)
);
},
{
closed = 1;
nodes = (
(167,517,o),
(247,620,o),
(382,620,cs),
(516,620,o),
(596,517,o),
(596,345,cs),
(596,174,o),
(516,70,o),
(382,70,cs),
(247,70,o),
(167,174,o),
(167,345,cs)
);
}
);
width = 748;
}
);
note = Q;
unicode = 81;
},
{
glyphname = R;
layers = (
{
hints = (
{
horizontal = 1;
place = (0, 21);
target = up;
type = BottomGhost;
},
{
horizontal = 1;
place = (288, 85);
place = (288, 85);
type = Stem;
},
{
horizontal = 1;
place = (603, 87);
place = (603, 87);
type = Stem;
},
{
place = (95, 110);
place = (95, 110);
type = Stem;
},
{
place = (487, 116);
place = (487, 116);
type = Stem;
}
);
layerId = m01;
shapes = (
{
closed = 1;
nodes = (
(563,250,o),
(537,310,o),
(475,337,c),
(548,359,o),
(603,412,o),
(603,502,cs),
(603,620,o),
(528,673,o),
(428,686,cs),
(395,690,o),
(370,690,o),
(333,690,cs),
(95,690,l),
(95,0,l),
(205,0,l),
(205,288,l),
(312,288,ls),
(329,288,o),
(346,288,o),
(363,287,cs),
(426,283,o),
(453,237,o),
(462,164,cs),
(470,88,o),
(479,45,o),
(497,0,c),
(618,0,l),
(590,38,o),
(578,91,o),
(570,178,cs)
);
},
{
closed = 1;
nodes = (
(205,373,l),
(205,603,l),
(327,603,ls),
(355,603,o),
(373,602,o),
(391,599,cs),
(450,591,o),
(487,561,o),
(487,488,cs),
(487,415,o),
(442,381,o),
(382,375,cs),
(365,373,o),
(348,373,o),
(320,373,cs)
);
}
);
width = 635;
}
);
note = R;
unicode = 82;
},
{
glyphname = Racute;
layers = (
{
hints = (
{
horizontal = 1;
place = (0, 21);
target = up;
type = BottomGhost;
},
{
horizontal = 1;
place = (288, 85);
place = (288, 85);
type = Stem;
},
{
horizontal = 1;
place = (603, 87);
place = (603, 87);
type = Stem;
},
{
horizontal = 1;
place = (736, 102);
place = (736, 102);
type = Stem;
},
{
place = (95, 110);
place = (95, 110);
type = Stem;
},
{
place = (487, 116);
place = (487, 116);
type = Stem;
}
);
layerId = m01;
shapes = (
{
closed = 1;
nodes = (
(360,736,l),
(457,838,l),
(357,838,l),
(294,736,l)
);
},
{
closed = 1;
nodes = (
(563,250,o),
(537,310,o),
(475,337,c),
(548,359,o),
(603,412,o),
(603,502,cs),
(603,620,o),
(528,673,o),
(428,686,cs),
(395,690,o),
(370,690,o),
(333,690,cs),
(95,690,l),
(95,0,l),
(205,0,l),
(205,288,l),
(312,288,ls),
(329,288,o),
(346,288,o),
(363,287,cs),
(426,283,o),
(453,237,o),
(462,164,cs),
(470,88,o),
(479,45,o),
(497,0,c),
(618,0,l),
(590,38,o),
(578,91,o),
(570,178,cs)
);
},
{
closed = 1;
nodes = (
(205,373,l),
(205,603,l),
(327,603,ls),
(355,603,o),
(373,602,o),
(391,599,cs),
(450,591,o),
(487,561,o),
(487,488,cs),
(487,415,o),
(442,381,o),
(382,375,cs),
(365,373,o),
(348,373,o),
(320,373,cs)
);
}
);
width = 635;
}
);
note = Racute;
unicode = 340;
},
{
glyphname = Rcaron;
layers = (
{
hints = (
{
horizontal = 1;
place = (0, 21);
target = up;
type = BottomGhost;
},
{
horizontal = 1;
place = (288, 85);
place = (288, 85);
type = Stem;
},
{
horizontal = 1;
place = (603, 87);
place = (603, 87);
type = Stem;
},
{
horizontal = 1;
place = (736, 102);
place = (736, 102);
type = Stem;
},
{
place = (95, 110);
place = (95, 110);
type = Stem;
},
{
place = (487, 116);
place = (487, 116);
type = Stem;
}
);
layerId = m01;
shapes = (
{
closed = 1;
nodes = (
(292,736,l),
(373,736,l),
(439,838,l),
(364,838,l),
(333,777,l),
(302,838,l),
(226,838,l)
);
},
{
closed = 1;
nodes = (
(563,250,o),
(537,310,o),
(475,337,c),
(548,359,o),
(603,412,o),
(603,502,cs),
(603,620,o),
(528,673,o),
(428,686,cs),
(395,690,o),
(370,690,o),
(333,690,cs),
(95,690,l),
(95,0,l),
(205,0,l),
(205,288,l),
(312,288,ls),
(329,288,o),
(346,288,o),
(363,287,cs),
(426,283,o),
(453,237,o),
(462,164,cs),
(470,88,o),
(479,45,o),
(497,0,c),
(618,0,l),
(590,38,o),
(578,91,o),
(570,178,cs)
);
},
{
closed = 1;
nodes = (
(205,373,l),
(205,603,l),
(327,603,ls),
(355,603,o),
(373,602,o),
(391,599,cs),
(450,591,o),
(487,561,o),
(487,488,cs),
(487,415,o),
(442,381,o),
(382,375,cs),
(365,373,o),
(348,373,o),
(320,373,cs)
);
}
);
width = 635;
}
);
note = Rcaron;
unicode = 344;
},
{
glyphname = Rcommaaccent;
layers = (
{
hints = (
{
horizontal = 1;
place = (-200, 152);
place = (-200, 152);
type = Stem;
},
{
horizontal = 1;
place = (0, 21);
target = up;
type = BottomGhost;
},
{
horizontal = 1;
place = (288, 85);
place = (288, 85);
type = Stem;
},
{
horizontal = 1;
place = (603, 87);
place = (603, 87);
type = Stem;
},
{
place = (95, 110);
place = (95, 110);
type = Stem;
},
{
place = (487, 116);
place = (487, 116);
type = Stem;
}
);
layerId = m01;
shapes = (
{
closed = 1;
nodes = (
(563,250,o),
(537,310,o),
(475,337,c),
(548,359,o),
(603,412,o),
(603,502,cs),
(603,620,o),
(528,673,o),
(428,686,cs),
(395,690,o),
(370,690,o),
(333,690,cs),
(95,690,l),
(95,0,l),
(205,0,l),
(205,288,l),
(312,288,ls),
(329,288,o),
(346,288,o),
(363,287,cs),
(426,283,o),
(453,237,o),
(462,164,cs),
(470,88,o),
(479,45,o),
(497,0,c),
(618,0,l),
(590,38,o),
(578,91,o),
(570,178,cs)
);
},
{
closed = 1;
nodes = (
(205,373,l),
(205,603,l),
(327,603,ls),
(355,603,o),
(373,602,o),
(391,599,cs),
(450,591,o),
(487,561,o),
(487,488,cs),
(487,415,o),
(442,381,o),
(382,375,cs),
(365,373,o),
(348,373,o),
(320,373,cs)
);
},
{
closed = 1;
nodes = (
(297,-48,l),
(237,-200,l),
(307,-200,l),
(378,-59,l),
(378,-48,l)
);
}
);
width = 635;
}
);
note = Rcommaaccent;
unicode = 342;
},
{
glyphname = S;
kernLeft = S;
kernRight = S;
layers = (
{
hints = (
{
horizontal = 1;
place = (-14, 84);
place = (-14, 84);
type = Stem;
},
{
horizontal = 1;
place = (620, 84);
place = (620, 84);
type = Stem;
},
{
place = (78, 116);
place = (78, 116);
type = Stem;
},
{
place = (450, 116);
place = (450, 116);
type = Stem;
}
);
layerId = m01;
shapes = (
{
closed = 1;
nodes = (
(187,704,o),
(78,629,o),
(78,507,cs),
(78,387,o),
(165,338,o),
(296,307,cs),
(408,281,o),
(450,244,o),
(450,172,cs),
(450,109,o),
(393,70,o),
(321,70,cs),
(240,70,o),
(180,115,o),
(162,200,c),
(48,200,l),
(62,61,o),
(163,-14,o),
(321,-14,cs),
(455,-14,o),
(566,62,o),
(566,187,cs),
(566,302,o),
(494,367,o),
(342,402,cs),
(235,427,o),
(194,458,o),
(194,525,cs),
(194,590,o),
(245,620,o),
(310,620,cs),
(390,620,o),
(436,573,o),
(444,494,c),
(558,494,l),
(544,614,o),
(469,704,o),
(316,704,cs)
);
}
);
width = 595;
}
);
note = S;
unicode = 83;
},
{
glyphname = Sacute;
kernLeft = S;
kernRight = S;
layers = (
{
hints = (
{
horizontal = 1;
place = (-14, 84);
place = (-14, 84);
type = Stem;
},
{
horizontal = 1;
place = (620, 84);
place = (620, 84);
type = Stem;
},
{
horizontal = 1;
place = (736, 102);
place = (736, 102);
type = Stem;
},
{
place = (78, 116);
place = (78, 116);
type = Stem;
},
{
place = (450, 116);
place = (450, 116);
type = Stem;
}
);
layerId = m01;
shapes = (
{
closed = 1;
nodes = (
(338,736,l),
(435,838,l),
(335,838,l),
(272,736,l)
);
},
{
closed = 1;
nodes = (
(187,704,o),
(78,629,o),
(78,507,cs),
(78,387,o),
(165,338,o),
(296,307,cs),
(408,281,o),
(450,244,o),
(450,172,cs),
(450,109,o),
(393,70,o),
(321,70,cs),
(240,70,o),
(180,115,o),
(162,200,c),
(48,200,l),
(62,61,o),
(163,-14,o),
(321,-14,cs),
(455,-14,o),
(566,62,o),
(566,187,cs),
(566,302,o),
(494,367,o),
(342,402,cs),
(235,427,o),
(194,458,o),
(194,525,cs),
(194,590,o),
(245,620,o),
(310,620,cs),
(390,620,o),
(436,573,o),
(444,494,c),
(558,494,l),
(544,614,o),
(469,704,o),
(316,704,cs)
);
}
);
width = 595;
}
);
note = Sacute;
unicode = 346;
},
{
glyphname = Scaron;
kernLeft = S;
kernRight = S;
layers = (
{
hints = (
{
horizontal = 1;
place = (-14, 84);
place = (-14, 84);
type = Stem;
},
{
horizontal = 1;
place = (620, 84);
place = (620, 84);
type = Stem;
},
{
horizontal = 1;
place = (736, 102);
place = (736, 102);
type = Stem;
},
{
place = (78, 116);
place = (78, 116);
type = Stem;
},
{
place = (450, 116);
place = (450, 116);
type = Stem;
}
);
layerId = m01;
shapes = (
{
closed = 1;
nodes = (
(270,736,l),
(351,736,l),
(417,838,l),
(342,838,l),
(311,777,l),
(280,838,l),
(204,838,l)
);
},
{
closed = 1;
nodes = (
(235,427,o),
(194,458,o),
(194,525,cs),
(194,590,o),
(245,620,o),
(310,620,cs),
(390,620,o),
(436,573,o),
(444,494,c),
(558,494,l),
(544,614,o),
(469,704,o),
(316,704,cs),
(187,704,o),
(78,629,o),
(78,507,cs),
(78,387,o),
(165,338,o),
(296,307,cs),
(408,281,o),
(450,244,o),
(450,172,cs),
(450,109,o),
(393,70,o),
(321,70,cs),
(240,70,o),
(180,115,o),
(162,200,c),
(48,200,l),
(62,61,o),
(163,-14,o),
(321,-14,cs),
(455,-14,o),
(566,62,o),
(566,187,cs),
(566,302,o),
(494,367,o),
(342,402,cs)
);
}
);
width = 595;
}
);
note = Scaron;
unicode = 352;
},
{
glyphname = Scedilla;
kernLeft = S;
kernRight = S;
layers = (
{
hints = (
{
horizontal = 1;
place = (-210, 49);
place = (-210, 49);
type = Stem;
},
{
horizontal = 1;
place = (-11, 21);
target = up;
type = BottomGhost;
},
{
horizontal = 1;
place = (620, 84);
place = (620, 84);
type = Stem;
},
{
place = (78, 116);
place = (78, 116);
type = Stem;
},
{
place = (331, 70);
place = (331, 70);
type = Stem;
},
{
place = (450, 116);
place = (450, 116);
type = Stem;
},
{
horizontal = 1;
place = (-81, 151);
place = (-81, 151);
type = Stem;
}
);
layerId = m01;
shapes = (
{
closed = 1;
nodes = (
(566,302,o),
(494,367,o),
(342,402,cs),
(235,427,o),
(194,458,o),
(194,525,cs),
(194,590,o),
(245,620,o),
(310,620,cs),
(390,620,o),
(436,573,o),
(444,494,c),
(558,494,l),
(544,614,o),
(469,704,o),
(316,704,cs),
(187,704,o),
(78,629,o),
(78,507,cs),
(78,387,o),
(165,338,o),
(296,307,cs),
(408,281,o),
(450,244,o),
(450,172,cs),
(450,109,o),
(393,70,o),
(321,70,cs),
(240,70,o),
(180,115,o),
(162,200,c),
(48,200,l),
(60,76,o),
(142,3,o),
(271,-11,c),
(235,-81,l),
(305,-76,o),
(331,-91,o),
(331,-122,cs),
(331,-146,o),
(311,-161,o),
(269,-161,cs),
(250,-161,o),
(233,-159,o),
(215,-151,c),
(215,-202,l),
(230,-208,o),
(248,-210,o),
(267,-210,cs),
(345,-210,o),
(401,-181,o),
(401,-122,cs),
(401,-76,o),
(372,-48,o),
(317,-41,c),
(331,-14,l),
(460,-10,o),
(566,65,o),
(566,187,cs)
);
}
);
width = 595;
}
);
note = Scedilla;
unicode = 350;
},
{
glyphname = Scommaaccent;
kernLeft = S;
kernRight = S;
layers = (
{
hints = (
{
horizontal = 1;
place = (-200, 152);
place = (-200, 152);
type = Stem;
},
{
horizontal = 1;
place = (-14, 84);
place = (-14, 84);
type = Stem;
},
{
horizontal = 1;
place = (620, 84);
place = (620, 84);
type = Stem;
},
{
place = (78, 116);
place = (78, 116);
type = Stem;
},
{
place = (450, 116);
place = (450, 116);
type = Stem;
}
);
layerId = m01;
shapes = (
{
closed = 1;
nodes = (
(187,704,o),
(78,629,o),
(78,507,cs),
(78,387,o),
(165,338,o),
(296,307,cs),
(408,281,o),
(450,244,o),
(450,172,cs),
(450,109,o),
(393,70,o),
(321,70,cs),
(240,70,o),
(180,115,o),
(162,200,c),
(48,200,l),
(62,61,o),
(163,-14,o),
(321,-14,cs),
(455,-14,o),
(566,62,o),
(566,187,cs),
(566,302,o),
(494,367,o),
(342,402,cs),
(235,427,o),
(194,458,o),
(194,525,cs),
(194,590,o),
(245,620,o),
(310,620,cs),
(390,620,o),
(436,573,o),
(444,494,c),
(558,494,l),
(544,614,o),
(469,704,o),
(316,704,cs)
);
},
{
closed = 1;
nodes = (
(358,-59,l),
(358,-48,l),
(277,-48,l),
(217,-200,l),
(287,-200,l)
);
}
);
width = 595;
}
);
note = Scommaaccent;
unicode = 536;
},
{
glyphname = T;
kernLeft = T;
kernRight = T;
layers = (
{
hints = (
{
horizontal = 1;
place = (0, 21);
target = up;
type = BottomGhost;
},
{
horizontal = 1;
place = (603, 87);
place = (603, 87);
type = Stem;
},
{
place = (270, 109);
place = (270, 109);
type = Stem;
}
);
layerId = m01;
shapes = (
{
closed = 1;
nodes = (
(620,603,l),
(620,690,l),
(29,690,l),
(29,603,l),
(270,603,l),
(270,0,l),
(379,0,l),
(379,603,l)
);
}
);
width = 617;
}
);
note = T;
unicode = 84;
},
{
glyphname = Tbar;
kernLeft = T;
kernRight = T;
layers = (
{
hints = (
{
horizontal = 1;
place = (0, 21);
target = up;
type = BottomGhost;
},
{
horizontal = 1;
place = (302, 66);
place = (302, 66);
type = Stem;
},
{
horizontal = 1;
place = (603, 87);
place = (603, 87);
type = Stem;
},
{
place = (270, 109);
place = (270, 109);
type = Stem;
}
);
layerId = m01;
shapes = (
{
closed = 1;
nodes = (
(379,603,l),
(620,603,l),
(620,690,l),
(29,690,l),
(29,603,l),
(270,603,l),
(270,368,l),
(163,368,l),
(163,302,l),
(270,302,l),
(270,0,l),
(379,0,l),
(379,302,l),
(486,302,l),
(486,368,l),
(379,368,l)
);
}
);
width = 617;
}
);
note = Tbar;
unicode = 358;
},
{
glyphname = Tcaron;
kernLeft = T;
kernRight = T;
layers = (
{
hints = (
{
horizontal = 1;
place = (0, 21);
target = up;
type = BottomGhost;
},
{
horizontal = 1;
place = (603, 87);
place = (603, 87);
type = Stem;
},
{
horizontal = 1;
place = (736, 102);
place = (736, 102);
type = Stem;
},
{
place = (270, 109);
place = (270, 109);
type = Stem;
}
);
layerId = m01;
shapes = (
{
closed = 1;
nodes = (
(284,736,l),
(365,736,l),
(431,838,l),
(356,838,l),
(325,777,l),
(294,838,l),
(218,838,l)
);
},
{
closed = 1;
nodes = (
(620,603,l),
(620,690,l),
(29,690,l),
(29,603,l),
(270,603,l),
(270,0,l),
(379,0,l),
(379,603,l)
);
}
);
width = 617;
}
);
note = Tcaron;
unicode = 356;
},
{
glyphname = Tcedilla;
kernLeft = T;
kernRight = T;
layers = (
{
hints = (
{
horizontal = 1;
place = (-210, 49);
place = (-210, 49);
type = Stem;
},
{
horizontal = 1;
place = (0, 21);
target = up;
type = BottomGhost;
},
{
horizontal = 1;
place = (603, 87);
place = (603, 87);
type = Stem;
},
{
place = (270, 109);
place = (270, 109);
type = Stem;
},
{
place = (349, 70);
place = (349, 70);
type = Stem;
}
);
layerId = m01;
shapes = (
{
closed = 1;
nodes = (
(356,0,l),
(379,0,l),
(379,603,l),
(620,603,l),
(620,690,l),
(29,690,l),
(29,603,l),
(270,603,l),
(270,0,l),
(295,0,l),
(253,-81,l),
(323,-76,o),
(349,-91,o),
(349,-122,cs),
(349,-146,o),
(329,-161,o),
(287,-161,cs),
(268,-161,o),
(251,-159,o),
(233,-151,c),
(233,-202,l),
(248,-208,o),
(266,-210,o),
(285,-210,cs),
(363,-210,o),
(419,-181,o),
(419,-122,cs),
(419,-76,o),
(390,-48,o),
(335,-41,c)
);
}
);
width = 617;
}
);
note = Tcedilla;
unicode = 354;
},
{
glyphname = uni021A;
kernLeft = T;
kernRight = T;
layers = (
{
hints = (
{
horizontal = 1;
place = (-200, 152);
place = (-200, 152);
type = Stem;
},
{
horizontal = 1;
place = (0, 21);
target = up;
type = BottomGhost;
},
{
horizontal = 1;
place = (603, 87);
place = (603, 87);
type = Stem;
},
{
place = (270, 109);
place = (270, 109);
type = Stem;
}
);
layerId = m01;
shapes = (
{
closed = 1;
nodes = (
(620,603,l),
(620,690,l),
(29,690,l),
(29,603,l),
(270,603,l),
(270,0,l),
(379,0,l),
(379,603,l)
);
},
{
closed = 1;
nodes = (
(295,-48,l),
(235,-200,l),
(305,-200,l),
(376,-59,l),
(376,-48,l)
);
}
);
width = 617;
}
);
note = uni021A;
unicode = 538;
},
{
glyphname = U;
kernLeft = U;
kernRight = U;
layers = (
{
hints = (
{
horizontal = 1;
place = (-14, 84);
place = (-14, 84);
type = Stem;
},
{
horizontal = 1;
place = (690, -20);
target = down;
type = TopGhost;
},
{
place = (88, 109);
place = (88, 109);
type = Stem;
},
{
place = (520, 109);
place = (520, 109);
type = Stem;
}
);
layerId = m01;
shapes = (
{
closed = 1;
nodes = (
(629,690,l),
(520,690,l),
(520,265,ls),
(520,244,o),
(520,225,o),
(518,209,cs),
(511,126,o),
(458,70,o),
(358,70,cs),
(259,70,o),
(206,126,o),
(199,209,cs),
(197,225,o),
(197,244,o),
(197,265,cs),
(197,690,l),
(88,690,l),
(88,267,ls),
(88,242,o),
(88,222,o),
(90,196,cs),
(99,81,o),
(178,-14,o),
(358,-14,cs),
(538,-14,o),
(617,81,o),
(627,196,cs),
(629,222,o),
(629,242,o),
(629,267,cs)
);
}
);
width = 691;
}
);
note = U;
unicode = 85;
},
{
glyphname = Uacute;
kernLeft = U;
kernRight = U;
layers = (
{
hints = (
{
horizontal = 1;
place = (-14, 84);
place = (-14, 84);
type = Stem;
},
{
horizontal = 1;
place = (690, -20);
target = down;
type = TopGhost;
},
{
horizontal = 1;
place = (736, 102);
place = (736, 102);
type = Stem;
},
{
place = (88, 109);
place = (88, 109);
type = Stem;
},
{
place = (520, 109);
place = (520, 109);
type = Stem;
}
);
layerId = m01;
shapes = (
{
closed = 1;
nodes = (
(386,736,l),
(483,838,l),
(383,838,l),
(320,736,l)
);
},
{
closed = 1;
nodes = (
(629,690,l),
(520,690,l),
(520,265,ls),
(520,244,o),
(520,225,o),
(518,209,cs),
(511,126,o),
(458,70,o),
(358,70,cs),
(259,70,o),
(206,126,o),
(199,209,cs),
(197,225,o),
(197,244,o),
(197,265,cs),
(197,690,l),
(88,690,l),
(88,267,ls),
(88,242,o),
(88,222,o),
(90,196,cs),
(99,81,o),
(178,-14,o),
(358,-14,cs),
(538,-14,o),
(617,81,o),
(627,196,cs),
(629,222,o),
(629,242,o),
(629,267,cs)
);
}
);
width = 691;
}
);
note = Uacute;
unicode = 218;
},
{
glyphname = Ucircumflex;
kernLeft = U;
kernRight = U;
layers = (
{
hints = (
{
horizontal = 1;
place = (-14, 84);
place = (-14, 84);
type = Stem;
},
{
horizontal = 1;
place = (690, -20);
target = down;
type = TopGhost;
},
{
horizontal = 1;
place = (736, 102);
place = (736, 102);
type = Stem;
},
{
place = (88, 109);
place = (88, 109);
type = Stem;
},
{
place = (520, 109);
place = (520, 109);
type = Stem;
}
);
layerId = m01;
shapes = (
{
closed = 1;
nodes = (
(327,736,l),
(358,796,l),
(389,736,l),
(465,736,l),
(399,838,l),
(318,838,l),
(252,736,l)
);
},
{
closed = 1;
nodes = (
(629,690,l),
(520,690,l),
(520,265,ls),
(520,244,o),
(520,225,o),
(518,209,cs),
(511,126,o),
(458,70,o),
(358,70,cs),
(259,70,o),
(206,126,o),
(199,209,cs),
(197,225,o),
(197,244,o),
(197,265,cs),
(197,690,l),
(88,690,l),
(88,267,ls),
(88,242,o),
(88,222,o),
(90,196,cs),
(99,81,o),
(178,-14,o),
(358,-14,cs),
(538,-14,o),
(617,81,o),
(627,196,cs),
(629,222,o),
(629,242,o),
(629,267,cs)
);
}
);
width = 691;
}
);
note = Ucircumflex;
unicode = 219;
},
{
glyphname = Udieresis;
kernLeft = U;
kernRight = U;
lastChange = "2022-11-25 15:30:03 +0000";
layers = (
{
hints = (
{
horizontal = 1;
place = (-14, 84);
place = (-14, 84);
type = Stem;
},
{
horizontal = 1;
place = (690, -20);
target = down;
type = TopGhost;
},
{
horizontal = 1;
place = (733, 106);
place = (733, 106);
type = Stem;
},
{
place = (88, 109);
place = (88, 109);
type = Stem;
},
{
place = (227, 107);
place = (227, 107);
type = Stem;
},
{
place = (382, 107);
place = (382, 107);
type = Stem;
},
{
place = (520, 109);
place = (520, 109);
type = Stem;
}
);
layerId = m01;
shapes = (
{
closed = 1;
nodes = (
(629,690,l),
(520,690,l),
(520,265,ls),
(520,244,o),
(520,225,o),
(518,209,cs),
(511,126,o),
(458,70,o),
(358,70,cs),
(259,70,o),
(206,126,o),
(199,209,cs),
(197,225,o),
(197,244,o),
(197,265,cs),
(197,690,l),
(88,690,l),
(88,267,ls),
(88,242,o),
(88,222,o),
(90,196,cs),
(99,81,o),
(178,-14,o),
(358,-14,cs),
(538,-14,o),
(617,81,o),
(627,196,cs),
(629,222,o),
(629,242,o),
(629,267,cs)
);
},
{
closed = 1;
nodes = (
(228,733,l),
(336,733,l),
(336,839,l),
(228,839,l)
);
},
{
closed = 1;
nodes = (
(383,733,l),
(491,733,l),
(491,839,l),
(383,839,l)
);
}
);
width = 691;
}
);
note = Udieresis;
unicode = 220;
},
{
glyphname = Ugrave;
kernLeft = U;
kernRight = U;
layers = (
{
hints = (
{
horizontal = 1;
place = (-14, 84);
place = (-14, 84);
type = Stem;
},
{
horizontal = 1;
place = (690, -20);
target = down;
type = TopGhost;
},
{
horizontal = 1;
place = (736, 102);
place = (736, 102);
type = Stem;
},
{
place = (88, 109);
place = (88, 109);
type = Stem;
},
{
place = (520, 109);
place = (520, 109);
type = Stem;
}
);
layerId = m01;
shapes = (
{
closed = 1;
nodes = (
(397,736,l),
(334,838,l),
(234,838,l),
(331,736,l)
);
},
{
closed = 1;
nodes = (
(629,690,l),
(520,690,l),
(520,265,ls),
(520,244,o),
(520,225,o),
(518,209,cs),
(511,126,o),
(458,70,o),
(358,70,cs),
(259,70,o),
(206,126,o),
(199,209,cs),
(197,225,o),
(197,244,o),
(197,265,cs),
(197,690,l),
(88,690,l),
(88,267,ls),
(88,242,o),
(88,222,o),
(90,196,cs),
(99,81,o),
(178,-14,o),
(358,-14,cs),
(538,-14,o),
(617,81,o),
(627,196,cs),
(629,222,o),
(629,242,o),
(629,267,cs)
);
}
);
width = 691;
}
);
note = Ugrave;
unicode = 217;
},
{
glyphname = Uhungarumlaut;
kernLeft = U;
kernRight = U;
layers = (
{
hints = (
{
horizontal = 1;
place = (-14, 84);
place = (-14, 84);
type = Stem;
},
{
horizontal = 1;
place = (690, -20);
target = down;
type = TopGhost;
},
{
horizontal = 1;
place = (736, 102);
place = (736, 102);
type = Stem;
},
{
place = (88, 109);
place = (88, 109);
type = Stem;
},
{
place = (520, 109);
place = (520, 109);
type = Stem;
}
);
layerId = m01;
shapes = (
{
closed = 1;
nodes = (
(302,736,l),
(399,838,l),
(299,838,l),
(236,736,l)
);
},
{
closed = 1;
nodes = (
(434,736,l),
(531,838,l),
(431,838,l),
(368,736,l)
);
},
{
closed = 1;
nodes = (
(629,690,l),
(520,690,l),
(520,265,ls),
(520,244,o),
(520,225,o),
(518,209,cs),
(511,126,o),
(458,70,o),
(358,70,cs),
(259,70,o),
(206,126,o),
(199,209,cs),
(197,225,o),
(197,244,o),
(197,265,cs),
(197,690,l),
(88,690,l),
(88,267,ls),
(88,242,o),
(88,222,o),
(90,196,cs),
(99,81,o),
(178,-14,o),
(358,-14,cs),
(538,-14,o),
(617,81,o),
(627,196,cs),
(629,222,o),
(629,242,o),
(629,267,cs)
);
}
);
width = 691;
}
);
note = Uhungarumlaut;
unicode = 368;
},
{
glyphname = Umacron;
kernLeft = U;
kernRight = U;
layers = (
{
hints = (
{
horizontal = 1;
place = (-14, 84);
place = (-14, 84);
type = Stem;
},
{
horizontal = 1;
place = (690, -20);
target = down;
type = TopGhost;
},
{
horizontal = 1;
place = (758, 63);
place = (758, 63);
type = Stem;
},
{
place = (88, 109);
place = (88, 109);
type = Stem;
},
{
place = (231, 255);
place = (231, 255);
type = Stem;
},
{
place = (520, 109);
place = (520, 109);
type = Stem;
}
);
layerId = m01;
shapes = (
{
closed = 1;
nodes = (
(486,758,l),
(486,821,l),
(231,821,l),
(231,758,l)
);
},
{
closed = 1;
nodes = (
(629,690,l),
(520,690,l),
(520,265,ls),
(520,244,o),
(520,225,o),
(518,209,cs),
(511,126,o),
(458,70,o),
(358,70,cs),
(259,70,o),
(206,126,o),
(199,209,cs),
(197,225,o),
(197,244,o),
(197,265,cs),
(197,690,l),
(88,690,l),
(88,267,ls),
(88,242,o),
(88,222,o),
(90,196,cs),
(99,81,o),
(178,-14,o),
(358,-14,cs),
(538,-14,o),
(617,81,o),
(627,196,cs),
(629,222,o),
(629,242,o),
(629,267,cs)
);
}
);
width = 691;
}
);
note = Umacron;
unicode = 362;
},
{
glyphname = Uogonek;
kernLeft = U;
kernRight = U;
layers = (
{
hints = (
{
horizontal = 1;
place = (-223, 66);
place = (-223, 66);
type = Stem;
},
{
horizontal = 1;
place = (-14, 84);
place = (-14, 84);
type = Stem;
},
{
horizontal = 1;
place = (690, -20);
target = down;
type = TopGhost;
},
{
place = (88, 109);
place = (88, 109);
type = Stem;
},
{
place = (282, 102);
place = (282, 102);
type = Stem;
},
{
place = (520, 109);
place = (520, 109);
type = Stem;
}
);
layerId = m01;
shapes = (
{
closed = 1;
nodes = (
(629,690,l),
(520,690,l),
(520,265,ls),
(520,244,o),
(520,225,o),
(518,209,cs),
(511,126,o),
(458,70,o),
(358,70,cs),
(259,70,o),
(206,126,o),
(199,209,cs),
(197,225,o),
(197,244,o),
(197,265,cs),
(197,690,l),
(88,690,l),
(88,267,ls),
(88,242,o),
(88,222,o),
(90,196,cs),
(99,83,o),
(175,-10,o),
(347,-14,c),
(310,-42,o),
(282,-85,o),
(282,-138,cs),
(282,-201,o),
(322,-223,o),
(380,-223,cs),
(421,-223,o),
(455,-212,o),
(481,-192,c),
(481,-137,l),
(463,-151,o),
(446,-157,o),
(428,-157,cs),
(401,-157,o),
(384,-144,o),
(384,-107,cs),
(384,-57,o),
(413,-18,o),
(450,-4,c),
(566,23,o),
(619,103,o),
(627,196,cs),
(629,222,o),
(629,242,o),
(629,267,cs)
);
}
);
width = 691;
}
);
note = Uogonek;
unicode = 370;
},
{
glyphname = Uring;
kernLeft = U;
kernRight = U;
layers = (
{
hints = (
{
horizontal = 1;
place = (-14, 84);
place = (-14, 84);
type = Stem;
},
{
horizontal = 1;
place = (690, -20);
target = down;
type = TopGhost;
},
{
horizontal = 1;
place = (845, 44);
place = (845, 44);
type = Stem;
},
{
place = (88, 109);
place = (88, 109);
type = Stem;
},
{
place = (260, 58);
place = (260, 58);
type = Stem;
},
{
place = (398, 58);
place = (398, 58);
type = Stem;
},
{
place = (520, 109);
place = (520, 109);
type = Stem;
},
{
horizontal = 1;
place = (718, 43);
place = (718, 43);
type = Stem;
}
);
layerId = m01;
shapes = (
{
closed = 1;
nodes = (
(301,889,o),
(260,853,o),
(260,803,cs),
(260,753,o),
(301,718,o),
(358,718,cs),
(415,718,o),
(456,753,o),
(456,803,cs),
(456,853,o),
(415,889,o),
(358,889,cs)
);
},
{
closed = 1;
nodes = (
(381,845,o),
(398,828,o),
(398,803,cs),
(398,779,o),
(381,761,o),
(358,761,cs),
(335,761,o),
(318,779,o),
(318,803,cs),
(318,828,o),
(335,845,o),
(358,845,cs)
);
},
{
closed = 1;
nodes = (
(629,690,l),
(520,690,l),
(520,265,ls),
(520,244,o),
(520,225,o),
(518,209,cs),
(511,126,o),
(458,70,o),
(358,70,cs),
(259,70,o),
(206,126,o),
(199,209,cs),
(197,225,o),
(197,244,o),
(197,265,cs),
(197,690,l),
(88,690,l),
(88,267,ls),
(88,242,o),
(88,222,o),
(90,196,cs),
(99,81,o),
(178,-14,o),
(358,-14,cs),
(538,-14,o),
(617,81,o),
(627,196,cs),
(629,222,o),
(629,242,o),
(629,267,cs)
);
}
);
width = 691;
}
);
note = Uring;
unicode = 366;
},
{
glyphname = V;
kernLeft = V;
kernRight = V;
layers = (
{
hints = (
{
horizontal = 1;
place = (0, 21);
target = up;
type = BottomGhost;
},
{
horizontal = 1;
place = (690, -20);
target = down;
type = TopGhost;
},
{
place = (32, 631);
place = (32, 631);
type = Stem;
},
{
horizontal = 1;
place = (0, 84);
place = (0, 84);
type = Stem;
}
);
layerId = m01;
shapes = (
{
closed = 1;
nodes = (
(415,0,l),
(663,690,l),
(546,690,l),
(346,84,l),
(151,690,l),
(32,690,l),
(273,0,l)
);
}
);
width = 652;
}
);
note = V;
unicode = 86;
},
{
glyphname = W;
kernLeft = W;
kernRight = W;
layers = (
{
hints = (
{
horizontal = 1;
place = (0, 21);
target = up;
type = BottomGhost;
},
{
horizontal = 1;
place = (690, -20);
target = down;
type = TopGhost;
},
{
place = (26, 940);
place = (26, 940);
type = Stem;
},
{
horizontal = 1;
place = (0, 88);
place = (0, 88);
type = Stem;
},
{
horizontal = 1;
place = (588, 92);
place = (588, 92);
type = Stem;
}
);
layerId = m01;
shapes = (
{
closed = 1;
nodes = (
(966,690,l),
(852,690,l),
(712,88,l),
(573,680,l),
(422,680,l),
(279,91,l),
(147,690,l),
(26,690,l),
(204,0,l),
(350,0,l),
(495,588,l),
(633,0,l),
(778,0,l)
);
}
);
width = 968;
}
);
note = W;
unicode = 87;
},
{
glyphname = Wacute;
kernLeft = W;
kernRight = W;
layers = (
{
hints = (
{
horizontal = 1;
place = (0, 21);
target = up;
type = BottomGhost;
},
{
horizontal = 1;
place = (690, -20);
target = down;
type = TopGhost;
},
{
horizontal = 1;
place = (736, 102);
place = (736, 102);
type = Stem;
},
{
place = (26, 940);
place = (26, 940);
type = Stem;
},
{
horizontal = 1;
place = (0, 88);
place = (0, 88);
type = Stem;
},
{
horizontal = 1;
place = (588, 92);
place = (588, 92);
type = Stem;
}
);
layerId = m01;
shapes = (
{
closed = 1;
nodes = (
(525,736,l),
(622,838,l),
(522,838,l),
(459,736,l)
);
},
{
closed = 1;
nodes = (
(966,690,l),
(852,690,l),
(712,88,l),
(573,680,l),
(422,680,l),
(279,91,l),
(147,690,l),
(26,690,l),
(204,0,l),
(350,0,l),
(495,588,l),
(633,0,l),
(778,0,l)
);
}
);
width = 968;
}
);
note = Wacute;
unicode = 7810;
},
{
glyphname = Wcircumflex;
kernLeft = W;
kernRight = W;
layers = (
{
hints = (
{
horizontal = 1;
place = (0, 21);
target = up;
type = BottomGhost;
},
{
horizontal = 1;
place = (690, -20);
target = down;
type = TopGhost;
},
{
horizontal = 1;
place = (736, 102);
place = (736, 102);
type = Stem;
},
{
place = (26, 940);
place = (26, 940);
type = Stem;
},
{
horizontal = 1;
place = (0, 88);
place = (0, 88);
type = Stem;
},
{
horizontal = 1;
place = (588, 92);
place = (588, 92);
type = Stem;
}
);
layerId = m01;
shapes = (
{
closed = 1;
nodes = (
(466,736,l),
(497,796,l),
(528,736,l),
(604,736,l),
(538,838,l),
(457,838,l),
(391,736,l)
);
},
{
closed = 1;
nodes = (
(966,690,l),
(852,690,l),
(712,88,l),
(573,680,l),
(422,680,l),
(279,91,l),
(147,690,l),
(26,690,l),
(204,0,l),
(350,0,l),
(495,588,l),
(633,0,l),
(778,0,l)
);
}
);
width = 968;
}
);
note = Wcircumflex;
unicode = 372;
},
{
glyphname = Wdieresis;
kernLeft = W;
kernRight = W;
lastChange = "2022-11-25 15:30:11 +0000";
layers = (
{
hints = (
{
horizontal = 1;
place = (0, 21);
target = up;
type = BottomGhost;
},
{
horizontal = 1;
place = (690, -20);
target = down;
type = TopGhost;
},
{
horizontal = 1;
place = (733, 106);
place = (733, 106);
type = Stem;
},
{
place = (366, 107);
place = (366, 107);
type = Stem;
},
{
place = (521, 107);
place = (521, 107);
type = Stem;
},
{
horizontal = 1;
place = (0, 88);
place = (0, 88);
type = Stem;
},
{
horizontal = 1;
place = (588, 92);
place = (588, 92);
type = Stem;
}
);
layerId = m01;
shapes = (
{
closed = 1;
nodes = (
(966,690,l),
(852,690,l),
(712,88,l),
(573,680,l),
(422,680,l),
(279,91,l),
(147,690,l),
(26,690,l),
(204,0,l),
(350,0,l),
(495,588,l),
(633,0,l),
(778,0,l)
);
},
{
closed = 1;
nodes = (
(366,733,l),
(474,733,l),
(474,839,l),
(366,839,l)
);
},
{
closed = 1;
nodes = (
(521,733,l),
(629,733,l),
(629,839,l),
(521,839,l)
);
}
);
width = 968;
}
);
note = Wdieresis;
unicode = 7812;
},
{
glyphname = Wgrave;
kernLeft = W;
kernRight = W;
layers = (
{
hints = (
{
horizontal = 1;
place = (0, 21);
target = up;
type = BottomGhost;
},
{
horizontal = 1;
place = (690, -20);
target = down;
type = TopGhost;
},
{
horizontal = 1;
place = (736, 102);
place = (736, 102);
type = Stem;
},
{
place = (26, 940);
place = (26, 940);
type = Stem;
},
{
horizontal = 1;
place = (0, 88);
place = (0, 88);
type = Stem;
},
{
horizontal = 1;
place = (588, 92);
place = (588, 92);
type = Stem;
}
);
layerId = m01;
shapes = (
{
closed = 1;
nodes = (
(470,736,l),
(536,736,l),
(473,838,l),
(373,838,l)
);
},
{
closed = 1;
nodes = (
(966,690,l),
(852,690,l),
(712,88,l),
(573,680,l),
(422,680,l),
(279,91,l),
(147,690,l),
(26,690,l),
(204,0,l),
(350,0,l),
(495,588,l),
(633,0,l),
(778,0,l)
);
}
);
width = 968;
}
);
note = Wgrave;
unicode = 7808;
},
{
glyphname = X;
layers = (
{
hints = (
{
horizontal = 1;
place = (0, 21);
target = up;
type = BottomGhost;
},
{
horizontal = 1;
place = (690, -20);
target = down;
type = TopGhost;
},
{
place = (22, 625);
place = (22, 625);
type = Stem;
}
);
layerId = m01;
shapes = (
{
closed = 1;
nodes = (
(519,0,l),
(647,0,l),
(399,351,l),
(639,690,l),
(513,690,l),
(336,420,l),
(166,690,l),
(40,690,l),
(269,348,l),
(22,0,l),
(151,0,l),
(331,279,l)
);
}
);
width = 648;
}
);
note = X;
unicode = 88;
},
{
glyphname = Y;
kernLeft = Y;
kernRight = Y;
layers = (
{
hints = (
{
horizontal = 1;
place = (0, 21);
target = up;
type = BottomGhost;
},
{
horizontal = 1;
place = (690, -20);
target = down;
type = TopGhost;
},
{
place = (262, 109);
place = (262, 109);
type = Stem;
}
);
layerId = m01;
shapes = (
{
closed = 1;
nodes = (
(371,270,l),
(615,690,l),
(493,690,l),
(321,371,l),
(143,690,l),
(18,690,l),
(262,270,l),
(262,0,l),
(371,0,l)
);
}
);
width = 602;
}
);
note = Y;
unicode = 89;
},
{
glyphname = Yacute;
kernLeft = Y;
kernRight = Y;
layers = (
{
hints = (
{
horizontal = 1;
place = (0, 21);
target = up;
type = BottomGhost;
},
{
horizontal = 1;
place = (690, -20);
target = down;
type = TopGhost;
},
{
horizontal = 1;
place = (736, 102);
place = (736, 102);
type = Stem;
},
{
place = (262, 109);
place = (262, 109);
type = Stem;
}
);
layerId = m01;
shapes = (
{
closed = 1;
nodes = (
(344,736,l),
(441,838,l),
(341,838,l),
(278,736,l)
);
},
{
closed = 1;
nodes = (
(371,270,l),
(615,690,l),
(493,690,l),
(321,371,l),
(143,690,l),
(18,690,l),
(262,270,l),
(262,0,l),
(371,0,l)
);
}
);
width = 602;
}
);
note = Yacute;
unicode = 221;
},
{
glyphname = Ycircumflex;
kernLeft = Y;
kernRight = Y;
layers = (
{
hints = (
{
horizontal = 1;
place = (0, 21);
target = up;
type = BottomGhost;
},
{
horizontal = 1;
place = (690, -20);
target = down;
type = TopGhost;
},
{
horizontal = 1;
place = (736, 102);
place = (736, 102);
type = Stem;
},
{
place = (262, 109);
place = (262, 109);
type = Stem;
}
);
layerId = m01;
shapes = (
{
closed = 1;
nodes = (
(285,736,l),
(316,796,l),
(347,736,l),
(423,736,l),
(357,838,l),
(276,838,l),
(210,736,l)
);
},
{
closed = 1;
nodes = (
(371,270,l),
(615,690,l),
(493,690,l),
(321,371,l),
(143,690,l),
(18,690,l),
(262,270,l),
(262,0,l),
(371,0,l)
);
}
);
width = 602;
}
);
note = Ycircumflex;
unicode = 374;
},
{
glyphname = Ydieresis;
kernLeft = Y;
kernRight = Y;
lastChange = "2022-11-25 15:30:24 +0000";
layers = (
{
hints = (
{
horizontal = 1;
place = (0, 21);
target = up;
type = BottomGhost;
},
{
horizontal = 1;
place = (690, -20);
target = down;
type = TopGhost;
},
{
horizontal = 1;
place = (733, 106);
place = (733, 106);
type = Stem;
},
{
place = (185, 107);
place = (185, 107);
type = Stem;
},
{
place = (340, 107);
place = (340, 107);
type = Stem;
},
{
place = (262, 109);
place = (262, 109);
type = Stem;
}
);
layerId = m01;
shapes = (
{
closed = 1;
nodes = (
(371,270,l),
(615,690,l),
(493,690,l),
(321,371,l),
(143,690,l),
(18,690,l),
(262,270,l),
(262,0,l),
(371,0,l)
);
},
{
closed = 1;
nodes = (
(183,733,l),
(291,733,l),
(291,839,l),
(183,839,l)
);
},
{
closed = 1;
nodes = (
(338,733,l),
(446,733,l),
(446,839,l),
(338,839,l)
);
}
);
width = 602;
}
);
note = Ydieresis;
unicode = 376;
},
{
glyphname = Ygrave;
kernLeft = Y;
kernRight = Y;
layers = (
{
hints = (
{
horizontal = 1;
place = (0, 21);
target = up;
type = BottomGhost;
},
{
horizontal = 1;
place = (690, -20);
target = down;
type = TopGhost;
},
{
horizontal = 1;
place = (736, 102);
place = (736, 102);
type = Stem;
},
{
place = (262, 109);
place = (262, 109);
type = Stem;
}
);
layerId = m01;
shapes = (
{
closed = 1;
nodes = (
(289,736,l),
(355,736,l),
(292,838,l),
(192,838,l)
);
},
{
closed = 1;
nodes = (
(371,270,l),
(615,690,l),
(493,690,l),
(321,371,l),
(143,690,l),
(18,690,l),
(262,270,l),
(262,0,l),
(371,0,l)
);
}
);
width = 602;
}
);
note = Ygrave;
unicode = 7922;
},
{
glyphname = Z;
kernLeft = Z;
kernRight = Z;
layers = (
{
hints = (
{
horizontal = 1;
place = (0, 88);
place = (0, 88);
type = Stem;
},
{
horizontal = 1;
place = (603, 87);
place = (603, 87);
type = Stem;
},
{
place = (48, 533);
place = (48, 533);
type = Stem;
}
);
layerId = m01;
shapes = (
{
closed = 1;
nodes = (
(581,88,l),
(179,88,l),
(576,604,l),
(576,690,l),
(76,690,l),
(76,603,l),
(448,603,l),
(48,84,l),
(48,0,l),
(581,0,l)
);
}
);
width = 605;
}
);
note = Z;
unicode = 90;
},
{
glyphname = Zacute;
kernLeft = Z;
kernRight = Z;
layers = (
{
hints = (
{
horizontal = 1;
place = (0, 88);
place = (0, 88);
type = Stem;
},
{
horizontal = 1;
place = (603, 87);
place = (603, 87);
type = Stem;
},
{
horizontal = 1;
place = (736, 102);
place = (736, 102);
type = Stem;
},
{
place = (48, 533);
place = (48, 533);
type = Stem;
}
);
layerId = m01;
shapes = (
{
closed = 1;
nodes = (
(343,736,l),
(440,838,l),
(340,838,l),
(277,736,l)
);
},
{
closed = 1;
nodes = (
(581,88,l),
(179,88,l),
(576,604,l),
(576,690,l),
(76,690,l),
(76,603,l),
(448,603,l),
(48,84,l),
(48,0,l),
(581,0,l)
);
}
);
width = 605;
}
);
note = Zacute;
unicode = 377;
},
{
glyphname = Zcaron;
kernLeft = Z;
kernRight = Z;
layers = (
{
hints = (
{
horizontal = 1;
place = (0, 88);
place = (0, 88);
type = Stem;
},
{
horizontal = 1;
place = (603, 87);
place = (603, 87);
type = Stem;
},
{
horizontal = 1;
place = (736, 102);
place = (736, 102);
type = Stem;
},
{
place = (48, 533);
place = (48, 533);
type = Stem;
}
);
layerId = m01;
shapes = (
{
closed = 1;
nodes = (
(275,736,l),
(356,736,l),
(422,838,l),
(347,838,l),
(316,777,l),
(285,838,l),
(209,838,l)
);
},
{
closed = 1;
nodes = (
(581,88,l),
(179,88,l),
(576,604,l),
(576,690,l),
(76,690,l),
(76,603,l),
(448,603,l),
(48,84,l),
(48,0,l),
(581,0,l)
);
}
);
width = 605;
}
);
note = Zcaron;
unicode = 381;
},
{
glyphname = Zdotaccent;
kernLeft = Z;
kernRight = Z;
layers = (
{
hints = (
{
horizontal = 1;
place = (0, 88);
place = (0, 88);
type = Stem;
},
{
horizontal = 1;
place = (603, 87);
place = (603, 87);
type = Stem;
},
{
horizontal = 1;
place = (734, 113);
place = (734, 113);
type = Stem;
},
{
place = (257, 116);
place = (257, 116);
type = Stem;
}
);
layerId = m01;
shapes = (
{
closed = 1;
nodes = (
(348,734,o),
(373,758,o),
(373,791,cs),
(373,823,o),
(348,847,o),
(315,847,cs),
(282,847,o),
(257,823,o),
(257,791,cs),
(257,758,o),
(282,734,o),
(315,734,cs)
);
},
{
closed = 1;
nodes = (
(581,88,l),
(179,88,l),
(576,604,l),
(576,690,l),
(76,690,l),
(76,603,l),
(448,603,l),
(48,84,l),
(48,0,l),
(581,0,l)
);
}
);
width = 605;
}
);
note = Zdotaccent;
unicode = 379;
},
{
glyphname = a;
kernLeft = a;
layers = (
{
hints = (
{
horizontal = 1;
place = (0, 66);
place = (0, 66);
type = Stem;
},
{
horizontal = 1;
place = (248, 73);
place = (248, 73);
type = Stem;
},
{
horizontal = 1;
place = (465, 80);
place = (465, 80);
type = Stem;
},
{
place = (35, 116);
place = (35, 116);
type = Stem;
},
{
place = (364, 110);
place = (364, 110);
type = Stem;
},
{
horizontal = 1;
place = (-14, 80);
place = (-14, 80);
type = Stem;
}
);
layerId = m01;
shapes = (
{
closed = 1;
nodes = (
(375,0,l),
(484,0,l),
(476,59,o),
(474,95,o),
(474,135,cs),
(474,322,ls),
(474,347,o),
(473,375,o),
(471,397,cs),
(462,487,o),
(408,545,o),
(271,545,cs),
(150,545,o),
(63,479,o),
(56,363,c),
(166,363,l),
(172,429,o),
(205,465,o),
(269,465,cs),
(332,465,o),
(359,435,o),
(362,392,cs),
(364,372,o),
(364,354,o),
(364,334,cs),
(364,321,l),
(330,321,ls),
(129,321,o),
(35,257,o),
(35,139,cs),
(35,40,o),
(112,-14,o),
(206,-14,cs),
(256,-14,o),
(302,-5,o),
(338,20,c),
(365,77,l)
);
},
{
closed = 1;
nodes = (
(188,66,o),
(151,92,o),
(151,148,cs),
(151,229,o),
(235,258,o),
(364,248,c),
(364,199,ls),
(364,113,o),
(315,66,o),
(246,66,cs)
);
}
);
width = 545;
}
);
note = a;
unicode = 97;
},
{
glyphname = aacute;
kernLeft = a;
layers = (
{
hints = (
{
horizontal = 1;
place = (-14, 80);
place = (-14, 80);
type = Stem;
},
{
horizontal = 1;
place = (248, 73);
place = (248, 73);
type = Stem;
},
{
horizontal = 1;
place = (465, 80);
place = (465, 80);
type = Stem;
},
{
horizontal = 1;
place = (578, 114);
place = (578, 114);
type = Stem;
},
{
place = (35, 116);
place = (35, 116);
type = Stem;
},
{
place = (364, 110);
place = (364, 110);
type = Stem;
},
{
horizontal = 1;
place = (0, 66);
place = (0, 66);
type = Stem;
}
);
layerId = m01;
shapes = (
{
closed = 1;
nodes = (
(298,578,l),
(401,692,l),
(301,692,l),
(232,578,l)
);
},
{
closed = 1;
nodes = (
(375,0,l),
(484,0,l),
(476,59,o),
(474,95,o),
(474,135,cs),
(474,322,ls),
(474,347,o),
(473,375,o),
(471,397,cs),
(462,487,o),
(408,545,o),
(271,545,cs),
(150,545,o),
(63,479,o),
(56,363,c),
(166,363,l),
(172,429,o),
(205,465,o),
(269,465,cs),
(332,465,o),
(359,435,o),
(362,392,cs),
(364,372,o),
(364,354,o),
(364,334,cs),
(364,321,l),
(330,321,ls),
(129,321,o),
(35,257,o),
(35,139,cs),
(35,40,o),
(112,-14,o),
(206,-14,cs),
(256,-14,o),
(302,-5,o),
(338,20,c),
(365,77,l)
);
},
{
closed = 1;
nodes = (
(188,66,o),
(151,92,o),
(151,148,cs),
(151,229,o),
(235,258,o),
(364,248,c),
(364,199,ls),
(364,113,o),
(315,66,o),
(246,66,cs)
);
}
);
width = 545;
}
);
note = aacute;
unicode = 225;
},
{
glyphname = abreve;
kernLeft = a;
layers = (
{
hints = (
{
horizontal = 1;
place = (-14, 80);
place = (-14, 80);
type = Stem;
},
{
horizontal = 1;
place = (248, 73);
place = (248, 73);
type = Stem;
},
{
horizontal = 1;
place = (465, 80);
place = (465, 80);
type = Stem;
},
{
horizontal = 1;
place = (567, 125);
place = (567, 125);
type = Stem;
},
{
place = (35, 116);
place = (35, 116);
type = Stem;
},
{
place = (161, 62);
place = (161, 62);
type = Stem;
},
{
place = (319, 62);
place = (319, 62);
type = Stem;
},
{
horizontal = 1;
place = (567, 62);
place = (567, 62);
type = Stem;
},
{
place = (364, 110);
place = (364, 110);
type = Stem;
},
{
horizontal = 1;
place = (0, 66);
place = (0, 66);
type = Stem;
}
);
layerId = m01;
shapes = (
{
closed = 1;
nodes = (
(342,567,o),
(381,605,o),
(381,692,c),
(319,692,l),
(318,646,o),
(300,629,o),
(271,629,cs),
(242,629,o),
(224,646,o),
(223,692,c),
(161,692,l),
(161,605,o),
(199,567,o),
(271,567,cs)
);
},
{
closed = 1;
nodes = (
(375,0,l),
(484,0,l),
(476,59,o),
(474,95,o),
(474,135,cs),
(474,322,ls),
(474,347,o),
(473,375,o),
(471,397,cs),
(462,487,o),
(408,545,o),
(271,545,cs),
(150,545,o),
(63,479,o),
(56,363,c),
(166,363,l),
(172,429,o),
(205,465,o),
(269,465,cs),
(332,465,o),
(359,435,o),
(362,392,cs),
(364,372,o),
(364,354,o),
(364,334,cs),
(364,321,l),
(330,321,ls),
(129,321,o),
(35,257,o),
(35,139,cs),
(35,40,o),
(112,-14,o),
(206,-14,cs),
(256,-14,o),
(302,-5,o),
(338,20,c),
(365,77,l)
);
},
{
closed = 1;
nodes = (
(188,66,o),
(151,92,o),
(151,148,cs),
(151,229,o),
(235,258,o),
(364,248,c),
(364,199,ls),
(364,113,o),
(315,66,o),
(246,66,cs)
);
}
);
width = 545;
}
);
note = abreve;
unicode = 259;
},
{
glyphname = acircumflex;
kernLeft = a;
layers = (
{
hints = (
{
horizontal = 1;
place = (-14, 80);
place = (-14, 80);
type = Stem;
},
{
horizontal = 1;
place = (248, 73);
place = (248, 73);
type = Stem;
},
{
horizontal = 1;
place = (465, 80);
place = (465, 80);
type = Stem;
},
{
horizontal = 1;
place = (578, 114);
place = (578, 114);
type = Stem;
},
{
place = (35, 116);
place = (35, 116);
type = Stem;
},
{
place = (364, 110);
place = (364, 110);
type = Stem;
},
{
horizontal = 1;
place = (643, 49);
place = (643, 49);
type = Stem;
},
{
horizontal = 1;
place = (0, 66);
place = (0, 66);
type = Stem;
}
);
layerId = m01;
shapes = (
{
closed = 1;
nodes = (
(238,578,l),
(271,643,l),
(304,578,l),
(378,578,l),
(312,692,l),
(231,692,l),
(165,578,l)
);
},
{
closed = 1;
nodes = (
(375,0,l),
(484,0,l),
(476,59,o),
(474,95,o),
(474,135,cs),
(474,322,ls),
(474,347,o),
(473,375,o),
(471,397,cs),
(462,487,o),
(408,545,o),
(271,545,cs),
(150,545,o),
(63,479,o),
(56,363,c),
(166,363,l),
(172,429,o),
(205,465,o),
(269,465,cs),
(332,465,o),
(359,435,o),
(362,392,cs),
(364,372,o),
(364,354,o),
(364,334,cs),
(364,321,l),
(330,321,ls),
(129,321,o),
(35,257,o),
(35,139,cs),
(35,40,o),
(112,-14,o),
(206,-14,cs),
(256,-14,o),
(302,-5,o),
(338,20,c),
(365,77,l)
);
},
{
closed = 1;
nodes = (
(188,66,o),
(151,92,o),
(151,148,cs),
(151,229,o),
(235,258,o),
(364,248,c),
(364,199,ls),
(364,113,o),
(315,66,o),
(246,66,cs)
);
}
);
width = 545;
}
);
note = acircumflex;
unicode = 226;
},
{
glyphname = adieresis;
kernLeft = a;
lastChange = "2022-11-25 15:30:36 +0000";
layers = (
{
hints = (
{
horizontal = 1;
place = (-14, 80);
place = (-14, 80);
type = Stem;
},
{
horizontal = 1;
place = (248, 73);
place = (248, 73);
type = Stem;
},
{
horizontal = 1;
place = (465, 80);
place = (465, 80);
type = Stem;
},
{
horizontal = 1;
place = (580, 105);
place = (580, 105);
type = Stem;
},
{
place = (138, 107);
place = (138, 107);
type = Stem;
},
{
place = (298, 106);
place = (298, 106);
type = Stem;
},
{
horizontal = 1;
place = (0, 66);
place = (0, 66);
type = Stem;
},
{
place = (35, 116);
place = (35, 116);
type = Stem;
},
{
place = (364, 110);
place = (364, 110);
type = Stem;
}
);
layerId = m01;
shapes = (
{
closed = 1;
nodes = (
(375,0,l),
(484,0,l),
(476,59,o),
(474,95,o),
(474,135,cs),
(474,322,ls),
(474,347,o),
(473,375,o),
(471,397,cs),
(462,487,o),
(408,545,o),
(271,545,cs),
(150,545,o),
(63,479,o),
(56,363,c),
(166,363,l),
(172,429,o),
(205,465,o),
(269,465,cs),
(332,465,o),
(359,435,o),
(362,392,cs),
(364,372,o),
(364,354,o),
(364,334,cs),
(364,321,l),
(330,321,ls),
(129,321,o),
(35,257,o),
(35,139,cs),
(35,40,o),
(112,-14,o),
(206,-14,cs),
(256,-14,o),
(302,-5,o),
(338,20,c),
(365,77,l)
);
},
{
closed = 1;
nodes = (
(188,66,o),
(151,92,o),
(151,148,cs),
(151,229,o),
(235,258,o),
(364,248,c),
(364,199,ls),
(364,113,o),
(315,66,o),
(246,66,cs)
);
},
{
closed = 1;
nodes = (
(139,583,l),
(247,583,l),
(247,689,l),
(139,689,l)
);
},
{
closed = 1;
nodes = (
(294,583,l),
(402,583,l),
(402,689,l),
(294,689,l)
);
}
);
width = 545;
}
);
note = adieresis;
unicode = 228;
},
{
glyphname = agrave;
kernLeft = a;
layers = (
{
hints = (
{
horizontal = 1;
place = (-14, 80);
place = (-14, 80);
type = Stem;
},
{
horizontal = 1;
place = (248, 73);
place = (248, 73);
type = Stem;
},
{
horizontal = 1;
place = (465, 80);
place = (465, 80);
type = Stem;
},
{
horizontal = 1;
place = (578, 114);
place = (578, 114);
type = Stem;
},
{
place = (35, 116);
place = (35, 116);
type = Stem;
},
{
place = (364, 110);
place = (364, 110);
type = Stem;
},
{
horizontal = 1;
place = (0, 66);
place = (0, 66);
type = Stem;
}
);
layerId = m01;
shapes = (
{
closed = 1;
nodes = (
(246,578,l),
(312,578,l),
(244,692,l),
(144,692,l)
);
},
{
closed = 1;
nodes = (
(375,0,l),
(484,0,l),
(476,59,o),
(474,95,o),
(474,135,cs),
(474,322,ls),
(474,347,o),
(473,375,o),
(471,397,cs),
(462,487,o),
(408,545,o),
(271,545,cs),
(150,545,o),
(63,479,o),
(56,363,c),
(166,363,l),
(172,429,o),
(205,465,o),
(269,465,cs),
(332,465,o),
(359,435,o),
(362,392,cs),
(364,372,o),
(364,354,o),
(364,334,cs),
(364,321,l),
(330,321,ls),
(129,321,o),
(35,257,o),
(35,139,cs),
(35,40,o),
(112,-14,o),
(206,-14,cs),
(256,-14,o),
(302,-5,o),
(338,20,c),
(365,77,l)
);
},
{
closed = 1;
nodes = (
(188,66,o),
(151,92,o),
(151,148,cs),
(151,229,o),
(235,258,o),
(364,248,c),
(364,199,ls),
(364,113,o),
(315,66,o),
(246,66,cs)
);
}
);
width = 545;
}
);
note = agrave;
unicode = 224;
},
{
glyphname = amacron;
kernLeft = a;
layers = (
{
hints = (
{
horizontal = 1;
place = (-14, 80);
place = (-14, 80);
type = Stem;
},
{
horizontal = 1;
place = (248, 73);
place = (248, 73);
type = Stem;
},
{
horizontal = 1;
place = (465, 80);
place = (465, 80);
type = Stem;
},
{
horizontal = 1;
place = (600, 63);
place = (600, 63);
type = Stem;
},
{
place = (144, 255);
place = (144, 255);
type = Stem;
},
{
horizontal = 1;
place = (0, 66);
place = (0, 66);
type = Stem;
},
{
place = (35, 116);
place = (35, 116);
type = Stem;
},
{
place = (364, 110);
place = (364, 110);
type = Stem;
}
);
layerId = m01;
shapes = (
{
closed = 1;
nodes = (
(399,600,l),
(399,663,l),
(144,663,l),
(144,600,l)
);
},
{
closed = 1;
nodes = (
(375,0,l),
(484,0,l),
(476,59,o),
(474,95,o),
(474,135,cs),
(474,322,ls),
(474,347,o),
(473,375,o),
(471,397,cs),
(462,487,o),
(408,545,o),
(271,545,cs),
(150,545,o),
(63,479,o),
(56,363,c),
(166,363,l),
(172,429,o),
(205,465,o),
(269,465,cs),
(332,465,o),
(359,435,o),
(362,392,cs),
(364,372,o),
(364,354,o),
(364,334,cs),
(364,321,l),
(330,321,ls),
(129,321,o),
(35,257,o),
(35,139,cs),
(35,40,o),
(112,-14,o),
(206,-14,cs),
(256,-14,o),
(302,-5,o),
(338,20,c),
(365,77,l)
);
},
{
closed = 1;
nodes = (
(188,66,o),
(151,92,o),
(151,148,cs),
(151,229,o),
(235,258,o),
(364,248,c),
(364,199,ls),
(364,113,o),
(315,66,o),
(246,66,cs)
);
}
);
width = 545;
}
);
note = amacron;
unicode = 257;
},
{
glyphname = aogonek;
kernLeft = a;
layers = (
{
hints = (
{
horizontal = 1;
place = (-223, 66);
place = (-223, 66);
type = Stem;
},
{
horizontal = 1;
place = (0, 21);
target = up;
type = BottomGhost;
},
{
horizontal = 1;
place = (248, 73);
place = (248, 73);
type = Stem;
},
{
horizontal = 1;
place = (465, 80);
place = (465, 80);
type = Stem;
},
{
place = (35, 116);
place = (35, 116);
type = Stem;
},
{
place = (269, 102);
place = (269, 102);
type = Stem;
},
{
place = (364, 110);
place = (364, 110);
type = Stem;
},
{
horizontal = 1;
place = (-14, 80);
place = (-14, 80);
type = Stem;
}
);
layerId = m01;
shapes = (
{
closed = 1;
nodes = (
(371,-50,o),
(409,-7,o),
(453,0,c),
(484,0,l),
(476,59,o),
(474,95,o),
(474,135,cs),
(474,322,ls),
(474,347,o),
(473,375,o),
(471,397,cs),
(462,487,o),
(408,545,o),
(271,545,cs),
(150,545,o),
(63,479,o),
(56,363,c),
(166,363,l),
(172,429,o),
(205,465,o),
(269,465,cs),
(332,465,o),
(359,435,o),
(362,392,cs),
(364,372,o),
(364,354,o),
(364,334,cs),
(364,321,l),
(330,321,ls),
(129,321,o),
(35,257,o),
(35,139,cs),
(35,40,o),
(112,-14,o),
(206,-14,cs),
(256,-14,o),
(302,-5,o),
(338,20,c),
(365,77,l),
(374,9,l),
(319,-14,o),
(269,-67,o),
(269,-138,cs),
(269,-201,o),
(309,-223,o),
(367,-223,cs),
(408,-223,o),
(442,-212,o),
(468,-192,c),
(468,-137,l),
(450,-151,o),
(433,-157,o),
(415,-157,cs),
(388,-157,o),
(371,-144,o),
(371,-107,cs)
);
},
{
closed = 1;
nodes = (
(188,66,o),
(151,92,o),
(151,148,cs),
(151,229,o),
(235,258,o),
(364,248,c),
(364,199,ls),
(364,113,o),
(315,66,o),
(246,66,cs)
);
}
);
width = 545;
}
);
note = aogonek;
unicode = 261;
},
{
glyphname = aring;
kernLeft = a;
layers = (
{
hints = (
{
horizontal = 1;
place = (-14, 80);
place = (-14, 80);
type = Stem;
},
{
horizontal = 1;
place = (248, 73);
place = (248, 73);
type = Stem;
},
{
horizontal = 1;
place = (465, 80);
place = (465, 80);
type = Stem;
},
{
horizontal = 1;
place = (566, 43);
place = (566, 43);
type = Stem;
},
{
horizontal = 1;
place = (702, 43);
place = (702, 43);
type = Stem;
},
{
place = (35, 116);
place = (35, 116);
type = Stem;
},
{
place = (173, 58);
place = (173, 58);
type = Stem;
},
{
place = (311, 58);
place = (311, 58);
type = Stem;
},
{
horizontal = 1;
place = (0, 66);
place = (0, 66);
type = Stem;
},
{
place = (364, 110);
place = (364, 110);
type = Stem;
}
);
layerId = m01;
shapes = (
{
closed = 1;
nodes = (
(328,566,o),
(369,603,o),
(369,655,cs),
(369,708,o),
(328,745,o),
(271,745,cs),
(214,745,o),
(173,708,o),
(173,655,cs),
(173,603,o),
(214,566,o),
(271,566,cs)
);
},
{
closed = 1;
nodes = (
(294,702,o),
(311,684,o),
(311,655,cs),
(311,626,o),
(294,609,o),
(271,609,cs),
(248,609,o),
(231,626,o),
(231,655,cs),
(231,684,o),
(248,702,o),
(271,702,cs)
);
},
{
closed = 1;
nodes = (
(375,0,l),
(484,0,l),
(476,59,o),
(474,95,o),
(474,135,cs),
(474,322,ls),
(474,347,o),
(473,375,o),
(471,397,cs),
(462,487,o),
(408,545,o),
(271,545,cs),
(150,545,o),
(63,479,o),
(56,363,c),
(166,363,l),
(172,429,o),
(205,465,o),
(269,465,cs),
(332,465,o),
(359,435,o),
(362,392,cs),
(364,372,o),
(364,354,o),
(364,334,cs),
(364,321,l),
(330,321,ls),
(129,321,o),
(35,257,o),
(35,139,cs),
(35,40,o),
(112,-14,o),
(206,-14,cs),
(256,-14,o),
(302,-5,o),
(338,20,c),
(365,77,l)
);
},
{
closed = 1;
nodes = (
(188,66,o),
(151,92,o),
(151,148,cs),
(151,229,o),
(235,258,o),
(364,248,c),
(364,199,ls),
(364,113,o),
(315,66,o),
(246,66,cs)
);
}
);
width = 545;
}
);
note = aring;
unicode = 229;
},
{
glyphname = atilde;
kernLeft = a;
layers = (
{
hints = (
{
horizontal = 1;
place = (-14, 80);
place = (-14, 80);
type = Stem;
},
{
horizontal = 1;
place = (248, 73);
place = (248, 73);
type = Stem;
},
{
horizontal = 1;
place = (465, 80);
place = (465, 80);
type = Stem;
},
{
horizontal = 1;
place = (594, 86);
place = (594, 86);
type = Stem;
},
{
place = (151, 52);
place = (151, 52);
type = Stem;
},
{
place = (364, 110);
place = (364, 110);
type = Stem;
},
{
horizontal = 1;
place = (590, 87);
place = (590, 87);
type = Stem;
},
{
place = (35, 116);
place = (35, 116);
type = Stem;
},
{
place = (339, 53);
place = (339, 53);
type = Stem;
},
{
horizontal = 1;
place = (0, 66);
place = (0, 66);
type = Stem;
}
);
layerId = m01;
shapes = (
{
closed = 1;
nodes = (
(228,616,o),
(239,613,o),
(263,604,cs),
(293,594,o),
(309,590,o),
(330,590,cs),
(370,590,o),
(392,611,o),
(392,677,c),
(339,677,l),
(339,660,o),
(334,654,o),
(323,654,cs),
(315,654,o),
(303,657,o),
(279,666,cs),
(250,677,o),
(234,680,o),
(212,680,cs),
(173,680,o),
(151,659,o),
(151,594,c),
(203,594,l),
(203,610,o),
(209,616,o),
(219,616,cs)
);
},
{
closed = 1;
nodes = (
(375,0,l),
(484,0,l),
(476,59,o),
(474,95,o),
(474,135,cs),
(474,322,ls),
(474,347,o),
(473,375,o),
(471,397,cs),
(462,487,o),
(408,545,o),
(271,545,cs),
(150,545,o),
(63,479,o),
(56,363,c),
(166,363,l),
(172,429,o),
(205,465,o),
(269,465,cs),
(332,465,o),
(359,435,o),
(362,392,cs),
(364,372,o),
(364,354,o),
(364,334,cs),
(364,321,l),
(330,321,ls),
(129,321,o),
(35,257,o),
(35,139,cs),
(35,40,o),
(112,-14,o),
(206,-14,cs),
(256,-14,o),
(302,-5,o),
(338,20,c),
(365,77,l)
);
},
{
closed = 1;
nodes = (
(188,66,o),
(151,92,o),
(151,148,cs),
(151,229,o),
(235,258,o),
(364,248,c),
(364,199,ls),
(364,113,o),
(315,66,o),
(246,66,cs)
);
}
);
width = 545;
}
);
note = atilde;
unicode = 227;
},
{
glyphname = ae;
kernLeft = a;
kernRight = ae;
layers = (
{
hints = (
{
horizontal = 1;
place = (-14, 80);
place = (-14, 80);
type = Stem;
},
{
horizontal = 1;
place = (235, 77);
place = (235, 77);
type = Stem;
},
{
horizontal = 1;
place = (465, 80);
place = (465, 80);
type = Stem;
},
{
place = (35, 116);
place = (35, 116);
type = Stem;
},
{
place = (378, 115);
place = (378, 115);
type = Stem;
},
{
place = (761, 113);
place = (761, 113);
type = Stem;
}
);
layerId = m01;
shapes = (
{
closed = 1;
nodes = (
(874,429,o),
(790,545,o),
(639,545,cs),
(556,545,o),
(492,511,o),
(451,450,c),
(425,511,o),
(369,545,o),
(271,545,cs),
(144,545,o),
(59,479,o),
(56,363,c),
(166,363,l),
(169,429,o),
(205,465,o),
(272,465,cs),
(347,465,o),
(378,415,o),
(378,334,cs),
(378,312,l),
(338,312,ls),
(139,312,o),
(35,261,o),
(35,140,cs),
(35,40,o),
(117,-14,o),
(221,-14,cs),
(279,-14,o),
(335,0,o),
(384,41,c),
(421,103,l),
(463,19,o),
(537,-14,o),
(626,-14,cs),
(742,-14,o),
(842,46,o),
(866,172,c),
(754,172,l),
(743,105,o),
(694,66,o),
(629,66,cs),
(558,66,o),
(500,114,o),
(492,235,c),
(871,235,l),
(873,254,o),
(874,269,o),
(874,279,cs)
);
},
{
closed = 1;
nodes = (
(493,312,l),
(505,413,o),
(557,465,o),
(633,465,cs),
(710,465,o),
(752,410,o),
(761,312,c)
);
},
{
closed = 1;
nodes = (
(378,210,ls),
(378,121,o),
(322,66,o),
(249,66,cs),
(188,66,o),
(151,92,o),
(151,149,cs),
(151,225,o),
(233,241,o),
(378,235,c)
);
}
);
width = 910;
}
);
note = ae;
unicode = 230;
},
{
glyphname = b;
kernLeft = b;
kernRight = b;
layers = (
{
hints = (
{
horizontal = 1;
place = (-14, 80);
place = (-14, 80);
type = Stem;
},
{
horizontal = 1;
place = (465, 80);
place = (465, 80);
type = Stem;
},
{
horizontal = 1;
place = (735, -20);
target = down;
type = TopGhost;
},
{
place = (69, 110);
place = (69, 110);
type = Stem;
},
{
place = (481, 116);
place = (481, 116);
type = Stem;
},
{
horizontal = 1;
place = (0, 21);
target = up;
type = BottomGhost;
}
);
layerId = m01;
shapes = (
{
closed = 1;
nodes = (
(304,545,o),
(249,530,o),
(219,505,c),
(179,448,l),
(179,735,l),
(69,735,l),
(69,0,l),
(179,0,l),
(179,72,l),
(214,19,l),
(241,-2,o),
(296,-14,o),
(340,-14,cs),
(477,-14,o),
(597,80,o),
(597,275,cs),
(597,430,o),
(510,545,o),
(358,545,cs)
);
},
{
closed = 1;
nodes = (
(257,66,o),
(179,114,o),
(179,244,cs),
(179,271,ls),
(179,413,o),
(250,465,o),
(332,465,cs),
(428,465,o),
(481,380,o),
(481,265,cs),
(481,133,o),
(415,66,o),
(327,66,cs)
);
}
);
width = 626;
}
);
note = b;
unicode = 98;
},
{
glyphname = c;
kernLeft = c;
layers = (
{
hints = (
{
horizontal = 1;
place = (-14, 80);
place = (-14, 80);
type = Stem;
},
{
horizontal = 1;
place = (465, 80);
place = (465, 80);
type = Stem;
},
{
place = (29, 116);
place = (29, 116);
type = Stem;
}
);
layerId = m01;
shapes = (
{
closed = 1;
nodes = (
(147,545,o),
(29,444,o),
(29,263,cs),
(29,74,o),
(134,-14,o),
(273,-14,cs),
(398,-14,o),
(490,49,o),
(515,176,c),
(403,176,l),
(387,104,o),
(342,66,o),
(279,66,cs),
(205,66,o),
(145,127,o),
(145,271,cs),
(145,404,o),
(206,465,o),
(283,465,cs),
(348,465,o),
(391,428,o),
(407,347,c),
(518,347,l),
(505,464,o),
(420,545,o),
(286,545,cs)
);
}
);
width = 544;
}
);
note = c;
unicode = 99;
},
{
glyphname = cacute;
kernLeft = c;
layers = (
{
hints = (
{
horizontal = 1;
place = (-14, 80);
place = (-14, 80);
type = Stem;
},
{
horizontal = 1;
place = (465, 80);
place = (465, 80);
type = Stem;
},
{
horizontal = 1;
place = (578, 114);
place = (578, 114);
type = Stem;
},
{
place = (29, 116);
place = (29, 116);
type = Stem;
}
);
layerId = m01;
shapes = (
{
closed = 1;
nodes = (
(302,578,l),
(405,692,l),
(305,692,l),
(236,578,l)
);
},
{
closed = 1;
nodes = (
(147,545,o),
(29,444,o),
(29,263,cs),
(29,74,o),
(134,-14,o),
(273,-14,cs),
(398,-14,o),
(490,49,o),
(515,176,c),
(403,176,l),
(387,104,o),
(342,66,o),
(279,66,cs),
(205,66,o),
(145,127,o),
(145,271,cs),
(145,404,o),
(206,465,o),
(283,465,cs),
(348,465,o),
(391,428,o),
(407,347,c),
(518,347,l),
(505,464,o),
(420,545,o),
(286,545,cs)
);
}
);
width = 544;
}
);
note = cacute;
unicode = 263;
},
{
glyphname = ccaron;
kernLeft = c;
layers = (
{
hints = (
{
horizontal = 1;
place = (-14, 80);
place = (-14, 80);
type = Stem;
},
{
horizontal = 1;
place = (465, 80);
place = (465, 80);
type = Stem;
},
{
horizontal = 1;
place = (578, 114);
place = (578, 114);
type = Stem;
},
{
place = (29, 116);
place = (29, 116);
type = Stem;
}
);
layerId = m01;
shapes = (
{
closed = 1;
nodes = (
(235,578,l),
(316,578,l),
(382,692,l),
(309,692,l),
(276,626,l),
(243,692,l),
(169,692,l)
);
},
{
closed = 1;
nodes = (
(205,66,o),
(145,127,o),
(145,271,cs),
(145,404,o),
(206,465,o),
(283,465,cs),
(348,465,o),
(391,428,o),
(407,347,c),
(518,347,l),
(505,464,o),
(420,545,o),
(286,545,cs),
(147,545,o),
(29,444,o),
(29,263,cs),
(29,74,o),
(134,-14,o),
(273,-14,cs),
(398,-14,o),
(490,49,o),
(515,176,c),
(403,176,l),
(387,104,o),
(342,66,o),
(279,66,cs)
);
}
);
width = 544;
}
);
note = ccaron;
unicode = 269;
},
{
glyphname = ccedilla;
kernLeft = c;
layers = (
{
hints = (
{
horizontal = 1;
place = (-210, 49);
place = (-210, 49);
type = Stem;
},
{
horizontal = 1;
place = (-81, 147);
place = (-81, 147);
type = Stem;
},
{
horizontal = 1;
place = (465, 80);
place = (465, 80);
type = Stem;
},
{
place = (29, 116);
place = (29, 116);
type = Stem;
},
{
place = (293, 70);
place = (293, 70);
type = Stem;
},
{
horizontal = 1;
place = (-11, 21);
target = up;
type = BottomGhost;
}
);
layerId = m01;
shapes = (
{
closed = 1;
nodes = (
(205,66,o),
(145,127,o),
(145,271,cs),
(145,404,o),
(206,465,o),
(283,465,cs),
(348,465,o),
(391,428,o),
(407,347,c),
(518,347,l),
(505,464,o),
(420,545,o),
(286,545,cs),
(147,545,o),
(29,444,o),
(29,263,cs),
(29,92,o),
(114,4,o),
(233,-11,c),
(197,-81,l),
(267,-76,o),
(293,-91,o),
(293,-122,cs),
(293,-146,o),
(273,-161,o),
(231,-161,cs),
(212,-161,o),
(195,-159,o),
(177,-151,c),
(177,-202,l),
(192,-208,o),
(210,-210,o),
(229,-210,cs),
(307,-210,o),
(363,-181,o),
(363,-122,cs),
(363,-76,o),
(334,-48,o),
(279,-41,c),
(293,-13,l),
(408,-7,o),
(491,56,o),
(515,176,c),
(403,176,l),
(387,104,o),
(342,66,o),
(279,66,cs)
);
}
);
width = 544;
}
);
note = ccedilla;
unicode = 231;
},
{
glyphname = cdotaccent;
kernLeft = c;
layers = (
{
hints = (
{
horizontal = 1;
place = (-14, 80);
place = (-14, 80);
type = Stem;
},
{
horizontal = 1;
place = (465, 80);
place = (465, 80);
type = Stem;
},
{
horizontal = 1;
place = (589, 127);
place = (589, 127);
type = Stem;
},
{
place = (29, 116);
place = (29, 116);
type = Stem;
},
{
place = (211, 129);
place = (211, 129);
type = Stem;
}
);
layerId = m01;
shapes = (
{
closed = 1;
nodes = (
(238,716,o),
(211,689,o),
(211,653,cs),
(211,616,o),
(238,589,o),
(275,589,cs),
(312,589,o),
(340,616,o),
(340,653,cs),
(340,689,o),
(312,716,o),
(275,716,cs)
);
},
{
closed = 1;
nodes = (
(147,545,o),
(29,444,o),
(29,263,cs),
(29,74,o),
(134,-14,o),
(273,-14,cs),
(398,-14,o),
(490,49,o),
(515,176,c),
(403,176,l),
(387,104,o),
(342,66,o),
(279,66,cs),
(205,66,o),
(145,127,o),
(145,271,cs),
(145,404,o),
(206,465,o),
(283,465,cs),
(348,465,o),
(391,428,o),
(407,347,c),
(518,347,l),
(505,464,o),
(420,545,o),
(286,545,cs)
);
}
);
width = 544;
}
);
note = cdotaccent;
unicode = 267;
},
{
glyphname = d;
kernLeft = c;
layers = (
{
hints = (
{
horizontal = 1;
place = (-14, 80);
place = (-14, 80);
type = Stem;
},
{
horizontal = 1;
place = (465, 80);
place = (465, 80);
type = Stem;
},
{
horizontal = 1;
place = (735, -20);
target = down;
type = TopGhost;
},
{
place = (29, 116);
place = (29, 116);
type = Stem;
},
{
place = (447, 110);
place = (447, 110);
type = Stem;
},
{
horizontal = 1;
place = (0, 21);
target = up;
type = BottomGhost;
}
);
layerId = m01;
shapes = (
{
closed = 1;
nodes = (
(557,735,l),
(447,735,l),
(447,459,l),
(412,512,l),
(385,533,o),
(330,545,o),
(286,545,cs),
(149,545,o),
(29,451,o),
(29,257,cs),
(29,101,o),
(116,-14,o),
(268,-14,cs),
(322,-14,o),
(377,2,o),
(407,26,c),
(447,84,l),
(447,0,l),
(557,0,l)
);
},
{
closed = 1;
nodes = (
(198,66,o),
(145,151,o),
(145,266,cs),
(145,398,o),
(211,465,o),
(298,465,cs),
(369,465,o),
(447,417,o),
(447,288,cs),
(447,260,ls),
(447,118,o),
(376,66,o),
(293,66,cs)
);
}
);
width = 629;
}
);
note = d;
unicode = 100;
},
{
glyphname = eth;
kernLeft = c;
layers = (
{
hints = (
{
horizontal = 1;
place = (-14, 83);
place = (-14, 83);
type = Stem;
},
{
horizontal = 1;
place = (463, 82);
place = (463, 82);
type = Stem;
},
{
horizontal = 1;
place = (745, -20);
target = down;
type = TopGhost;
},
{
place = (29, 117);
place = (29, 117);
type = Stem;
},
{
place = (442, 116);
place = (442, 116);
type = Stem;
}
);
layerId = m01;
shapes = (
{
closed = 1;
nodes = (
(511,652,l),
(493,710,l),
(421,685,l),
(392,709,o),
(358,728,o),
(319,745,c),
(240,687,l),
(269,676,o),
(294,664,o),
(316,650,c),
(215,615,l),
(233,558,l),
(370,604,l),
(406,565,o),
(426,516,o),
(432,457,c),
(387,516,l),
(350,538,o),
(320,545,o),
(276,545,cs),
(144,545,o),
(29,440,o),
(29,260,cs),
(29,102,o),
(115,-14,o),
(290,-14,cs),
(427,-14,o),
(558,72,o),
(558,307,cs),
(558,453,o),
(532,560,o),
(469,638,c)
);
},
{
closed = 1;
nodes = (
(442,260,ls),
(442,132,o),
(379,69,o),
(294,69,cs),
(197,69,o),
(146,142,o),
(146,267,cs),
(146,384,o),
(204,463,o),
(294,463,cs),
(367,463,o),
(442,411,o),
(442,289,cs)
);
}
);
width = 604;
}
);
note = eth;
unicode = 240;
},
{
glyphname = dcaron;
kernLeft = c;
layers = (
{
hints = (
{
horizontal = 1;
place = (-14, 80);
place = (-14, 80);
type = Stem;
},
{
horizontal = 1;
place = (465, 80);
place = (465, 80);
type = Stem;
},
{
horizontal = 1;
place = (583, 153);
place = (583, 153);
type = Stem;
},
{
place = (29, 116);
place = (29, 116);
type = Stem;
},
{
place = (447, 110);
place = (447, 110);
type = Stem;
},
{
horizontal = 1;
place = (583, 152);
place = (583, 152);
type = Stem;
},
{
horizontal = 1;
place = (0, 21);
target = up;
type = BottomGhost;
}
);
layerId = m01;
shapes = (
{
closed = 1;
nodes = (
(723,736,l),
(642,736,l),
(582,583,l),
(652,583,l),
(723,724,l)
);
},
{
closed = 1;
nodes = (
(447,735,l),
(447,459,l),
(412,512,l),
(385,533,o),
(330,545,o),
(286,545,cs),
(149,545,o),
(29,451,o),
(29,257,cs),
(29,101,o),
(116,-14,o),
(268,-14,cs),
(322,-14,o),
(377,2,o),
(407,26,c),
(447,84,l),
(447,0,l),
(557,0,l),
(557,735,l)
);
},
{
closed = 1;
nodes = (
(198,66,o),
(145,151,o),
(145,266,cs),
(145,398,o),
(211,465,o),
(298,465,cs),
(369,465,o),
(447,417,o),
(447,288,cs),
(447,260,ls),
(447,118,o),
(376,66,o),
(293,66,cs)
);
}
);
width = 629;
}
);
note = dcaron;
unicode = 271;
},
{
glyphname = dcroat;
kernLeft = c;
layers = (
{
hints = (
{
horizontal = 1;
place = (-14, 80);
place = (-14, 80);
type = Stem;
},
{
horizontal = 1;
place = (465, 80);
place = (465, 80);
type = Stem;
},
{
horizontal = 1;
place = (590, 145);
place = (590, 145);
type = Stem;
},
{
place = (29, 116);
place = (29, 116);
type = Stem;
},
{
place = (447, 110);
place = (447, 110);
type = Stem;
},
{
horizontal = 1;
place = (590, 66);
place = (590, 66);
type = Stem;
},
{
horizontal = 1;
place = (0, 21);
target = up;
type = BottomGhost;
}
);
layerId = m01;
shapes = (
{
closed = 1;
nodes = (
(600,590,l),
(600,656,l),
(557,656,l),
(557,735,l),
(447,735,l),
(447,656,l),
(330,656,l),
(330,590,l),
(447,590,l),
(447,459,l),
(412,512,l),
(385,533,o),
(330,545,o),
(286,545,cs),
(149,545,o),
(29,451,o),
(29,257,cs),
(29,101,o),
(116,-14,o),
(268,-14,cs),
(322,-14,o),
(377,2,o),
(407,26,c),
(447,84,l),
(447,0,l),
(557,0,l),
(557,590,l)
);
},
{
closed = 1;
nodes = (
(198,66,o),
(145,151,o),
(145,266,cs),
(145,398,o),
(211,465,o),
(298,465,cs),
(369,465,o),
(447,417,o),
(447,288,cs),
(447,260,ls),
(447,118,o),
(376,66,o),
(293,66,cs)
);
}
);
width = 632;
}
);
note = dcroat;
unicode = 273;
},
{
glyphname = e;
kernLeft = c;
kernRight = ae;
layers = (
{
hints = (
{
horizontal = 1;
place = (-14, 80);
place = (-14, 80);
type = Stem;
},
{
horizontal = 1;
place = (235, 77);
place = (235, 77);
type = Stem;
},
{
horizontal = 1;
place = (465, 80);
place = (465, 80);
type = Stem;
},
{
place = (29, 115);
place = (29, 115);
type = Stem;
},
{
place = (413, 113);
place = (413, 113);
type = Stem;
}
);
layerId = m01;
shapes = (
{
closed = 1;
nodes = (
(526,429,o),
(443,545,o),
(289,545,cs),
(136,545,o),
(29,432,o),
(29,264,cs),
(29,76,o),
(136,-14,o),
(278,-14,cs),
(394,-14,o),
(495,46,o),
(518,172,c),
(407,172,l),
(396,105,o),
(346,66,o),
(282,66,cs),
(210,66,o),
(152,108,o),
(143,235,c),
(524,235,l),
(526,254,o),
(526,269,o),
(526,279,cs)
);
},
{
closed = 1;
nodes = (
(362,465,o),
(405,410,o),
(413,312,c),
(144,312,l),
(156,414,o),
(210,465,o),
(285,465,cs)
);
}
);
width = 562;
}
);
note = e;
unicode = 101;
},
{
glyphname = eacute;
kernLeft = c;
kernRight = ae;
layers = (
{
hints = (
{
horizontal = 1;
place = (-14, 80);
place = (-14, 80);
type = Stem;
},
{
horizontal = 1;
place = (235, 77);
place = (235, 77);
type = Stem;
},
{
horizontal = 1;
place = (465, 80);
place = (465, 80);
type = Stem;
},
{
horizontal = 1;
place = (578, 114);
place = (578, 114);
type = Stem;
},
{
place = (29, 115);
place = (29, 115);
type = Stem;
},
{
place = (413, 113);
place = (413, 113);
type = Stem;
}
);
layerId = m01;
shapes = (
{
closed = 1;
nodes = (
(310,578,l),
(413,692,l),
(313,692,l),
(244,578,l)
);
},
{
closed = 1;
nodes = (
(526,429,o),
(443,545,o),
(289,545,cs),
(136,545,o),
(29,432,o),
(29,264,cs),
(29,76,o),
(136,-14,o),
(278,-14,cs),
(394,-14,o),
(495,46,o),
(518,172,c),
(407,172,l),
(396,105,o),
(346,66,o),
(282,66,cs),
(210,66,o),
(152,108,o),
(143,235,c),
(524,235,l),
(526,254,o),
(526,269,o),
(526,279,cs)
);
},
{
closed = 1;
nodes = (
(362,465,o),
(405,410,o),
(413,312,c),
(144,312,l),
(156,414,o),
(210,465,o),
(285,465,cs)
);
}
);
width = 562;
}
);
note = eacute;
unicode = 233;
},
{
glyphname = ecaron;
kernLeft = c;
kernRight = ae;
layers = (
{
hints = (
{
horizontal = 1;
place = (-14, 80);
place = (-14, 80);
type = Stem;
},
{
horizontal = 1;
place = (235, 77);
place = (235, 77);
type = Stem;
},
{
horizontal = 1;
place = (465, 80);
place = (465, 80);
type = Stem;
},
{
horizontal = 1;
place = (578, 114);
place = (578, 114);
type = Stem;
},
{
place = (29, 115);
place = (29, 115);
type = Stem;
},
{
place = (413, 113);
place = (413, 113);
type = Stem;
}
);
layerId = m01;
shapes = (
{
closed = 1;
nodes = (
(243,578,l),
(324,578,l),
(390,692,l),
(317,692,l),
(284,626,l),
(251,692,l),
(177,692,l)
);
},
{
closed = 1;
nodes = (
(526,429,o),
(443,545,o),
(289,545,cs),
(136,545,o),
(29,432,o),
(29,264,cs),
(29,76,o),
(136,-14,o),
(278,-14,cs),
(394,-14,o),
(495,46,o),
(518,172,c),
(407,172,l),
(396,105,o),
(346,66,o),
(282,66,cs),
(210,66,o),
(152,108,o),
(143,235,c),
(524,235,l),
(526,254,o),
(526,269,o),
(526,279,cs)
);
},
{
closed = 1;
nodes = (
(362,465,o),
(405,410,o),
(413,312,c),
(144,312,l),
(156,414,o),
(210,465,o),
(285,465,cs)
);
}
);
width = 562;
}
);
note = ecaron;
unicode = 283;
},
{
glyphname = ecircumflex;
kernLeft = c;
kernRight = ae;
layers = (
{
hints = (
{
horizontal = 1;
place = (-14, 80);
place = (-14, 80);
type = Stem;
},
{
horizontal = 1;
place = (235, 77);
place = (235, 77);
type = Stem;
},
{
horizontal = 1;
place = (465, 80);
place = (465, 80);
type = Stem;
},
{
horizontal = 1;
place = (578, 114);
place = (578, 114);
type = Stem;
},
{
place = (29, 115);
place = (29, 115);
type = Stem;
},
{
place = (413, 113);
place = (413, 113);
type = Stem;
},
{
horizontal = 1;
place = (643, 49);
place = (643, 49);
type = Stem;
}
);
layerId = m01;
shapes = (
{
closed = 1;
nodes = (
(250,578,l),
(283,643,l),
(316,578,l),
(390,578,l),
(324,692,l),
(243,692,l),
(177,578,l)
);
},
{
closed = 1;
nodes = (
(526,429,o),
(443,545,o),
(289,545,cs),
(136,545,o),
(29,432,o),
(29,264,cs),
(29,76,o),
(136,-14,o),
(278,-14,cs),
(394,-14,o),
(495,46,o),
(518,172,c),
(407,172,l),
(396,105,o),
(346,66,o),
(282,66,cs),
(210,66,o),
(152,108,o),
(143,235,c),
(524,235,l),
(526,254,o),
(526,269,o),
(526,279,cs)
);
},
{
closed = 1;
nodes = (
(362,465,o),
(405,410,o),
(413,312,c),
(144,312,l),
(156,414,o),
(210,465,o),
(285,465,cs)
);
}
);
width = 562;
}
);
note = ecircumflex;
unicode = 234;
},
{
glyphname = edieresis;
kernLeft = c;
kernRight = ae;
lastChange = "2022-11-25 15:30:47 +0000";
layers = (
{
hints = (
{
horizontal = 1;
place = (-14, 80);
place = (-14, 80);
type = Stem;
},
{
horizontal = 1;
place = (235, 77);
place = (235, 77);
type = Stem;
},
{
horizontal = 1;
place = (465, 80);
place = (465, 80);
type = Stem;
},
{
horizontal = 1;
place = (580, 105);
place = (580, 105);
type = Stem;
},
{
place = (150, 107);
place = (150, 107);
type = Stem;
},
{
place = (310, 106);
place = (310, 106);
type = Stem;
},
{
place = (29, 115);
place = (29, 115);
type = Stem;
},
{
place = (413, 113);
place = (413, 113);
type = Stem;
}
);
layerId = m01;
shapes = (
{
closed = 1;
nodes = (
(526,429,o),
(443,545,o),
(289,545,cs),
(136,545,o),
(29,432,o),
(29,264,cs),
(29,76,o),
(136,-14,o),
(278,-14,cs),
(394,-14,o),
(495,46,o),
(518,172,c),
(407,172,l),
(396,105,o),
(346,66,o),
(282,66,cs),
(210,66,o),
(152,108,o),
(143,235,c),
(524,235,l),
(526,254,o),
(526,269,o),
(526,279,cs)
);
},
{
closed = 1;
nodes = (
(362,465,o),
(405,410,o),
(413,312,c),
(144,312,l),
(156,414,o),
(210,465,o),
(285,465,cs)
);
},
{
closed = 1;
nodes = (
(155,580,l),
(263,580,l),
(263,686,l),
(155,686,l)
);
},
{
closed = 1;
nodes = (
(310,580,l),
(418,580,l),
(418,686,l),
(310,686,l)
);
}
);
width = 562;
}
);
note = edieresis;
unicode = 235;
},
{
glyphname = edotaccent;
kernLeft = c;
kernRight = ae;
layers = (
{
hints = (
{
horizontal = 1;
place = (-14, 80);
place = (-14, 80);
type = Stem;
},
{
horizontal = 1;
place = (235, 77);
place = (235, 77);
type = Stem;
},
{
horizontal = 1;
place = (465, 80);
place = (465, 80);
type = Stem;
},
{
horizontal = 1;
place = (589, 127);
place = (589, 127);
type = Stem;
},
{
place = (29, 115);
place = (29, 115);
type = Stem;
},
{
place = (219, 129);
place = (219, 129);
type = Stem;
},
{
place = (413, 113);
place = (413, 113);
type = Stem;
}
);
layerId = m01;
shapes = (
{
closed = 1;
nodes = (
(320,589,o),
(348,616,o),
(348,653,cs),
(348,689,o),
(320,716,o),
(283,716,cs),
(246,716,o),
(219,689,o),
(219,653,cs),
(219,616,o),
(246,589,o),
(283,589,cs)
);
},
{
closed = 1;
nodes = (
(526,429,o),
(443,545,o),
(289,545,cs),
(136,545,o),
(29,432,o),
(29,264,cs),
(29,76,o),
(136,-14,o),
(278,-14,cs),
(394,-14,o),
(495,46,o),
(518,172,c),
(407,172,l),
(396,105,o),
(346,66,o),
(282,66,cs),
(210,66,o),
(152,108,o),
(143,235,c),
(524,235,l),
(526,254,o),
(526,269,o),
(526,279,cs)
);
},
{
closed = 1;
nodes = (
(362,465,o),
(405,410,o),
(413,312,c),
(144,312,l),
(156,414,o),
(210,465,o),
(285,465,cs)
);
}
);
width = 562;
}
);
note = edotaccent;
unicode = 279;
},
{
glyphname = egrave;
kernLeft = c;
kernRight = ae;
layers = (
{
hints = (
{
horizontal = 1;
place = (-14, 80);
place = (-14, 80);
type = Stem;
},
{
horizontal = 1;
place = (235, 77);
place = (235, 77);
type = Stem;
},
{
horizontal = 1;
place = (465, 80);
place = (465, 80);
type = Stem;
},
{
horizontal = 1;
place = (578, 114);
place = (578, 114);
type = Stem;
},
{
place = (29, 115);
place = (29, 115);
type = Stem;
},
{
place = (413, 113);
place = (413, 113);
type = Stem;
}
);
layerId = m01;
shapes = (
{
closed = 1;
nodes = (
(258,578,l),
(324,578,l),
(256,692,l),
(156,692,l)
);
},
{
closed = 1;
nodes = (
(526,429,o),
(443,545,o),
(289,545,cs),
(136,545,o),
(29,432,o),
(29,264,cs),
(29,76,o),
(136,-14,o),
(278,-14,cs),
(394,-14,o),
(495,46,o),
(518,172,c),
(407,172,l),
(396,105,o),
(346,66,o),
(282,66,cs),
(210,66,o),
(152,108,o),
(143,235,c),
(524,235,l),
(526,254,o),
(526,269,o),
(526,279,cs)
);
},
{
closed = 1;
nodes = (
(362,465,o),
(405,410,o),
(413,312,c),
(144,312,l),
(156,414,o),
(210,465,o),
(285,465,cs)
);
}
);
width = 562;
}
);
note = egrave;
unicode = 232;
},
{
glyphname = emacron;
kernLeft = c;
kernRight = ae;
layers = (
{
hints = (
{
horizontal = 1;
place = (-14, 80);
place = (-14, 80);
type = Stem;
},
{
horizontal = 1;
place = (235, 77);
place = (235, 77);
type = Stem;
},
{
horizontal = 1;
place = (465, 80);
place = (465, 80);
type = Stem;
},
{
horizontal = 1;
place = (600, 63);
place = (600, 63);
type = Stem;
},
{
place = (29, 115);
place = (29, 115);
type = Stem;
},
{
place = (156, 255);
place = (156, 255);
type = Stem;
},
{
place = (413, 113);
place = (413, 113);
type = Stem;
}
);
layerId = m01;
shapes = (
{
closed = 1;
nodes = (
(411,600,l),
(411,663,l),
(156,663,l),
(156,600,l)
);
},
{
closed = 1;
nodes = (
(526,429,o),
(443,545,o),
(289,545,cs),
(136,545,o),
(29,432,o),
(29,264,cs),
(29,76,o),
(136,-14,o),
(278,-14,cs),
(394,-14,o),
(495,46,o),
(518,172,c),
(407,172,l),
(396,105,o),
(346,66,o),
(282,66,cs),
(210,66,o),
(152,108,o),
(143,235,c),
(524,235,l),
(526,254,o),
(526,269,o),
(526,279,cs)
);
},
{
closed = 1;
nodes = (
(362,465,o),
(405,410,o),
(413,312,c),
(144,312,l),
(156,414,o),
(210,465,o),
(285,465,cs)
);
}
);
width = 562;
}
);
note = emacron;
unicode = 275;
},
{
glyphname = eogonek;
kernLeft = c;
kernRight = ae;
layers = (
{
hints = (
{
horizontal = 1;
place = (-223, 66);
place = (-223, 66);
type = Stem;
},
{
horizontal = 1;
place = (-13, 79);
place = (-13, 79);
type = Stem;
},
{
horizontal = 1;
place = (235, 77);
place = (235, 77);
type = Stem;
},
{
horizontal = 1;
place = (465, 80);
place = (465, 80);
type = Stem;
},
{
place = (29, 115);
place = (29, 115);
type = Stem;
},
{
place = (186, 102);
place = (186, 102);
type = Stem;
},
{
place = (413, 113);
place = (413, 113);
type = Stem;
}
);
layerId = m01;
shapes = (
{
closed = 1;
nodes = (
(526,429,o),
(443,545,o),
(289,545,cs),
(136,545,o),
(29,432,o),
(29,264,cs),
(29,88,o),
(123,-2,o),
(252,-13,c),
(215,-41,o),
(186,-84,o),
(186,-138,cs),
(186,-201,o),
(226,-223,o),
(284,-223,cs),
(325,-223,o),
(359,-212,o),
(385,-192,c),
(385,-137,l),
(367,-151,o),
(350,-157,o),
(332,-157,cs),
(305,-157,o),
(288,-144,o),
(288,-107,cs),
(288,-58,o),
(316,-20,o),
(351,-5,c),
(357,-4,o),
(363,-2,o),
(370,0,cs),
(444,24,o),
(501,81,o),
(518,172,c),
(407,172,l),
(396,105,o),
(346,66,o),
(282,66,cs),
(210,66,o),
(152,108,o),
(143,235,c),
(524,235,l),
(526,254,o),
(526,269,o),
(526,279,cs)
);
},
{
closed = 1;
nodes = (
(362,465,o),
(405,410,o),
(413,312,c),
(144,312,l),
(156,414,o),
(210,465,o),
(285,465,cs)
);
}
);
width = 562;
}
);
note = eogonek;
unicode = 281;
},
{
glyphname = f;
layers = (
{
hints = (
{
horizontal = 1;
place = (0, 21);
target = up;
type = BottomGhost;
},
{
horizontal = 1;
place = (450, 77);
place = (450, 77);
type = Stem;
},
{
horizontal = 1;
place = (669.75, 78.25);
place = (669.75, 78.25);
type = Stem;
},
{
place = (78, 109);
place = (78, 109);
type = Stem;
}
);
layerId = m01;
shapes = (
{
closed = 1;
nodes = (
(196,662,o),
(240,678,o),
(305,666,c),
(305,748,l),
(287,752,o),
(266,754,o),
(244,754,cs),
(144,754,o),
(89,706,o),
(80,624,cs),
(78,606,o),
(78,580,o),
(78,561,cs),
(78,527,l),
(21,527,l),
(21,450,l),
(78,450,l),
(78,0,l),
(187,0,l),
(187,450,l),
(296,450,l),
(296,527,l),
(187,527,l),
(187,567,ls),
(187,582,o),
(188,604,o),
(190,618,cs)
);
}
);
width = 312;
}
);
note = f;
unicode = 102;
},
{
glyphname = g;
kernLeft = c;
layers = (
{
hints = (
{
horizontal = 1;
place = (-213, 83);
place = (-213, 83);
type = Stem;
},
{
horizontal = 1;
place = (-9, 80);
place = (-9, 80);
type = Stem;
},
{
horizontal = 1;
place = (531, -20);
target = down;
type = TopGhost;
},
{
place = (29, 116);
place = (29, 116);
type = Stem;
},
{
place = (447, 110);
place = (447, 110);
type = Stem;
},
{
horizontal = 1;
place = (465, 80);
place = (465, 80);
type = Stem;
},
{
place = (45, 108);
place = (45, 108);
type = Stem;
}
);
layerId = m01;
shapes = (
{
closed = 1;
nodes = (
(557,531,l),
(447,531,l),
(447,459,l),
(412,512,l),
(385,533,o),
(330,545,o),
(286,545,cs),
(149,545,o),
(29,453,o),
(29,259,cs),
(29,103,o),
(118,-9,o),
(271,-9,cs),
(325,-9,o),
(377,7,o),
(407,31,c),
(447,89,l),
(447,78,ls),
(447,59,o),
(447,40,o),
(446,17,cs),
(442,-78,o),
(387,-130,o),
(291,-130,cs),
(209,-130,o),
(160,-91,o),
(153,-34,cs),
(152,-25,l),
(44,-25,l),
(45,-35,ls),
(56,-149,o),
(137,-213,o),
(290,-213,cs),
(450,-213,o),
(550,-132,o),
(556,29,cs),
(557,58,o),
(557,99,o),
(557,132,cs)
);
},
{
closed = 1;
nodes = (
(198,71,o),
(145,154,o),
(145,269,cs),
(145,401,o),
(211,465,o),
(298,465,cs),
(369,465,o),
(447,417,o),
(447,288,cs),
(447,265,ls),
(447,123,o),
(376,71,o),
(293,71,cs)
);
}
);
width = 629;
}
);
note = g;
unicode = 103;
},
{
glyphname = gbreve;
kernLeft = c;
layers = (
{
hints = (
{
horizontal = 1;
place = (-213, 83);
place = (-213, 83);
type = Stem;
},
{
horizontal = 1;
place = (-9, 80);
place = (-9, 80);
type = Stem;
},
{
horizontal = 1;
place = (465, 80);
place = (465, 80);
type = Stem;
},
{
horizontal = 1;
place = (567, 125);
place = (567, 125);
type = Stem;
},
{
place = (29, 116);
place = (29, 116);
type = Stem;
},
{
place = (200, 62);
place = (200, 62);
type = Stem;
},
{
place = (358, 62);
place = (358, 62);
type = Stem;
},
{
place = (447, 110);
place = (447, 110);
type = Stem;
},
{
horizontal = 1;
place = (567, 62);
place = (567, 62);
type = Stem;
},
{
horizontal = 1;
place = (531, -20);
target = down;
type = TopGhost;
},
{
place = (45, 108);
place = (45, 108);
type = Stem;
}
);
layerId = m01;
shapes = (
{
closed = 1;
nodes = (
(381,567,o),
(420,605,o),
(420,692,c),
(358,692,l),
(357,646,o),
(339,629,o),
(310,629,cs),
(281,629,o),
(263,646,o),
(262,692,c),
(200,692,l),
(200,605,o),
(238,567,o),
(310,567,cs)
);
},
{
closed = 1;
nodes = (
(557,531,l),
(447,531,l),
(447,459,l),
(412,512,l),
(385,533,o),
(330,545,o),
(286,545,cs),
(149,545,o),
(29,453,o),
(29,259,cs),
(29,103,o),
(118,-9,o),
(271,-9,cs),
(325,-9,o),
(377,7,o),
(407,31,c),
(447,89,l),
(447,78,ls),
(447,59,o),
(447,40,o),
(446,17,cs),
(442,-78,o),
(387,-130,o),
(291,-130,cs),
(209,-130,o),
(160,-91,o),
(153,-34,cs),
(152,-25,l),
(44,-25,l),
(45,-35,ls),
(56,-149,o),
(137,-213,o),
(290,-213,cs),
(450,-213,o),
(550,-132,o),
(556,29,cs),
(557,58,o),
(557,99,o),
(557,132,cs)
);
},
{
closed = 1;
nodes = (
(198,71,o),
(145,154,o),
(145,269,cs),
(145,401,o),
(211,465,o),
(298,465,cs),
(369,465,o),
(447,417,o),
(447,288,cs),
(447,265,ls),
(447,123,o),
(376,71,o),
(293,71,cs)
);
}
);
width = 629;
}
);
note = gbreve;
unicode = 287;
},
{
glyphname = gcommaaccent;
kernLeft = c;
layers = (
{
hints = (
{
horizontal = 1;
place = (-213, 83);
place = (-213, 83);
type = Stem;
},
{
horizontal = 1;
place = (-9, 80);
place = (-9, 80);
type = Stem;
},
{
horizontal = 1;
place = (465, 80);
place = (465, 80);
type = Stem;
},
{
horizontal = 1;
place = (578, 152);
place = (578, 152);
type = Stem;
},
{
place = (29, 116);
place = (29, 116);
type = Stem;
},
{
place = (447, 110);
place = (447, 110);
type = Stem;
},
{
horizontal = 1;
place = (531, -20);
target = down;
type = TopGhost;
},
{
place = (45, 108);
place = (45, 108);
type = Stem;
}
);
layerId = m01;
shapes = (
{
closed = 1;
nodes = (
(343,578,l),
(403,730,l),
(333,730,l),
(263,589,l),
(263,578,l)
);
},
{
closed = 1;
nodes = (
(557,531,l),
(447,531,l),
(447,459,l),
(412,512,l),
(385,533,o),
(330,545,o),
(286,545,cs),
(149,545,o),
(29,453,o),
(29,259,cs),
(29,103,o),
(118,-9,o),
(271,-9,cs),
(325,-9,o),
(377,7,o),
(407,31,c),
(447,89,l),
(447,78,ls),
(447,59,o),
(447,40,o),
(446,17,cs),
(442,-78,o),
(387,-130,o),
(291,-130,cs),
(209,-130,o),
(160,-91,o),
(153,-34,cs),
(152,-25,l),
(44,-25,l),
(45,-35,ls),
(56,-149,o),
(137,-213,o),
(290,-213,cs),
(450,-213,o),
(550,-132,o),
(556,29,cs),
(557,58,o),
(557,99,o),
(557,132,cs)
);
},
{
closed = 1;
nodes = (
(198,71,o),
(145,154,o),
(145,269,cs),
(145,401,o),
(211,465,o),
(298,465,cs),
(369,465,o),
(447,417,o),
(447,288,cs),
(447,265,ls),
(447,123,o),
(376,71,o),
(293,71,cs)
);
}
);
width = 629;
}
);
note = gcommaaccent;
unicode = 291;
},
{
glyphname = gdotaccent;
kernLeft = c;
layers = (
{
hints = (
{
horizontal = 1;
place = (-213, 83);
place = (-213, 83);
type = Stem;
},
{
horizontal = 1;
place = (-9, 80);
place = (-9, 80);
type = Stem;
},
{
horizontal = 1;
place = (465, 80);
place = (465, 80);
type = Stem;
},
{
horizontal = 1;
place = (589, 127);
place = (589, 127);
type = Stem;
},
{
place = (29, 116);
place = (29, 116);
type = Stem;
},
{
place = (246, 129);
place = (246, 129);
type = Stem;
},
{
place = (447, 110);
place = (447, 110);
type = Stem;
},
{
horizontal = 1;
place = (531, -20);
target = down;
type = TopGhost;
},
{
place = (45, 108);
place = (45, 108);
type = Stem;
}
);
layerId = m01;
shapes = (
{
closed = 1;
nodes = (
(347,589,o),
(375,616,o),
(375,653,cs),
(375,689,o),
(347,716,o),
(310,716,cs),
(273,716,o),
(246,689,o),
(246,653,cs),
(246,616,o),
(273,589,o),
(310,589,cs)
);
},
{
closed = 1;
nodes = (
(557,531,l),
(447,531,l),
(447,459,l),
(412,512,l),
(385,533,o),
(330,545,o),
(286,545,cs),
(149,545,o),
(29,453,o),
(29,259,cs),
(29,103,o),
(118,-9,o),
(271,-9,cs),
(325,-9,o),
(377,7,o),
(407,31,c),
(447,89,l),
(447,78,ls),
(447,59,o),
(447,40,o),
(446,17,cs),
(442,-78,o),
(387,-130,o),
(291,-130,cs),
(209,-130,o),
(160,-91,o),
(153,-34,cs),
(152,-25,l),
(44,-25,l),
(45,-35,ls),
(56,-149,o),
(137,-213,o),
(290,-213,cs),
(450,-213,o),
(550,-132,o),
(556,29,cs),
(557,58,o),
(557,99,o),
(557,132,cs)
);
},
{
closed = 1;
nodes = (
(198,71,o),
(145,154,o),
(145,269,cs),
(145,401,o),
(211,465,o),
(298,465,cs),
(369,465,o),
(447,417,o),
(447,288,cs),
(447,265,ls),
(447,123,o),
(376,71,o),
(293,71,cs)
);
}
);
width = 629;
}
);
note = gdotaccent;
unicode = 289;
},
{
glyphname = h;
kernLeft = b;
layers = (
{
hints = (
{
horizontal = 1;
place = (0, 21);
target = up;
type = BottomGhost;
},
{
horizontal = 1;
place = (464, 81);
place = (464, 81);
type = Stem;
},
{
horizontal = 1;
place = (740, -20);
target = down;
type = TopGhost;
},
{
place = (69, 110);
place = (69, 110);
type = Stem;
},
{
place = (431, 110);
place = (431, 110);
type = Stem;
}
);
layerId = m01;
shapes = (
{
closed = 1;
nodes = (
(528,486,o),
(463,545,o),
(349,545,cs),
(296,545,o),
(257,536,o),
(215,504,c),
(179,443,l),
(179,740,l),
(69,740,l),
(69,0,l),
(179,0,l),
(179,238,ls),
(179,404,o),
(241,462,o),
(317,464,cs),
(392,465,o),
(424,422,o),
(429,362,cs),
(431,335,o),
(431,312,o),
(431,287,cs),
(431,0,l),
(541,0,l),
(541,299,ls),
(541,342,o),
(540,366,o),
(538,393,cs)
);
}
);
width = 606;
}
);
note = h;
unicode = 104;
},
{
glyphname = hbar;
layers = (
{
hints = (
{
horizontal = 1;
place = (0, 21);
target = up;
type = BottomGhost;
},
{
horizontal = 1;
place = (464, 81);
place = (464, 81);
type = Stem;
},
{
horizontal = 1;
place = (590, 150);
place = (590, 150);
type = Stem;
},
{
place = (84, 110);
place = (84, 110);
type = Stem;
},
{
place = (446, 110);
place = (446, 110);
type = Stem;
},
{
horizontal = 1;
place = (590, 66);
place = (590, 66);
type = Stem;
}
);
layerId = m01;
shapes = (
{
closed = 1;
nodes = (
(543,486,o),
(478,545,o),
(364,545,cs),
(311,545,o),
(272,536,o),
(230,504,c),
(194,443,l),
(194,590,l),
(299,590,l),
(299,656,l),
(194,656,l),
(194,740,l),
(84,740,l),
(84,656,l),
(29,656,l),
(29,590,l),
(84,590,l),
(84,0,l),
(194,0,l),
(194,238,ls),
(194,404,o),
(256,462,o),
(332,464,cs),
(407,465,o),
(439,422,o),
(444,362,cs),
(446,335,o),
(446,312,o),
(446,287,cs),
(446,0,l),
(556,0,l),
(556,299,ls),
(556,342,o),
(555,366,o),
(553,393,cs)
);
}
);
width = 621;
}
);
note = hbar;
unicode = 295;
},
{
glyphname = i;
kernLeft = i;
lastChange = "2022-11-25 16:19:56 +0000";
layers = (
{
hints = (
{
horizontal = 1;
place = (0, 21);
target = up;
type = BottomGhost;
},
{
horizontal = 1;
place = (531, -20);
target = down;
type = TopGhost;
},
{
horizontal = 1;
place = (589, 127);
place = (589, 127);
type = Stem;
},
{
place = (60, 129);
place = (60, 129);
type = Stem;
},
{
place = (69, 110);
place = (69, 110);
type = Stem;
}
);
layerId = m01;
shapes = (
{
closed = 1;
nodes = (
(179,0,l),
(179,531,l),
(69,531,l),
(69,0,l)
);
},
{
closed = 1;
nodes = (
(69,589,l),
(180,589,l),
(180,716,l),
(69,716,l)
);
}
);
width = 251;
}
);
note = i;
unicode = 105;
},
{
glyphname = dotlessi;
kernLeft = i;
layers = (
{
hints = (
{
horizontal = 1;
place = (0, 21);
target = up;
type = BottomGhost;
},
{
horizontal = 1;
place = (531, -20);
target = down;
type = TopGhost;
},
{
place = (69, 110);
place = (69, 110);
type = Stem;
}
);
layerId = m01;
shapes = (
{
closed = 1;
nodes = (
(179,0,l),
(179,531,l),
(69,531,l),
(69,0,l)
);
}
);
width = 251;
}
);
note = dotlessi;
unicode = 305;
},
{
glyphname = iacute;
kernLeft = i;
layers = (
{
hints = (
{
horizontal = 1;
place = (0, 21);
target = up;
type = BottomGhost;
},
{
horizontal = 1;
place = (531, -20);
target = down;
type = TopGhost;
},
{
horizontal = 1;
place = (578, 114);
place = (578, 114);
type = Stem;
},
{
place = (69, 110);
place = (69, 110);
type = Stem;
}
);
layerId = m01;
shapes = (
{
closed = 1;
nodes = (
(151,578,l),
(254,692,l),
(154,692,l),
(85,578,l)
);
},
{
closed = 1;
nodes = (
(179,0,l),
(179,531,l),
(69,531,l),
(69,0,l)
);
}
);
width = 251;
}
);
note = iacute;
unicode = 237;
},
{
glyphname = icircumflex;
kernLeft = i;
layers = (
{
hints = (
{
horizontal = 1;
place = (0, 21);
target = up;
type = BottomGhost;
},
{
horizontal = 1;
place = (531, -20);
target = down;
type = TopGhost;
},
{
horizontal = 1;
place = (578, 114);
place = (578, 114);
type = Stem;
},
{
place = (69, 110);
place = (69, 110);
type = Stem;
},
{
horizontal = 1;
place = (643, 49);
place = (643, 49);
type = Stem;
}
);
layerId = m01;
shapes = (
{
closed = 1;
nodes = (
(91,578,l),
(124,643,l),
(157,578,l),
(231,578,l),
(165,692,l),
(84,692,l),
(18,578,l)
);
},
{
closed = 1;
nodes = (
(69,531,l),
(69,0,l),
(179,0,l),
(179,531,l)
);
}
);
width = 251;
}
);
note = icircumflex;
unicode = 238;
},
{
glyphname = idieresis;
kernLeft = i;
lastChange = "2022-11-25 15:30:58 +0000";
layers = (
{
hints = (
{
horizontal = 1;
place = (0, 21);
target = up;
type = BottomGhost;
},
{
horizontal = 1;
place = (531, -20);
target = down;
type = TopGhost;
},
{
horizontal = 1;
place = (580, 105);
place = (580, 105);
type = Stem;
},
{
place = (-9, 107);
place = (-9, 107);
type = Stem;
},
{
place = (151, 106);
place = (151, 106);
type = Stem;
},
{
place = (69, 110);
place = (69, 110);
type = Stem;
}
);
layerId = m01;
shapes = (
{
closed = 1;
nodes = (
(179,0,l),
(179,531,l),
(69,531,l),
(69,0,l)
);
},
{
closed = 1;
nodes = (
(-6,582,l),
(102,582,l),
(102,688,l),
(-6,688,l)
);
},
{
closed = 1;
nodes = (
(149,582,l),
(257,582,l),
(257,688,l),
(149,688,l)
);
}
);
width = 251;
}
);
note = idieresis;
unicode = 239;
},
{
glyphname = igrave;
kernLeft = i;
layers = (
{
hints = (
{
horizontal = 1;
place = (0, 21);
target = up;
type = BottomGhost;
},
{
horizontal = 1;
place = (531, -20);
target = down;
type = TopGhost;
},
{
horizontal = 1;
place = (578, 114);
place = (578, 114);
type = Stem;
},
{
place = (69, 110);
place = (69, 110);
type = Stem;
}
);
layerId = m01;
shapes = (
{
closed = 1;
nodes = (
(165,578,l),
(97,692,l),
(-3,692,l),
(99,578,l)
);
},
{
closed = 1;
nodes = (
(179,0,l),
(179,531,l),
(69,531,l),
(69,0,l)
);
}
);
width = 251;
}
);
note = igrave;
unicode = 236;
},
{
glyphname = ij;
kernLeft = i;
lastChange = "2022-11-25 16:20:18 +0000";
layers = (
{
hints = (
{
horizontal = 1;
place = (-210, 85);
place = (-210, 85);
type = Stem;
},
{
horizontal = 1;
place = (0, 21);
target = up;
type = BottomGhost;
},
{
horizontal = 1;
place = (531, -20);
target = down;
type = TopGhost;
},
{
horizontal = 1;
place = (589, 127);
place = (589, 127);
type = Stem;
},
{
place = (60, 129);
place = (60, 129);
type = Stem;
},
{
place = (306, 129);
place = (306, 129);
type = Stem;
},
{
place = (69, 110);
place = (69, 110);
type = Stem;
},
{
place = (316, 109);
place = (316, 109);
type = Stem;
}
);
layerId = m01;
shapes = (
{
closed = 1;
nodes = (
(179,0,l),
(179,531,l),
(69,531,l),
(69,0,l)
);
},
{
closed = 1;
nodes = (
(425,531,l),
(316,531,l),
(316,-34,ls),
(316,-49,o),
(316,-65,o),
(314,-79,cs),
(310,-115,o),
(286,-130,o),
(229,-125,c),
(229,-208,l),
(243,-210,o),
(257,-210,o),
(275,-210,cs),
(375,-210,o),
(416,-168,o),
(423,-95,cs),
(424,-77,o),
(425,-51,o),
(425,-31,cs)
);
},
{
closed = 1;
nodes = (
(69,589,l),
(180,589,l),
(180,716,l),
(69,716,l)
);
},
{
closed = 1;
nodes = (
(316,589,l),
(427,589,l),
(427,716,l),
(316,716,l)
);
}
);
width = 496;
}
);
note = ij;
unicode = 307;
},
{
glyphname = imacron;
kernLeft = i;
layers = (
{
hints = (
{
horizontal = 1;
place = (0, 21);
target = up;
type = BottomGhost;
},
{
horizontal = 1;
place = (531, -20);
target = down;
type = TopGhost;
},
{
horizontal = 1;
place = (600, 63);
place = (600, 63);
type = Stem;
},
{
place = (69, 110);
place = (69, 110);
type = Stem;
}
);
layerId = m01;
shapes = (
{
closed = 1;
nodes = (
(252,600,l),
(252,663,l),
(-4,663,l),
(-4,600,l)
);
},
{
closed = 1;
nodes = (
(179,0,l),
(179,531,l),
(69,531,l),
(69,0,l)
);
}
);
width = 251;
}
);
note = imacron;
unicode = 299;
},
{
glyphname = iogonek;
kernLeft = i;
lastChange = "2022-11-25 16:20:25 +0000";
layers = (
{
hints = (
{
horizontal = 1;
place = (-223, 66);
place = (-223, 66);
type = Stem;
},
{
horizontal = 1;
place = (0, 21);
target = up;
type = BottomGhost;
},
{
horizontal = 1;
place = (531, -20);
target = down;
type = TopGhost;
},
{
horizontal = 1;
place = (589, 127);
place = (589, 127);
type = Stem;
},
{
place = (60, 129);
place = (60, 129);
type = Stem;
},
{
place = (69, 110);
place = (69, 110);
type = Stem;
},
{
place = (-37, 102);
place = (-37, 102);
type = Stem;
}
);
layerId = m01;
shapes = (
{
closed = 1;
nodes = (
(69,531,l),
(69,10,l),
(14,-13,o),
(-37,-66,o),
(-37,-138,cs),
(-37,-201,o),
(3,-223,o),
(61,-223,cs),
(102,-223,o),
(136,-212,o),
(162,-192,c),
(162,-137,l),
(144,-151,o),
(127,-157,o),
(109,-157,cs),
(82,-157,o),
(65,-144,o),
(65,-107,cs),
(65,-50,o),
(103,-7,o),
(147,0,c),
(179,0,l),
(179,531,l)
);
},
{
closed = 1;
nodes = (
(69,589,l),
(180,589,l),
(180,716,l),
(69,716,l)
);
}
);
width = 251;
}
);
note = iogonek;
unicode = 303;
},
{
glyphname = j;
lastChange = "2022-11-25 16:20:36 +0000";
layers = (
{
hints = (
{
horizontal = 1;
place = (-210, 85);
place = (-210, 85);
type = Stem;
},
{
horizontal = 1;
place = (531, -20);
target = down;
type = TopGhost;
},
{
horizontal = 1;
place = (589, 127);
place = (589, 127);
type = Stem;
},
{
place = (55, 129);
place = (55, 129);
type = Stem;
},
{
place = (65, 109);
place = (65, 109);
type = Stem;
}
);
layerId = m01;
shapes = (
{
closed = 1;
nodes = (
(174,531,l),
(65,531,l),
(65,-34,ls),
(65,-49,o),
(65,-65,o),
(63,-79,cs),
(59,-115,o),
(35,-130,o),
(-22,-125,c),
(-22,-208,l),
(-8,-210,o),
(6,-210,o),
(24,-210,cs),
(124,-210,o),
(165,-168,o),
(172,-95,cs),
(173,-77,o),
(174,-51,o),
(174,-31,cs)
);
},
{
closed = 1;
nodes = (
(64,591,l),
(175,591,l),
(175,718,l),
(64,718,l)
);
}
);
width = 245;
}
);
note = j;
unicode = 106;
},
{
glyphname = k;
kernLeft = b;
kernRight = k;
layers = (
{
hints = (
{
horizontal = 1;
place = (0, 21);
target = up;
type = BottomGhost;
},
{
horizontal = 1;
place = (531, -20);
target = down;
type = TopGhost;
},
{
horizontal = 1;
place = (735, -20);
target = down;
type = TopGhost;
},
{
place = (69, 110);
place = (69, 110);
type = Stem;
}
);
layerId = m01;
shapes = (
{
closed = 1;
nodes = (
(226,218,l),
(406,0,l),
(549,0,l),
(304,282,l),
(546,531,l),
(411,531,l),
(179,275,l),
(179,735,l),
(69,735,l),
(69,0,l),
(179,0,l),
(179,166,l)
);
}
);
width = 550;
}
);
note = k;
unicode = 107;
},
{
glyphname = kcommaaccent;
kernLeft = b;
kernRight = k;
layers = (
{
hints = (
{
horizontal = 1;
place = (-200, 152);
place = (-200, 152);
type = Stem;
},
{
horizontal = 1;
place = (0, 21);
target = up;
type = BottomGhost;
},
{
horizontal = 1;
place = (531, -20);
target = down;
type = TopGhost;
},
{
horizontal = 1;
place = (735, -20);
target = down;
type = TopGhost;
},
{
place = (69, 110);
place = (69, 110);
type = Stem;
}
);
layerId = m01;
shapes = (
{
closed = 1;
nodes = (
(549,0,l),
(304,282,l),
(546,531,l),
(411,531,l),
(179,275,l),
(179,735,l),
(69,735,l),
(69,0,l),
(179,0,l),
(179,166,l),
(226,218,l),
(406,0,l)
);
},
{
closed = 1;
nodes = (
(252,-48,l),
(192,-200,l),
(262,-200,l),
(333,-59,l),
(333,-48,l)
);
}
);
width = 550;
}
);
note = kcommaaccent;
unicode = 311;
},
{
glyphname = l;
kernRight = l;
layers = (
{
hints = (
{
horizontal = 1;
place = (-1, 21);
target = up;
type = BottomGhost;
},
{
horizontal = 1;
place = (735, -20);
target = down;
type = TopGhost;
},
{
place = (65, 110);
place = (65, 110);
type = Stem;
},
{
horizontal = 1;
place = (-6, 82);
place = (-6, 82);
type = Stem;
}
);
layerId = m01;
shapes = (
{
closed = 1;
nodes = (
(175,735,l),
(65,735,l),
(65,159,ls),
(65,127,o),
(65,103,o),
(66,83,cs),
(70,15,o),
(109,-6,o),
(167,-6,cs),
(192,-6,o),
(217,-4,o),
(239,-1,c),
(239,76,l),
(192,72,o),
(178,82,o),
(176,112,cs),
(175,128,o),
(175,144,o),
(175,162,cs)
);
}
);
width = 262;
}
);
note = l;
unicode = 108;
},
{
glyphname = lacute;
kernRight = l;
layers = (
{
hints = (
{
horizontal = 1;
place = (-1, 21);
target = up;
type = BottomGhost;
},
{
horizontal = 1;
place = (735, -20);
target = down;
type = TopGhost;
},
{
horizontal = 1;
place = (784, 114);
place = (784, 114);
type = Stem;
},
{
place = (65, 110);
place = (65, 110);
type = Stem;
},
{
horizontal = 1;
place = (-6, 82);
place = (-6, 82);
type = Stem;
}
);
layerId = m01;
shapes = (
{
closed = 1;
nodes = (
(145,784,l),
(248,898,l),
(148,898,l),
(79,784,l)
);
},
{
closed = 1;
nodes = (
(175,735,l),
(65,735,l),
(65,159,ls),
(65,127,o),
(65,103,o),
(66,83,cs),
(70,15,o),
(109,-6,o),
(167,-6,cs),
(192,-6,o),
(217,-4,o),
(239,-1,c),
(239,76,l),
(192,72,o),
(178,82,o),
(176,112,cs),
(175,128,o),
(175,144,o),
(175,162,cs)
);
}
);
width = 262;
}
);
note = lacute;
unicode = 314;
},
{
glyphname = lcaron;
kernRight = l;
layers = (
{
hints = (
{
horizontal = 1;
place = (-1, 21);
target = up;
type = BottomGhost;
},
{
horizontal = 1;
place = (735, -20);
target = down;
type = TopGhost;
},
{
place = (65, 110);
place = (65, 110);
type = Stem;
},
{
horizontal = 1;
place = (-6, 82);
place = (-6, 82);
type = Stem;
}
);
layerId = m01;
shapes = (
{
closed = 1;
nodes = (
(175,735,l),
(65,735,l),
(65,159,ls),
(65,127,o),
(65,103,o),
(66,83,cs),
(70,15,o),
(109,-6,o),
(167,-6,cs),
(192,-6,o),
(217,-4,o),
(239,-1,c),
(239,76,l),
(192,72,o),
(178,82,o),
(176,112,cs),
(175,128,o),
(175,144,o),
(175,162,cs)
);
}
);
width = 262;
}
);
note = lcaron;
unicode = 318;
},
{
glyphname = lcommaaccent;
kernRight = l;
layers = (
{
hints = (
{
horizontal = 1;
place = (-200, 152);
place = (-200, 152);
type = Stem;
},
{
horizontal = 1;
place = (-1, 21);
target = up;
type = BottomGhost;
},
{
horizontal = 1;
place = (735, -20);
target = down;
type = TopGhost;
},
{
place = (65, 110);
place = (65, 110);
type = Stem;
},
{
horizontal = 1;
place = (-6, 82);
place = (-6, 82);
type = Stem;
}
);
layerId = m01;
shapes = (
{
closed = 1;
nodes = (
(175,735,l),
(65,735,l),
(65,159,ls),
(65,127,o),
(65,103,o),
(66,83,cs),
(70,15,o),
(109,-6,o),
(167,-6,cs),
(192,-6,o),
(217,-4,o),
(239,-1,c),
(239,76,l),
(192,72,o),
(178,82,o),
(176,112,cs),
(175,128,o),
(175,144,o),
(175,162,cs)
);
},
{
closed = 1;
nodes = (
(180,-59,l),
(180,-48,l),
(99,-48,l),
(39,-200,l),
(109,-200,l)
);
}
);
width = 262;
}
);
note = lcommaaccent;
unicode = 316;
},
{
glyphname = ldot;
kernRight = l;
layers = (
{
hints = (
{
horizontal = 1;
place = (-1, 21);
target = up;
type = BottomGhost;
},
{
horizontal = 1;
place = (337, 126);
place = (337, 126);
type = Stem;
},
{
horizontal = 1;
place = (735, -20);
target = down;
type = TopGhost;
},
{
place = (65, 110);
place = (65, 110);
type = Stem;
},
{
horizontal = 1;
place = (-6, 82);
place = (-6, 82);
type = Stem;
},
{
place = (241, 129);
place = (241, 129);
type = Stem;
}
);
layerId = m01;
shapes = (
{
closed = 1;
nodes = (
(175,735,l),
(65,735,l),
(65,159,ls),
(65,127,o),
(65,103,o),
(66,83,cs),
(70,15,o),
(109,-6,o),
(167,-6,cs),
(192,-6,o),
(217,-4,o),
(239,-1,c),
(239,76,l),
(192,72,o),
(178,82,o),
(176,112,cs),
(175,128,o),
(175,144,o),
(175,162,cs)
);
},
{
closed = 1;
nodes = (
(269,463,o),
(241,436,o),
(241,400,cs),
(241,364,o),
(269,337,o),
(306,337,cs),
(343,337,o),
(370,364,o),
(370,400,cs),
(370,436,o),
(343,463,o),
(306,463,cs)
);
}
);
width = 383;
}
);
note = ldot;
unicode = 320;
},
{
glyphname = lslash;
layers = (
{
hints = (
{
horizontal = 1;
place = (-6, 82);
place = (-6, 82);
type = Stem;
},
{
horizontal = 1;
place = (735, -20);
target = down;
type = TopGhost;
},
{
place = (91, 109);
place = (91, 109);
type = Stem;
}
);
layerId = m01;
shapes = (
{
closed = 1;
nodes = (
(200,128,o),
(200,144,o),
(200,162,cs),
(200,315,l),
(264,354,l),
(264,434,l),
(200,395,l),
(200,735,l),
(91,735,l),
(91,330,l),
(27,291,l),
(27,211,l),
(91,250,l),
(91,159,ls),
(91,127,o),
(91,103,o),
(92,83,cs),
(95,15,o),
(135,-6,o),
(193,-6,cs),
(218,-6,o),
(243,-4,o),
(265,-1,c),
(265,76,l),
(218,72,o),
(204,82,o),
(202,112,cs)
);
}
);
width = 297;
}
);
note = lslash;
unicode = 322;
},
{
glyphname = m;
kernLeft = m;
layers = (
{
hints = (
{
horizontal = 1;
place = (0, 21);
target = up;
type = BottomGhost;
},
{
horizontal = 1;
place = (464, 81);
place = (464, 81);
type = Stem;
},
{
place = (69, 110);
place = (69, 110);
type = Stem;
},
{
place = (389, 109);
place = (389, 109);
type = Stem;
},
{
place = (708, 110);
place = (708, 110);
type = Stem;
},
{
horizontal = 1;
place = (464, 67);
place = (464, 67);
type = Stem;
}
);
layerId = m01;
shapes = (
{
closed = 1;
nodes = (
(801,488,o),
(745,545,o),
(647,545,cs),
(600,545,o),
(563,536,o),
(534,514,c),
(485,444,l),
(465,503,o),
(412,545,o),
(328,545,cs),
(280,545,o),
(243,536,o),
(215,514,c),
(179,452,l),
(179,531,l),
(69,531,l),
(69,0,l),
(179,0,l),
(179,267,ls),
(179,411,o),
(221,464,o),
(286,464,cs),
(343,464,o),
(377,434,o),
(385,377,cs),
(388,350,o),
(389,321,o),
(389,281,cs),
(389,0,l),
(498,0,l),
(498,267,ls),
(498,411,o),
(541,464,o),
(605,464,cs),
(662,464,o),
(697,434,o),
(704,377,cs),
(707,350,o),
(708,321,o),
(708,281,cs),
(708,0,l),
(818,0,l),
(818,321,ls),
(818,364,o),
(817,388,o),
(813,415,cs)
);
}
);
width = 883;
}
);
note = m;
unicode = 109;
},
{
glyphname = n;
kernLeft = m;
layers = (
{
hints = (
{
horizontal = 1;
place = (464, 81);
place = (464, 81);
type = Stem;
},
{
place = (69, 110);
place = (69, 110);
type = Stem;
},
{
place = (431, 110);
place = (431, 110);
type = Stem;
}
);
layerId = m01;
shapes = (
{
closed = 1;
nodes = (
(528,486,o),
(463,545,o),
(349,545,cs),
(296,545,o),
(257,536,o),
(215,504,c),
(179,443,l),
(179,531,l),
(69,531,l),
(69,0,l),
(179,0,l),
(179,238,ls),
(179,404,o),
(241,464,o),
(317,464,cs),
(392,464,o),
(424,422,o),
(429,362,cs),
(431,335,o),
(431,312,o),
(431,287,cs),
(431,0,l),
(541,0,l),
(541,299,ls),
(541,342,o),
(540,366,o),
(538,393,cs)
);
}
);
width = 606;
}
);
note = n;
unicode = 110;
},
{
glyphname = nacute;
kernLeft = m;
layers = (
{
hints = (
{
horizontal = 1;
place = (464, 81);
place = (464, 81);
type = Stem;
},
{
place = (69, 110);
place = (69, 110);
type = Stem;
},
{
place = (431, 110);
place = (431, 110);
type = Stem;
}
);
layerId = m01;
shapes = (
{
closed = 1;
nodes = (
(439,692,l),
(339,692,l),
(270,578,l),
(336,578,l)
);
},
{
closed = 1;
nodes = (
(528,486,o),
(463,545,o),
(349,545,cs),
(296,545,o),
(257,536,o),
(215,504,c),
(179,443,l),
(179,531,l),
(69,531,l),
(69,0,l),
(179,0,l),
(179,238,ls),
(179,404,o),
(241,464,o),
(317,464,cs),
(392,464,o),
(424,422,o),
(429,362,cs),
(431,335,o),
(431,312,o),
(431,287,cs),
(431,0,l),
(541,0,l),
(541,299,ls),
(541,342,o),
(540,366,o),
(538,393,cs)
);
}
);
width = 606;
}
);
note = nacute;
unicode = 324;
},
{
glyphname = ncaron;
kernLeft = m;
layers = (
{
hints = (
{
horizontal = 1;
place = (464, 81);
place = (464, 81);
type = Stem;
},
{
place = (69, 110);
place = (69, 110);
type = Stem;
},
{
place = (431, 110);
place = (431, 110);
type = Stem;
}
);
layerId = m01;
shapes = (
{
closed = 1;
nodes = (
(350,578,l),
(416,692,l),
(343,692,l),
(310,626,l),
(277,692,l),
(203,692,l),
(269,578,l)
);
},
{
closed = 1;
nodes = (
(528,486,o),
(463,545,o),
(349,545,cs),
(296,545,o),
(257,536,o),
(215,504,c),
(179,443,l),
(179,531,l),
(69,531,l),
(69,0,l),
(179,0,l),
(179,238,ls),
(179,404,o),
(241,464,o),
(317,464,cs),
(392,464,o),
(424,422,o),
(429,362,cs),
(431,335,o),
(431,312,o),
(431,287,cs),
(431,0,l),
(541,0,l),
(541,299,ls),
(541,342,o),
(540,366,o),
(538,393,cs)
);
}
);
width = 606;
}
);
note = ncaron;
unicode = 328;
},
{
glyphname = ncommaaccent;
kernLeft = m;
layers = (
{
hints = (
{
horizontal = 1;
place = (464, 81);
place = (464, 81);
type = Stem;
},
{
place = (69, 110);
place = (69, 110);
type = Stem;
},
{
place = (431, 110);
place = (431, 110);
type = Stem;
}
);
layerId = m01;
shapes = (
{
closed = 1;
nodes = (
(528,486,o),
(463,545,o),
(349,545,cs),
(296,545,o),
(257,536,o),
(215,504,c),
(179,443,l),
(179,531,l),
(69,531,l),
(69,0,l),
(179,0,l),
(179,238,ls),
(179,404,o),
(241,464,o),
(317,464,cs),
(392,464,o),
(424,422,o),
(429,362,cs),
(431,335,o),
(431,312,o),
(431,287,cs),
(431,0,l),
(541,0,l),
(541,299,ls),
(541,342,o),
(540,366,o),
(538,393,cs)
);
},
{
closed = 1;
nodes = (
(209,-200,l),
(279,-200,l),
(350,-59,l),
(350,-48,l),
(269,-48,l)
);
}
);
width = 606;
}
);
note = ncommaaccent;
unicode = 326;
},
{
glyphname = eng;
kernLeft = m;
layers = (
{
layerId = m01;
shapes = (
{
closed = 1;
nodes = (
(528,486,o),
(463,545,o),
(349,545,cs),
(296,545,o),
(257,536,o),
(215,504,c),
(179,443,l),
(179,531,l),
(69,531,l),
(69,0,l),
(179,0,l),
(179,238,ls),
(179,404,o),
(241,464,o),
(317,464,cs),
(392,464,o),
(424,422,o),
(429,362,cs),
(431,335,o),
(431,312,o),
(431,287,cs),
(431,-46,ls),
(431,-56,o),
(431,-66,o),
(430,-74,cs),
(426,-114,o),
(403,-125,o),
(352,-125,c),
(352,-210,l),
(475,-210,o),
(532,-183,o),
(540,-90,cs),
(541,-76,o),
(541,-67,o),
(541,-49,cs),
(541,299,ls),
(541,342,o),
(540,366,o),
(538,393,cs)
);
}
);
width = 606;
}
);
note = eng;
unicode = 331;
},
{
glyphname = ntilde;
kernLeft = m;
layers = (
{
hints = (
{
horizontal = 1;
place = (464, 81);
place = (464, 81);
type = Stem;
},
{
place = (69, 110);
place = (69, 110);
type = Stem;
},
{
place = (431, 110);
place = (431, 110);
type = Stem;
}
);
layerId = m01;
shapes = (
{
closed = 1;
nodes = (
(266,616,o),
(277,613,o),
(301,604,cs),
(331,594,o),
(347,590,o),
(368,590,cs),
(408,590,o),
(430,611,o),
(430,677,c),
(377,677,l),
(377,660,o),
(372,654,o),
(361,654,cs),
(353,654,o),
(341,657,o),
(317,666,cs),
(288,677,o),
(272,680,o),
(250,680,cs),
(211,680,o),
(189,659,o),
(189,594,c),
(241,594,l),
(241,610,o),
(247,616,o),
(257,616,cs)
);
},
{
closed = 1;
nodes = (
(528,486,o),
(463,545,o),
(349,545,cs),
(296,545,o),
(257,536,o),
(215,504,c),
(179,443,l),
(179,531,l),
(69,531,l),
(69,0,l),
(179,0,l),
(179,238,ls),
(179,404,o),
(241,464,o),
(317,464,cs),
(392,464,o),
(424,422,o),
(429,362,cs),
(431,335,o),
(431,312,o),
(431,287,cs),
(431,0,l),
(541,0,l),
(541,299,ls),
(541,342,o),
(540,366,o),
(538,393,cs)
);
}
);
width = 606;
}
);
note = ntilde;
unicode = 241;
},
{
glyphname = o;
kernLeft = c;
kernRight = b;
layers = (
{
hints = (
{
horizontal = 1;
place = (-14, 80);
place = (-14, 80);
type = Stem;
},
{
horizontal = 1;
place = (465, 80);
place = (465, 80);
type = Stem;
},
{
place = (29, 116);
place = (29, 116);
type = Stem;
},
{
place = (450, 117);
place = (450, 117);
type = Stem;
}
);
layerId = m01;
shapes = (
{
closed = 1;
nodes = (
(119,545,o),
(29,421,o),
(29,266,cs),
(29,111,o),
(119,-14,o),
(298,-14,cs),
(476,-14,o),
(567,111,o),
(567,266,cs),
(567,421,o),
(476,545,o),
(298,545,cs)
);
},
{
closed = 1;
nodes = (
(201,66,o),
(145,146,o),
(145,266,cs),
(145,386,o),
(201,465,o),
(298,465,cs),
(394,465,o),
(450,386,o),
(450,266,cs),
(450,146,o),
(394,66,o),
(298,66,cs)
);
}
);
width = 595;
}
);
note = o;
unicode = 111;
},
{
glyphname = oacute;
kernLeft = c;
kernRight = b;
layers = (
{
hints = (
{
horizontal = 1;
place = (-14, 80);
place = (-14, 80);
type = Stem;
},
{
horizontal = 1;
place = (465, 80);
place = (465, 80);
type = Stem;
},
{
horizontal = 1;
place = (578, 114);
place = (578, 114);
type = Stem;
},
{
place = (29, 116);
place = (29, 116);
type = Stem;
},
{
place = (450, 117);
place = (450, 117);
type = Stem;
}
);
layerId = m01;
shapes = (
{
closed = 1;
nodes = (
(325,578,l),
(428,692,l),
(328,692,l),
(259,578,l)
);
},
{
closed = 1;
nodes = (
(119,545,o),
(29,421,o),
(29,266,cs),
(29,111,o),
(119,-14,o),
(298,-14,cs),
(476,-14,o),
(567,111,o),
(567,266,cs),
(567,421,o),
(476,545,o),
(298,545,cs)
);
},
{
closed = 1;
nodes = (
(201,66,o),
(145,146,o),
(145,266,cs),
(145,386,o),
(201,465,o),
(298,465,cs),
(394,465,o),
(450,386,o),
(450,266,cs),
(450,146,o),
(394,66,o),
(298,66,cs)
);
}
);
width = 595;
}
);
note = oacute;
unicode = 243;
},
{
glyphname = ocircumflex;
kernLeft = c;
kernRight = b;
layers = (
{
hints = (
{
horizontal = 1;
place = (-14, 80);
place = (-14, 80);
type = Stem;
},
{
horizontal = 1;
place = (465, 80);
place = (465, 80);
type = Stem;
},
{
horizontal = 1;
place = (578, 114);
place = (578, 114);
type = Stem;
},
{
place = (29, 116);
place = (29, 116);
type = Stem;
},
{
place = (450, 117);
place = (450, 117);
type = Stem;
},
{
horizontal = 1;
place = (643, 49);
place = (643, 49);
type = Stem;
}
);
layerId = m01;
shapes = (
{
closed = 1;
nodes = (
(265,578,l),
(298,643,l),
(331,578,l),
(405,578,l),
(339,692,l),
(258,692,l),
(192,578,l)
);
},
{
closed = 1;
nodes = (
(119,545,o),
(29,421,o),
(29,266,cs),
(29,111,o),
(119,-14,o),
(298,-14,cs),
(476,-14,o),
(567,111,o),
(567,266,cs),
(567,421,o),
(476,545,o),
(298,545,cs)
);
},
{
closed = 1;
nodes = (
(201,66,o),
(145,146,o),
(145,266,cs),
(145,386,o),
(201,465,o),
(298,465,cs),
(394,465,o),
(450,386,o),
(450,266,cs),
(450,146,o),
(394,66,o),
(298,66,cs)
);
}
);
width = 595;
}
);
note = ocircumflex;
unicode = 244;
},
{
glyphname = odieresis;
kernLeft = c;
kernRight = b;
lastChange = "2022-11-25 15:31:07 +0000";
layers = (
{
hints = (
{
horizontal = 1;
place = (-14, 80);
place = (-14, 80);
type = Stem;
},
{
horizontal = 1;
place = (465, 80);
place = (465, 80);
type = Stem;
},
{
horizontal = 1;
place = (580, 105);
place = (580, 105);
type = Stem;
},
{
place = (29, 116);
place = (29, 116);
type = Stem;
},
{
place = (165, 107);
place = (165, 107);
type = Stem;
},
{
place = (325, 106);
place = (325, 106);
type = Stem;
},
{
place = (450, 117);
place = (450, 117);
type = Stem;
}
);
layerId = m01;
shapes = (
{
closed = 1;
nodes = (
(119,545,o),
(29,421,o),
(29,266,cs),
(29,111,o),
(119,-14,o),
(298,-14,cs),
(476,-14,o),
(567,111,o),
(567,266,cs),
(567,421,o),
(476,545,o),
(298,545,cs)
);
},
{
closed = 1;
nodes = (
(201,66,o),
(145,146,o),
(145,266,cs),
(145,386,o),
(201,465,o),
(298,465,cs),
(394,465,o),
(450,386,o),
(450,266,cs),
(450,146,o),
(394,66,o),
(298,66,cs)
);
},
{
closed = 1;
nodes = (
(167,582,l),
(275,582,l),
(275,688,l),
(167,688,l)
);
},
{
closed = 1;
nodes = (
(322,582,l),
(430,582,l),
(430,688,l),
(322,688,l)
);
}
);
width = 595;
}
);
note = odieresis;
unicode = 246;
},
{
glyphname = ograve;
kernLeft = c;
kernRight = b;
layers = (
{
hints = (
{
horizontal = 1;
place = (-14, 80);
place = (-14, 80);
type = Stem;
},
{
horizontal = 1;
place = (465, 80);
place = (465, 80);
type = Stem;
},
{
horizontal = 1;
place = (578, 114);
place = (578, 114);
type = Stem;
},
{
place = (29, 116);
place = (29, 116);
type = Stem;
},
{
place = (450, 117);
place = (450, 117);
type = Stem;
}
);
layerId = m01;
shapes = (
{
closed = 1;
nodes = (
(273,578,l),
(339,578,l),
(271,692,l),
(171,692,l)
);
},
{
closed = 1;
nodes = (
(119,545,o),
(29,421,o),
(29,266,cs),
(29,111,o),
(119,-14,o),
(298,-14,cs),
(476,-14,o),
(567,111,o),
(567,266,cs),
(567,421,o),
(476,545,o),
(298,545,cs)
);
},
{
closed = 1;
nodes = (
(201,66,o),
(145,146,o),
(145,266,cs),
(145,386,o),
(201,465,o),
(298,465,cs),
(394,465,o),
(450,386,o),
(450,266,cs),
(450,146,o),
(394,66,o),
(298,66,cs)
);
}
);
width = 595;
}
);
note = ograve;
unicode = 242;
},
{
glyphname = ohungarumlaut;
kernLeft = c;
kernRight = b;
layers = (
{
hints = (
{
horizontal = 1;
place = (-14, 80);
place = (-14, 80);
type = Stem;
},
{
horizontal = 1;
place = (465, 80);
place = (465, 80);
type = Stem;
},
{
horizontal = 1;
place = (578, 114);
place = (578, 114);
type = Stem;
},
{
place = (29, 116);
place = (29, 116);
type = Stem;
},
{
place = (450, 117);
place = (450, 117);
type = Stem;
}
);
layerId = m01;
shapes = (
{
closed = 1;
nodes = (
(254,578,l),
(356,692,l),
(256,692,l),
(188,578,l)
);
},
{
closed = 1;
nodes = (
(327,578,l),
(393,578,l),
(495,692,l),
(395,692,l)
);
},
{
closed = 1;
nodes = (
(119,545,o),
(29,421,o),
(29,266,cs),
(29,111,o),
(119,-14,o),
(298,-14,cs),
(476,-14,o),
(567,111,o),
(567,266,cs),
(567,421,o),
(476,545,o),
(298,545,cs)
);
},
{
closed = 1;
nodes = (
(201,66,o),
(145,146,o),
(145,266,cs),
(145,386,o),
(201,465,o),
(298,465,cs),
(394,465,o),
(450,386,o),
(450,266,cs),
(450,146,o),
(394,66,o),
(298,66,cs)
);
}
);
width = 595;
}
);
note = ohungarumlaut;
unicode = 337;
},
{
glyphname = omacron;
kernLeft = c;
kernRight = b;
layers = (
{
hints = (
{
horizontal = 1;
place = (-14, 80);
place = (-14, 80);
type = Stem;
},
{
horizontal = 1;
place = (465, 80);
place = (465, 80);
type = Stem;
},
{
horizontal = 1;
place = (600, 63);
place = (600, 63);
type = Stem;
},
{
place = (29, 116);
place = (29, 116);
type = Stem;
},
{
place = (171, 255);
place = (171, 255);
type = Stem;
},
{
place = (450, 117);
place = (450, 117);
type = Stem;
}
);
layerId = m01;
shapes = (
{
closed = 1;
nodes = (
(426,600,l),
(426,663,l),
(171,663,l),
(171,600,l)
);
},
{
closed = 1;
nodes = (
(119,545,o),
(29,421,o),
(29,266,cs),
(29,111,o),
(119,-14,o),
(298,-14,cs),
(476,-14,o),
(567,111,o),
(567,266,cs),
(567,421,o),
(476,545,o),
(298,545,cs)
);
},
{
closed = 1;
nodes = (
(201,66,o),
(145,146,o),
(145,266,cs),
(145,386,o),
(201,465,o),
(298,465,cs),
(394,465,o),
(450,386,o),
(450,266,cs),
(450,146,o),
(394,66,o),
(298,66,cs)
);
}
);
width = 595;
}
);
note = omacron;
unicode = 333;
},
{
glyphname = oslash;
kernLeft = c;
kernRight = b;
layers = (
{
hints = (
{
horizontal = 1;
place = (-14, 80);
place = (-14, 80);
type = Stem;
},
{
horizontal = 1;
place = (465, 80);
place = (465, 80);
type = Stem;
},
{
place = (36, 117);
place = (36, 117);
type = Stem;
},
{
place = (458, 116);
place = (458, 116);
type = Stem;
}
);
layerId = m01;
shapes = (
{
closed = 1;
nodes = (
(600,505,l),
(552,553,l),
(484,485,l),
(441,523,o),
(381,545,o),
(305,545,cs),
(127,545,o),
(36,421,o),
(36,266,cs),
(36,199,o),
(53,137,o),
(87,88,c),
(25,26,l),
(73,-22,l),
(134,39,l),
(177,6,o),
(234,-14,o),
(305,-14,cs),
(484,-14,o),
(574,111,o),
(574,266,cs),
(574,329,o),
(559,387,o),
(529,434,c)
);
},
{
closed = 1;
nodes = (
(153,386,o),
(209,465,o),
(305,465,cs),
(351,465,o),
(388,447,o),
(414,415,c),
(168,169,l),
(158,197,o),
(153,230,o),
(153,266,cs)
);
},
{
closed = 1;
nodes = (
(458,146,o),
(402,66,o),
(305,66,cs),
(263,66,o),
(228,81,o),
(203,108,c),
(446,352,l),
(454,326,o),
(458,298,o),
(458,266,cs)
);
}
);
width = 625;
}
);
note = oslash;
unicode = 248;
},
{
glyphname = otilde;
kernLeft = c;
kernRight = b;
layers = (
{
hints = (
{
horizontal = 1;
place = (-14, 80);
place = (-14, 80);
type = Stem;
},
{
horizontal = 1;
place = (465, 80);
place = (465, 80);
type = Stem;
},
{
horizontal = 1;
place = (594, 86);
place = (594, 86);
type = Stem;
},
{
place = (29, 116);
place = (29, 116);
type = Stem;
},
{
place = (178, 52);
place = (178, 52);
type = Stem;
},
{
place = (450, 117);
place = (450, 117);
type = Stem;
},
{
horizontal = 1;
place = (590, 87);
place = (590, 87);
type = Stem;
},
{
place = (366, 53);
place = (366, 53);
type = Stem;
}
);
layerId = m01;
shapes = (
{
closed = 1;
nodes = (
(255,616,o),
(266,613,o),
(290,604,cs),
(320,594,o),
(336,590,o),
(357,590,cs),
(397,590,o),
(419,611,o),
(419,677,c),
(366,677,l),
(366,660,o),
(361,654,o),
(350,654,cs),
(342,654,o),
(330,657,o),
(306,666,cs),
(277,677,o),
(261,680,o),
(239,680,cs),
(200,680,o),
(178,659,o),
(178,594,c),
(230,594,l),
(230,610,o),
(236,616,o),
(246,616,cs)
);
},
{
closed = 1;
nodes = (
(119,545,o),
(29,421,o),
(29,266,cs),
(29,111,o),
(119,-14,o),
(298,-14,cs),
(476,-14,o),
(567,111,o),
(567,266,cs),
(567,421,o),
(476,545,o),
(298,545,cs)
);
},
{
closed = 1;
nodes = (
(201,66,o),
(145,146,o),
(145,266,cs),
(145,386,o),
(201,465,o),
(298,465,cs),
(394,465,o),
(450,386,o),
(450,266,cs),
(450,146,o),
(394,66,o),
(298,66,cs)
);
}
);
width = 595;
}
);
note = otilde;
unicode = 245;
},
{
glyphname = oe;
kernLeft = c;
kernRight = ae;
layers = (
{
hints = (
{
horizontal = 1;
place = (-14, 80);
place = (-14, 80);
type = Stem;
},
{
horizontal = 1;
place = (235, 77);
place = (235, 77);
type = Stem;
},
{
horizontal = 1;
place = (465, 80);
place = (465, 80);
type = Stem;
},
{
place = (29, 116);
place = (29, 116);
type = Stem;
},
{
place = (450, 117);
place = (450, 117);
type = Stem;
},
{
place = (835, 113);
place = (835, 113);
type = Stem;
}
);
layerId = m01;
shapes = (
{
closed = 1;
nodes = (
(948,429,o),
(864,545,o),
(713,545,cs),
(627,545,o),
(555,509,o),
(509,424,c),
(466,506,o),
(394,545,o),
(298,545,cs),
(119,545,o),
(29,421,o),
(29,266,cs),
(29,111,o),
(119,-14,o),
(298,-14,cs),
(392,-14,o),
(462,23,o),
(505,103,c),
(549,19,o),
(620,-14,o),
(701,-14,cs),
(816,-14,o),
(916,46,o),
(940,172,c),
(828,172,l),
(817,105,o),
(768,66,o),
(703,66,cs),
(632,66,o),
(574,114,o),
(566,235,c),
(945,235,l),
(947,254,o),
(948,269,o),
(948,279,cs)
);
},
{
closed = 1;
nodes = (
(201,66,o),
(145,146,o),
(145,266,cs),
(145,386,o),
(201,465,o),
(298,465,cs),
(394,465,o),
(450,386,o),
(450,266,cs),
(450,146,o),
(394,66,o),
(298,66,cs)
);
},
{
closed = 1;
nodes = (
(567,312,l),
(579,413,o),
(631,465,o),
(707,465,cs),
(784,465,o),
(826,410,o),
(835,312,c)
);
}
);
width = 984;
}
);
note = oe;
unicode = 339;
},
{
glyphname = p;
kernLeft = m;
kernRight = b;
layers = (
{
hints = (
{
horizontal = 1;
place = (-14, 80);
place = (-14, 80);
type = Stem;
},
{
horizontal = 1;
place = (465, 80);
place = (465, 80);
type = Stem;
},
{
place = (69, 110);
place = (69, 110);
type = Stem;
},
{
place = (481, 116);
place = (481, 116);
type = Stem;
},
{
horizontal = 1;
place = (531, -20);
target = down;
type = TopGhost;
}
);
layerId = m01;
shapes = (
{
closed = 1;
nodes = (
(304,545,o),
(249,530,o),
(219,505,c),
(179,448,l),
(179,531,l),
(69,531,l),
(69,-196,l),
(179,-196,l),
(179,72,l),
(214,19,l),
(241,-2,o),
(296,-14,o),
(340,-14,cs),
(477,-14,o),
(597,80,o),
(597,275,cs),
(597,430,o),
(510,545,o),
(358,545,cs)
);
},
{
closed = 1;
nodes = (
(257,66,o),
(179,114,o),
(179,244,cs),
(179,271,ls),
(179,413,o),
(250,465,o),
(332,465,cs),
(428,465,o),
(481,380,o),
(481,265,cs),
(481,133,o),
(415,66,o),
(327,66,cs)
);
}
);
width = 626;
}
);
note = p;
unicode = 112;
},
{
glyphname = thorn;
kernLeft = b;
kernRight = b;
layers = (
{
hints = (
{
horizontal = 1;
place = (-14, 80);
place = (-14, 80);
type = Stem;
},
{
horizontal = 1;
place = (465, 80);
place = (465, 80);
type = Stem;
},
{
horizontal = 1;
place = (735, -20);
target = down;
type = TopGhost;
},
{
place = (69, 110);
place = (69, 110);
type = Stem;
},
{
place = (481, 116);
place = (481, 116);
type = Stem;
}
);
layerId = m01;
shapes = (
{
closed = 1;
nodes = (
(304,545,o),
(249,530,o),
(219,505,c),
(179,448,l),
(179,735,l),
(69,735,l),
(69,-196,l),
(179,-196,l),
(179,72,l),
(214,19,l),
(241,-2,o),
(296,-14,o),
(340,-14,cs),
(477,-14,o),
(597,80,o),
(597,275,cs),
(597,430,o),
(510,545,o),
(358,545,cs)
);
},
{
closed = 1;
nodes = (
(257,66,o),
(179,114,o),
(179,244,cs),
(179,271,ls),
(179,413,o),
(250,465,o),
(332,465,cs),
(428,465,o),
(481,380,o),
(481,265,cs),
(481,133,o),
(415,66,o),
(327,66,cs)
);
}
);
width = 626;
}
);
note = thorn;
unicode = 254;
},
{
glyphname = q;
kernLeft = c;
layers = (
{
hints = (
{
horizontal = 1;
place = (-14, 80);
place = (-14, 80);
type = Stem;
},
{
horizontal = 1;
place = (531, -20);
target = down;
type = TopGhost;
},
{
place = (29, 116);
place = (29, 116);
type = Stem;
},
{
place = (447, 110);
place = (447, 110);
type = Stem;
},
{
horizontal = 1;
place = (465, 80);
place = (465, 80);
type = Stem;
}
);
layerId = m01;
shapes = (
{
closed = 1;
nodes = (
(557,531,l),
(447,531,l),
(447,459,l),
(412,512,l),
(385,533,o),
(330,545,o),
(286,545,cs),
(149,545,o),
(29,451,o),
(29,257,cs),
(29,101,o),
(116,-14,o),
(268,-14,cs),
(322,-14,o),
(377,2,o),
(407,26,c),
(447,84,l),
(447,-196,l),
(557,-196,l)
);
},
{
closed = 1;
nodes = (
(198,66,o),
(145,151,o),
(145,266,cs),
(145,398,o),
(211,465,o),
(298,465,cs),
(369,465,o),
(447,417,o),
(447,288,cs),
(447,260,ls),
(447,118,o),
(376,66,o),
(293,66,cs)
);
}
);
width = 629;
}
);
note = q;
unicode = 113;
},
{
glyphname = r;
kernLeft = m;
kernRight = r;
layers = (
{
hints = (
{
horizontal = 1;
place = (0, 21);
target = up;
type = BottomGhost;
},
{
horizontal = 1;
place = (544, -20);
target = down;
type = TopGhost;
},
{
place = (69, 110);
place = (69, 110);
type = Stem;
},
{
horizontal = 1;
place = (531, -20);
target = down;
type = TopGhost;
},
{
horizontal = 1;
place = (538, -20);
target = down;
type = TopGhost;
}
);
layerId = m01;
shapes = (
{
closed = 1;
nodes = (
(279,544,o),
(248,533,o),
(224,514,c),
(179,441,l),
(179,531,l),
(69,531,l),
(69,0,l),
(179,0,l),
(179,276,ls),
(179,407,o),
(242,459,o),
(343,452,c),
(343,538,l),
(332,542,o),
(321,544,o),
(306,544,cs)
);
}
);
width = 353;
}
);
note = r;
unicode = 114;
},
{
glyphname = racute;
kernLeft = m;
kernRight = r;
layers = (
{
hints = (
{
horizontal = 1;
place = (0, 21);
target = up;
type = BottomGhost;
},
{
horizontal = 1;
place = (544, -20);
target = down;
type = TopGhost;
},
{
horizontal = 1;
place = (578, 114);
place = (578, 114);
type = Stem;
},
{
place = (69, 110);
place = (69, 110);
type = Stem;
},
{
horizontal = 1;
place = (531, -20);
target = down;
type = TopGhost;
},
{
horizontal = 1;
place = (538, -20);
target = down;
type = TopGhost;
}
);
layerId = m01;
shapes = (
{
closed = 1;
nodes = (
(218,578,l),
(321,692,l),
(221,692,l),
(152,578,l)
);
},
{
closed = 1;
nodes = (
(279,544,o),
(248,533,o),
(224,514,c),
(179,441,l),
(179,531,l),
(69,531,l),
(69,0,l),
(179,0,l),
(179,276,ls),
(179,407,o),
(242,459,o),
(343,452,c),
(343,538,l),
(332,542,o),
(321,544,o),
(306,544,cs)
);
}
);
width = 353;
}
);
note = racute;
unicode = 341;
},
{
glyphname = rcaron;
kernLeft = m;
kernRight = r;
layers = (
{
hints = (
{
horizontal = 1;
place = (0, 21);
target = up;
type = BottomGhost;
},
{
horizontal = 1;
place = (544, -20);
target = down;
type = TopGhost;
},
{
horizontal = 1;
place = (578, 114);
place = (578, 114);
type = Stem;
},
{
place = (69, 110);
place = (69, 110);
type = Stem;
},
{
horizontal = 1;
place = (531, -20);
target = down;
type = TopGhost;
},
{
horizontal = 1;
place = (538, -20);
target = down;
type = TopGhost;
}
);
layerId = m01;
shapes = (
{
closed = 1;
nodes = (
(151,578,l),
(232,578,l),
(298,692,l),
(225,692,l),
(192,626,l),
(159,692,l),
(85,692,l)
);
},
{
closed = 1;
nodes = (
(279,544,o),
(248,533,o),
(224,514,c),
(179,441,l),
(179,531,l),
(69,531,l),
(69,0,l),
(179,0,l),
(179,276,ls),
(179,407,o),
(242,459,o),
(343,452,c),
(343,538,l),
(332,542,o),
(321,544,o),
(306,544,cs)
);
}
);
width = 353;
}
);
note = rcaron;
unicode = 345;
},
{
glyphname = rcommaaccent;
kernLeft = m;
kernRight = r;
layers = (
{
hints = (
{
horizontal = 1;
place = (-200, 152);
place = (-200, 152);
type = Stem;
},
{
horizontal = 1;
place = (0, 21);
target = up;
type = BottomGhost;
},
{
horizontal = 1;
place = (544, -20);
target = down;
type = TopGhost;
},
{
place = (69, 110);
place = (69, 110);
type = Stem;
},
{
horizontal = 1;
place = (531, -20);
target = down;
type = TopGhost;
},
{
horizontal = 1;
place = (538, -20);
target = down;
type = TopGhost;
}
);
layerId = m01;
shapes = (
{
closed = 1;
nodes = (
(279,544,o),
(248,533,o),
(224,514,c),
(179,441,l),
(179,531,l),
(69,531,l),
(69,0,l),
(179,0,l),
(179,276,ls),
(179,407,o),
(242,459,o),
(343,452,c),
(343,538,l),
(332,542,o),
(321,544,o),
(306,544,cs)
);
},
{
closed = 1;
nodes = (
(90,-48,l),
(30,-200,l),
(100,-200,l),
(171,-59,l),
(171,-48,l)
);
}
);
width = 353;
}
);
note = rcommaaccent;
unicode = 343;
},
{
glyphname = s;
layers = (
{
hints = (
{
horizontal = 1;
place = (-14, 78);
place = (-14, 78);
type = Stem;
},
{
horizontal = 1;
place = (468, 77);
place = (468, 77);
type = Stem;
},
{
place = (23, 111);
place = (23, 111);
type = Stem;
},
{
place = (44, 111);
place = (44, 111);
type = Stem;
},
{
place = (330, 112);
place = (330, 112);
type = Stem;
},
{
place = (339, 111);
place = (339, 111);
type = Stem;
}
);
layerId = m01;
shapes = (
{
closed = 1;
nodes = (
(122,545,o),
(44,485,o),
(44,386,cs),
(44,293,o),
(116,252,o),
(213,227,cs),
(303,203,o),
(339,178,o),
(339,132,cs),
(339,86,o),
(298,64,o),
(247,64,cs),
(192,64,o),
(147,91,o),
(134,159,c),
(23,159,l),
(38,39,o),
(125,-14,o),
(243,-14,cs),
(359,-14,o),
(450,37,o),
(450,140,cs),
(450,234,o),
(389,280,o),
(273,310,cs),
(194,331,o),
(155,351,o),
(155,399,cs),
(155,439,o),
(180,468,o),
(232,468,cs),
(286,468,o),
(319,435,o),
(330,379,c),
(442,379,l),
(430,476,o),
(362,545,o),
(240,545,cs)
);
}
);
width = 476;
}
);
note = s;
unicode = 115;
},
{
glyphname = sacute;
layers = (
{
hints = (
{
horizontal = 1;
place = (-14, 78);
place = (-14, 78);
type = Stem;
},
{
horizontal = 1;
place = (468, 77);
place = (468, 77);
type = Stem;
},
{
place = (23, 111);
place = (23, 111);
type = Stem;
},
{
place = (44, 111);
place = (44, 111);
type = Stem;
},
{
place = (330, 112);
place = (330, 112);
type = Stem;
},
{
place = (339, 111);
place = (339, 111);
type = Stem;
}
);
layerId = m01;
shapes = (
{
closed = 1;
nodes = (
(371,692,l),
(271,692,l),
(202,578,l),
(268,578,l)
);
},
{
closed = 1;
nodes = (
(122,545,o),
(44,485,o),
(44,386,cs),
(44,293,o),
(116,252,o),
(213,227,cs),
(303,203,o),
(339,178,o),
(339,132,cs),
(339,86,o),
(298,64,o),
(247,64,cs),
(192,64,o),
(147,91,o),
(134,159,c),
(23,159,l),
(38,39,o),
(125,-14,o),
(243,-14,cs),
(359,-14,o),
(450,37,o),
(450,140,cs),
(450,234,o),
(389,280,o),
(273,310,cs),
(194,331,o),
(155,351,o),
(155,399,cs),
(155,439,o),
(180,468,o),
(232,468,cs),
(286,468,o),
(319,435,o),
(330,379,c),
(442,379,l),
(430,476,o),
(362,545,o),
(240,545,cs)
);
}
);
width = 476;
}
);
note = sacute;
unicode = 347;
},
{
glyphname = scaron;
layers = (
{
hints = (
{
horizontal = 1;
place = (-14, 78);
place = (-14, 78);
type = Stem;
},
{
horizontal = 1;
place = (468, 77);
place = (468, 77);
type = Stem;
},
{
place = (23, 111);
place = (23, 111);
type = Stem;
},
{
place = (44, 111);
place = (44, 111);
type = Stem;
},
{
place = (330, 112);
place = (330, 112);
type = Stem;
},
{
place = (339, 111);
place = (339, 111);
type = Stem;
}
);
layerId = m01;
shapes = (
{
closed = 1;
nodes = (
(282,578,l),
(348,692,l),
(275,692,l),
(242,626,l),
(209,692,l),
(135,692,l),
(201,578,l)
);
},
{
closed = 1;
nodes = (
(194,331,o),
(155,351,o),
(155,399,cs),
(155,439,o),
(180,468,o),
(232,468,cs),
(286,468,o),
(319,435,o),
(330,379,c),
(442,379,l),
(430,476,o),
(362,545,o),
(240,545,cs),
(122,545,o),
(44,485,o),
(44,386,cs),
(44,293,o),
(116,252,o),
(213,227,cs),
(303,203,o),
(339,178,o),
(339,132,cs),
(339,86,o),
(298,64,o),
(247,64,cs),
(192,64,o),
(147,91,o),
(134,159,c),
(23,159,l),
(38,39,o),
(125,-14,o),
(243,-14,cs),
(359,-14,o),
(450,37,o),
(450,140,cs),
(450,234,o),
(389,280,o),
(273,310,cs)
);
}
);
width = 476;
}
);
note = scaron;
unicode = 353;
},
{
glyphname = scedilla;
layers = (
{
hints = (
{
horizontal = 1;
place = (-13, 77);
place = (-13, 77);
type = Stem;
},
{
horizontal = 1;
place = (468, 77);
place = (468, 77);
type = Stem;
},
{
place = (23, 111);
place = (23, 111);
type = Stem;
},
{
place = (44, 111);
place = (44, 111);
type = Stem;
},
{
place = (330, 112);
place = (330, 112);
type = Stem;
},
{
place = (339, 111);
place = (339, 111);
type = Stem;
}
);
layerId = m01;
shapes = (
{
closed = 1;
nodes = (
(450,234,o),
(389,280,o),
(273,310,cs),
(194,331,o),
(155,351,o),
(155,399,cs),
(155,439,o),
(180,468,o),
(232,468,cs),
(286,468,o),
(319,435,o),
(330,379,c),
(442,379,l),
(430,476,o),
(362,545,o),
(240,545,cs),
(122,545,o),
(44,485,o),
(44,386,cs),
(44,293,o),
(116,252,o),
(213,227,cs),
(303,203,o),
(339,178,o),
(339,132,cs),
(339,86,o),
(298,64,o),
(247,64,cs),
(192,64,o),
(147,91,o),
(134,159,c),
(23,159,l),
(37,50,o),
(110,-4,o),
(212,-13,c),
(176,-81,l),
(246,-76,o),
(272,-91,o),
(272,-122,cs),
(272,-146,o),
(252,-161,o),
(210,-161,cs),
(191,-161,o),
(174,-159,o),
(156,-151,c),
(156,-202,l),
(171,-208,o),
(189,-210,o),
(208,-210,cs),
(286,-210,o),
(342,-181,o),
(342,-122,cs),
(342,-76,o),
(313,-48,o),
(258,-41,c),
(272,-13,l),
(374,-5,o),
(450,46,o),
(450,140,cs)
);
}
);
width = 476;
}
);
note = scedilla;
unicode = 351;
},
{
glyphname = scommaaccent;
layers = (
{
hints = (
{
horizontal = 1;
place = (-14, 78);
place = (-14, 78);
type = Stem;
},
{
horizontal = 1;
place = (468, 77);
place = (468, 77);
type = Stem;
},
{
place = (23, 111);
place = (23, 111);
type = Stem;
},
{
place = (44, 111);
place = (44, 111);
type = Stem;
},
{
place = (330, 112);
place = (330, 112);
type = Stem;
},
{
place = (339, 111);
place = (339, 111);
type = Stem;
}
);
layerId = m01;
shapes = (
{
closed = 1;
nodes = (
(122,545,o),
(44,485,o),
(44,386,cs),
(44,293,o),
(116,252,o),
(213,227,cs),
(303,203,o),
(339,178,o),
(339,132,cs),
(339,86,o),
(298,64,o),
(247,64,cs),
(192,64,o),
(147,91,o),
(134,159,c),
(23,159,l),
(38,39,o),
(125,-14,o),
(243,-14,cs),
(359,-14,o),
(450,37,o),
(450,140,cs),
(450,234,o),
(389,280,o),
(273,310,cs),
(194,331,o),
(155,351,o),
(155,399,cs),
(155,439,o),
(180,468,o),
(232,468,cs),
(286,468,o),
(319,435,o),
(330,379,c),
(442,379,l),
(430,476,o),
(362,545,o),
(240,545,cs)
);
},
{
closed = 1;
nodes = (
(295,-48,l),
(214,-48,l),
(154,-200,l),
(224,-200,l),
(295,-59,l)
);
}
);
width = 476;
}
);
note = scommaaccent;
unicode = 537;
},
{
glyphname = germandbls;
layers = (
{
hints = (
{
horizontal = 1;
place = (-4, 83);
place = (-4, 83);
type = Stem;
},
{
horizontal = 1;
place = (670, 84);
place = (670, 84);
type = Stem;
},
{
place = (69, 110);
place = (69, 110);
type = Stem;
},
{
place = (426, 119);
place = (426, 119);
type = Stem;
},
{
horizontal = 1;
place = (0, 21);
target = up;
type = BottomGhost;
},
{
place = (325, 119);
place = (325, 119);
type = Stem;
},
{
place = (467, 119);
place = (467, 119);
type = Stem;
}
);
layerId = m01;
shapes = (
{
closed = 1;
nodes = (
(180,754,o),
(79,683,o),
(71,542,cs),
(70,524,o),
(69,498,o),
(69,468,cs),
(69,0,l),
(179,0,l),
(179,476,ls),
(179,507,o),
(180,526,o),
(181,540,cs),
(187,626,o),
(238,670,o),
(309,670,cs),
(388,670,o),
(426,633,o),
(426,573,cs),
(426,552,o),
(422,535,o),
(409,514,c),
(350,483,o),
(325,446,o),
(325,398,cs),
(325,341,o),
(349,311,o),
(408,257,cs),
(456,214,o),
(467,187,o),
(467,156,cs),
(467,109,o),
(440,79,o),
(381,79,cs),
(359,79,o),
(331,81,o),
(287,92,c),
(287,6,l),
(326,-2,o),
(352,-4,o),
(395,-4,cs),
(498,-4,o),
(586,49,o),
(586,145,cs),
(586,218,o),
(561,256,o),
(504,305,cs),
(462,342,o),
(444,364,o),
(444,398,cs),
(444,426,o),
(467,450,o),
(515,476,c),
(537,510,o),
(545,544,o),
(545,574,cs),
(545,682,o),
(458,754,o),
(313,754,cs)
);
}
);
width = 623;
}
);
note = germandbls;
unicode = 223;
},
{
glyphname = t;
kernLeft = t;
kernRight = t;
layers = (
{
hints = (
{
horizontal = 1;
place = (-10, 82);
place = (-10, 82);
type = Stem;
},
{
horizontal = 1;
place = (450, 77);
place = (450, 77);
type = Stem;
},
{
place = (91, 109);
place = (91, 109);
type = Stem;
}
);
layerId = m01;
shapes = (
{
closed = 1;
nodes = (
(200,450,l),
(304,450,l),
(304,527,l),
(200,527,l),
(200,654,l),
(91,654,l),
(91,527,l),
(16,527,l),
(16,450,l),
(91,450,l),
(91,162,ls),
(91,132,o),
(91,109,o),
(92,91,cs),
(97,21,o),
(133,-10,o),
(216,-10,cs),
(243,-10,o),
(269,-8,o),
(297,-4,c),
(297,72,l),
(225,65,o),
(205,76,o),
(201,128,cs),
(200,142,o),
(200,154,o),
(200,172,cs)
);
}
);
width = 335;
}
);
note = t;
unicode = 116;
},
{
glyphname = tbar;
kernLeft = t;
kernRight = t;
layers = (
{
hints = (
{
horizontal = 1;
place = (-10, 82);
place = (-10, 82);
type = Stem;
},
{
horizontal = 1;
place = (284, 63);
place = (284, 63);
type = Stem;
},
{
horizontal = 1;
place = (450, 77);
place = (450, 77);
type = Stem;
},
{
place = (91, 109);
place = (91, 109);
type = Stem;
}
);
layerId = m01;
shapes = (
{
closed = 1;
nodes = (
(200,450,l),
(304,450,l),
(304,527,l),
(200,527,l),
(200,654,l),
(91,654,l),
(91,527,l),
(16,527,l),
(16,450,l),
(91,450,l),
(91,347,l),
(25,347,l),
(25,284,l),
(91,284,l),
(91,162,ls),
(91,132,o),
(91,109,o),
(92,91,cs),
(97,21,o),
(133,-10,o),
(216,-10,cs),
(243,-10,o),
(269,-8,o),
(297,-4,c),
(297,72,l),
(225,65,o),
(205,76,o),
(201,128,cs),
(200,142,o),
(200,154,o),
(200,172,cs),
(200,284,l),
(280,284,l),
(280,347,l),
(200,347,l)
);
}
);
width = 335;
}
);
note = tbar;
unicode = 359;
},
{
glyphname = tcaron;
kernLeft = t;
layers = (
{
hints = (
{
horizontal = 1;
place = (-10, 82);
place = (-10, 82);
type = Stem;
},
{
horizontal = 1;
place = (450, 77);
place = (450, 77);
type = Stem;
},
{
horizontal = 1;
place = (582, 153);
place = (582, 153);
type = Stem;
},
{
place = (91, 109);
place = (91, 109);
type = Stem;
},
{
horizontal = 1;
place = (582, 72);
place = (582, 72);
type = Stem;
}
);
layerId = m01;
shapes = (
{
closed = 1;
nodes = (
(376,735,l),
(295,735,l),
(235,582,l),
(305,582,l),
(376,724,l)
);
},
{
closed = 1;
nodes = (
(200,527,l),
(200,654,l),
(91,654,l),
(91,527,l),
(16,527,l),
(16,450,l),
(91,450,l),
(91,162,ls),
(91,132,o),
(91,109,o),
(92,91,cs),
(97,21,o),
(133,-10,o),
(216,-10,cs),
(243,-10,o),
(269,-8,o),
(297,-4,c),
(297,72,l),
(225,65,o),
(205,76,o),
(201,128,cs),
(200,142,o),
(200,154,o),
(200,172,cs),
(200,450,l),
(304,450,l),
(304,527,l)
);
}
);
width = 326;
}
);
note = tcaron;
unicode = 357;
},
{
glyphname = tcedilla;
kernLeft = t;
kernRight = t;
layers = (
{
hints = (
{
horizontal = 1;
place = (-210, 49);
place = (-210, 49);
type = Stem;
},
{
horizontal = 1;
place = (-10, 82);
place = (-10, 82);
type = Stem;
},
{
horizontal = 1;
place = (450, 77);
place = (450, 77);
type = Stem;
},
{
place = (91, 109);
place = (91, 109);
type = Stem;
},
{
horizontal = 1;
place = (-3, 21);
target = up;
type = BottomGhost;
},
{
place = (212, 70);
place = (212, 70);
type = Stem;
}
);
layerId = m01;
shapes = (
{
closed = 1;
nodes = (
(200,450,l),
(304,450,l),
(304,527,l),
(200,527,l),
(200,654,l),
(91,654,l),
(91,527,l),
(16,527,l),
(16,450,l),
(91,450,l),
(91,162,ls),
(91,132,o),
(91,109,o),
(92,91,cs),
(96,41,o),
(115,10,o),
(157,-3,c),
(116,-81,l),
(186,-76,o),
(212,-91,o),
(212,-122,cs),
(212,-146,o),
(192,-161,o),
(150,-161,cs),
(131,-161,o),
(114,-159,o),
(96,-151,c),
(96,-202,l),
(111,-208,o),
(129,-210,o),
(148,-210,cs),
(226,-210,o),
(282,-181,o),
(282,-122,cs),
(282,-76,o),
(253,-48,o),
(198,-41,c),
(214,-10,l),
(216,-10,ls),
(243,-10,o),
(269,-8,o),
(297,-4,c),
(297,72,l),
(225,65,o),
(205,76,o),
(201,128,cs),
(200,142,o),
(200,154,o),
(200,172,cs)
);
}
);
width = 335;
}
);
note = tcedilla;
unicode = 355;
},
{
glyphname = uni021B;
kernLeft = t;
kernRight = t;
layers = (
{
hints = (
{
horizontal = 1;
place = (-200, 152);
place = (-200, 152);
type = Stem;
},
{
horizontal = 1;
place = (-10, 82);
place = (-10, 82);
type = Stem;
},
{
horizontal = 1;
place = (450, 77);
place = (450, 77);
type = Stem;
},
{
place = (91, 109);
place = (91, 109);
type = Stem;
}
);
layerId = m01;
shapes = (
{
closed = 1;
nodes = (
(200,450,l),
(304,450,l),
(304,527,l),
(200,527,l),
(200,654,l),
(91,654,l),
(91,527,l),
(16,527,l),
(16,450,l),
(91,450,l),
(91,162,ls),
(91,132,o),
(91,109,o),
(92,91,cs),
(97,21,o),
(133,-10,o),
(216,-10,cs),
(243,-10,o),
(269,-8,o),
(297,-4,c),
(297,72,l),
(225,65,o),
(205,76,o),
(201,128,cs),
(200,142,o),
(200,154,o),
(200,172,cs)
);
},
{
closed = 1;
nodes = (
(154,-48,l),
(94,-200,l),
(164,-200,l),
(235,-59,l),
(235,-48,l)
);
}
);
width = 335;
}
);
note = uni021B;
unicode = 539;
},
{
glyphname = u;
kernLeft = u;
layers = (
{
hints = (
{
horizontal = 1;
place = (-14, 82);
place = (-14, 82);
type = Stem;
},
{
horizontal = 1;
place = (531, -20);
target = down;
type = TopGhost;
},
{
place = (61, 109);
place = (61, 109);
type = Stem;
},
{
place = (423, 109);
place = (423, 109);
type = Stem;
},
{
horizontal = 1;
place = (0, 68);
place = (0, 68);
type = Stem;
}
);
layerId = m01;
shapes = (
{
closed = 1;
nodes = (
(532,531,l),
(423,531,l),
(423,281,ls),
(423,127,o),
(365,68,o),
(288,68,cs),
(220,68,o),
(182,106,o),
(174,164,cs),
(171,191,o),
(170,220,o),
(170,237,cs),
(170,531,l),
(61,531,l),
(61,215,ls),
(61,172,o),
(62,148,o),
(66,121,cs),
(78,48,o),
(142,-14,o),
(252,-14,cs),
(305,-14,o),
(344,-5,o),
(386,25,c),
(423,91,l),
(423,0,l),
(532,0,l)
);
}
);
width = 604;
}
);
note = u;
unicode = 117;
},
